SplineFontDB: 3.0
FontName: Experiment-Tamil
FullName: Experiment-Tamil
FamilyName: Experiemnt-Tamil
Weight: Regular
Copyright: 
Version: 
ItalicAngle: 0
UnderlinePosition: -99
UnderlineWidth: 23
Ascent: 750
Descent: 250
InvalidEm: 0
LayerCount: 3
Layer: 0 0 "Back" 1
Layer: 1 0 "Fore" 0
Layer: 2 0 "black" 1
PreferredKerning: 4
XUID: [1021 779 -1439063335 605102]
StyleMap: 0x0040
FSType: 0
OS2Version: 3
OS2_WeightWidthSlopeOnly: 0
OS2_UseTypoMetrics: 0
CreationTime: 1316601550
ModificationTime: 1465088637
PfmFamily: 17
TTFWeight: 400
TTFWidth: 5
LineGap: 0
VLineGap: 0
Panose: 2 0 6 0 0 0 0 0 0 0
OS2TypoAscent: 1367
OS2TypoAOffset: 0
OS2TypoDescent: -633
OS2TypoDOffset: 0
OS2TypoLinegap: 20
OS2WinAscent: 846
OS2WinAOffset: 0
OS2WinDescent: 354
OS2WinDOffset: 0
HheadAscent: 846
HheadAOffset: 0
HheadDescent: -371
HheadDOffset: 0
OS2SubXSize: 841
OS2SubYSize: 780
OS2SubXOff: 0
OS2SubYOff: 240
OS2SupXSize: 841
OS2SupYSize: 780
OS2SupXOff: 0
OS2SupYOff: 601
OS2StrikeYSize: 60
OS2StrikeYPos: 300
OS2CapHeight: -1
OS2XHeight: -1
OS2Vendor: 'ACE '
OS2CodePages: 00000001.00000000
OS2UnicodeRanges: 80108003.00002042.00000000.00000000
Lookup: 4 0 0 "'akhn' Akhand lookup 0" { "'akhn' Akhand lookup 0 subtable"  } ['akhn' ('taml' <'dflt' > 'tml2' <'dflt' > ) ]
Lookup: 4 0 0 "'abvs' Above Base Substitutions lookup 1" { "'abvs' Above Base Substitutions lookup 1 subtable"  } ['abvs' ('taml' <'dflt' > 'tml2' <'dflt' > ) ]
Lookup: 6 0 0 "'abvs' Above Base Substitutions lookup 2" { "'abvs' Above Base Substitutions lookup 2 subtable"  } ['abvs' ('taml' <'dflt' > 'tml2' <'dflt' > ) ]
Lookup: 4 0 0 "'psts' Post Base Substitutions lookup 3" { "'psts' Post Base Substitutions lookup 3 subtable"  } ['psts' ('taml' <'dflt' > 'tml2' <'dflt' > ) ]
Lookup: 4 0 0 "'psts' Post Base Substitutions lookup 4" { "'psts' Post Base Substitutions lookup 4 subtable"  } ['psts' ('taml' <'dflt' > 'tml2' <'dflt' > ) ]

StartChar: tml_A
Encoding: 258 2949 2
GlifName: tml_A_
Width: 1183
VWidth: 0
Flags: HWO
LayerCount: 3
Fore
SplineSet
1120 -170 m 1
 1093.05315794 -174.466796875 1063.48357492 -177.713867188 1034 -178 c 1
 1034 555 l 1
 1059.76296593 557.639648438 1105.42213385 559.139648438 1120 559 c 1
 1120 -170 l 1
387 -98 m 0
 635.362901476 -98 737 50.1064453125 737 256 c 0
 737 442.166505777 651.267520182 520.441502906 550 521 c 0
 432.775228795 521.606517119 370.459536424 455.034893713 369 364 c 0
 368.176090163 309.335758568 408.10511514 274.970333073 458 275 c 0
 508.203613281 275.027965199 534.468763733 307.028651388 535 338 c 0
 535.47734375 370.110831233 516.769087835 409.491597575 470 409.82421875 c 0
 419.089582861 410.181685495 369.668417245 389.942143416 352 344 c 1
 349 394 l 1
 388.609501591 447.023293085 449.794678061 455.989740802 490 455.948242188 c 0
 546.938350647 455.886295538 601 413.278615884 601 344 c 0
 601 277.574247685 548.93105472 222.350639551 470 222 c 0
 384.270317476 221.603507531 322.716225602 282.683560985 324 376 c 0
 325.475174292 477.197337497 415.959587865 571.038304745 553 572 c 0
 697.240310746 573.030216333 830 466.311764564 830 243 c 0
 830 47.1005859375 690.444335938 -152 389 -152 c 0
 165.857421875 -152 66.1190492969 -35.3535167562 65 55 c 0
 63.875 145.833984375 131.470703125 176.328125 215 176 c 1
 348.460390531 176.120117188 932.469039917 174.921875 1044 193 c 1
 1040 133 l 0
 212 133 l 0
 159.419921875 133.577148438 114.779370996 115.629883101 115 59 c 0
 115.32421875 -24.21875 238.950195312 -98 387 -98 c 0
EndSplineSet
EndChar

StartChar: tml_Aa
Encoding: 259 2950 3
GlifName: tml_A_a
Width: 1529
VWidth: 0
Flags: HW
LayerCount: 3
Fore
SplineSet
1390 -135 m 4
 1390 -297.54830662 1221.62643021 -405.359124842 1008 -407.15234375 c 4
 840.361977194 -408.63597899 659.288271116 -361.616187545 655 -233.4765625 c 4
 652.934742093 -159.088649729 737.104821696 -98 820 -98 c 4
 864.545454545 -98 918 -105 918 -105 c 5
 927.03542226 -120.903023696 929.741935484 -131.081967213 932 -148 c 5
 866.860335196 -148 720 -102.375215155 720 -238 c 4
 720 -310.402828059 864.340353529 -347.720613598 1006 -346.868164062 c 4
 1188.18487397 -345.732706052 1295.66402217 -250.978609239 1296 -136 c 4
 1296.17621151 -67.8163644451 1263.1895208 -9.49588428948 1199 -8 c 4
 1129.13117108 -6.2445581481 1073.37018145 -67.5573088008 1069 -193 c 5
 1039 -118 l 5
 1042.0894764 -7.18814278367 1136.00510027 55.276800768 1214 55 c 4
 1305.81296452 54.6914388966 1390 -13.0756057882 1390 -135 c 4
EndSplineSet
Refer: 2 2949 N 1 0 0 1 0 0 2
EndChar

StartChar: tml_I
Encoding: 260 2951 4
GlifName: tml_I_
Width: 845
VWidth: 0
Flags: HW
LayerCount: 3
Fore
SplineSet
746 568 m 1
 751.4296875 557.666992188 758.404296875 528.333007812 760 511 c 1
 719.094086269 511.266601562 590.400045142 510.958984375 547 511 c 1
 547 0 l 1
 516.455495085 -0.12890625 484.86911868 -0.1416015625 459 0 c 1
 461 370 l 0
 461.70703125 433.681640625 462.791015625 466.51171875 462 511 c 1
 362.202148438 511.69140625 197.405273438 511.171875 144.607421875 511 c 1
 144.98828125 458.611328125 145 416.990234375 146 364 c 0
 149 205 146 0 146 0 c 1
 80 0 l 1
 80 0 88 136 87 370 c 0
 86.6962890625 440.999023438 84.5771484375 502.514648438 82 558 c 1
 219.815429688 558.265625 592.483398438 558.47265625 746 568 c 1
633.697265625 280.405273438 m 0
 633.697265625 311.177734375 657.942382812 335.422851562 688.71484375 335.422851562 c 0
 719.487304688 335.422851562 742.732421875 311.177734375 742.732421875 280.405273438 c 0
 742.732421875 249.6328125 719.487304688 225.387695312 688.71484375 225.387695312 c 0
 657.942382812 225.387695312 633.697265625 249.6328125 633.697265625 280.405273438 c 0
246.415039062 288.797851562 m 0
 246.415039062 316.44140625 270.66015625 338.219726562 301.432617188 338.219726562 c 0
 332.205078125 338.219726562 356.450195312 313.974609375 356.450195312 283.202148438 c 0
 356.450195312 252.4296875 332.205078125 228.184570312 301.432617188 228.184570312 c 0
 270.66015625 228.184570312 246.415039062 254.896484375 246.415039062 288.797851562 c 0
EndSplineSet
Colour: ff00ff
EndChar

StartChar: tml_U
Encoding: 262 2953 6
GlifName: tml_U_
Width: 938
VWidth: 0
Flags: HW
LayerCount: 3
Fore
SplineSet
612 352 m 0
 607.940429688 508.977539062 484.200195312 574.900390625 361 574 c 0
 210.674804688 572.901367188 121.436523438 469.833984375 120 356 c 0
 118.791835888 260.261823343 191.040039062 206.592773438 271 207 c 0
 367.403320312 207.491210938 416 266.49609375 416 340 c 0
 416 409.897460938 366.834960938 454.885742188 294 454.948242188 c 0
 247.806640625 454.98828125 196.508789062 426.251953125 162 353 c 1
 175 308 l 1
 195.213867188 365.109375 235.7578125 401.49609375 284 400.82421875 c 0
 320.666015625 400.313476562 344.3671875 364.063476562 344 340 c 0
 343.51953125 302.14453125 314.767578125 260.034179688 260 260 c 0
 205.059570312 259.965820312 169.216796875 307.692382812 170 360 c 0
 171.330078125 448.859375 237.661132812 522.48046875 351 522 c 0
 467.141601562 521.5078125 523 439.356445312 523 346 c 1
 522.361328125 234.896484375 481 176 397 156 c 0
 342.227539062 142.958984375 229.732421875 145.610351562 157 142 c 0
 87.7763671875 138.563476562 53.3893256378 111.832568584 51.560546875 66 c 0
 49.7919921875 21.6767578125 75 0 127 0 c 1
 699 0 l 1
 742.196289062 -0.041015625 862.286132812 0.2666015625 903 0 c 1
 902.404296875 21 895.4296875 50.6904296875 889 63 c 1
 730.483398438 51.47265625 580.815429688 49.99609375 442 49 c 1
 124 49 l 1
 106.711914062 56.126953125 100.7734375 97.3603515625 150 98 c 0
 198.485351562 98.6298828125 278.954101562 95.908203125 386 104 c 0
 491.405273438 111.967773438 616.386915635 182.364504747 612 352 c 0
  Spiro
    612 352 o
    572.57 479.424 o
    479.817 551.775 o
    361 574 o
    232.133 542.349 o
    149.657 462.771 o
    120 356 o
    140.802 274.796 o
    196.113 224.139 o
    271 207 o
    351.374 225.331 o
    399.863 273.018 o
    416 340 o
    400.586 400.802 o
    357.946 440.68 o
    294 454.948 o
    246.963 444.834 o
    201.251 411.951 o
    162 353 v
    175 308 v
    201.49 357.555 o
    238.833 389.77 o
    284 400.824 o
    315.906 390.194 o
    336.77 366.324 o
    344 340 o
    334.198 302.478 o
    305.975 272.321 o
    260 260 o
    212.115 274.26 o
    180.755 310.863 o
    170 360 o
    192.288 441.528 o
    254.077 500.002 o
    351 522 o
    447.135 496.945 o
    504.254 432.934 o
    523 346 v
    508.744 251.884 o
    466.802 189.411 o
    397 156 o
    326.68 147.382 o
    239.288 144.334 o
    157 142 o
    99.3504 130.972 o
    64.3027 105.277 o
    51.5605 66 o
    58.7612 29.219 o
    83.9716 7.24695 o
    127 0 v
    699 0 v
    761.963 0.0409268 o
    841.691 0.109389 o
    903 0 v
    900.539 22.9073 o
    895.349 45.8834 o
    889 63 v
    733.66 54.4744 o
    584.213 50.5083 o
    442 49 v
    124 49 v
    112.123 64.7075 o
    117.556 86.6152 o
    150 98 o
    208.877 98.0374 o
    288.102 98.9905 o
    386 104 o
    492.312 134.087 o
    578.846 214.188 o
    0 0 z
  EndSpiro
EndSplineSet
EndChar

StartChar: tml_E
Encoding: 264 2958 8
GlifName: tml_E_
Width: 929
VWidth: 0
Flags: HW
LayerCount: 3
Fore
SplineSet
426.607421875 512 m 1
 248.331690164 513.3203125 102.71618652 419.411132812 104 233 c 0
 104.868020305 108.761242379 205.254758883 32.9790396341 296 33 c 0
 383.336980653 33.0199912354 421.682520277 85.9103354358 422 137 c 0
 422.29120691 187.346515098 382.667354624 223.838669681 333 224 c 0
 283.423134252 224.144803984 221.048391241 182.736618455 216 115 c 0
 212.546677644 66.5732728521 223.935546875 48.80078125 234 23 c 1
 217 7 l 1
 196.970703125 29.0234375 171.391641188 46.9707703236 174.252929688 113 c 0
 178.935546875 221.059570312 257.183742148 296.769496697 357 296 c 0
 433.931594567 295.406924191 506.66015625 238.987304688 506 148 c 0
 505.4609375 73.751953125 457.391601562 -23.0830078125 320 -28 c 0
 152.947265625 -33.978515625 53.701171875 95.0546875 54 226 c 0
 54.4666490626 433.518800592 204.021484375 557.953399751 442 558 c 0
 558.814453125 558.024332683 726.483398438 560.678710938 880 571 c 1
 885.4296875 559.518880209 892.404296875 530.258897569 894 511 c 1
 707 511 l 5
 707 0 l 5
 675.753322558 -0.12890625 645.463811064 -0.1416015625 619 0 c 1
 621 370 l 0
 621.70703125 433.681640625 622.791015625 466.51171875 622 511 c 1
 426.607421875 512 l 1
EndSplineSet
Colour: ff00ff
EndChar

StartChar: tml_Ee
Encoding: 265 2959 9
GlifName: tml_E_e
Width: 929
VWidth: 0
Flags: HW
LayerCount: 3
Fore
SplineSet
619 31 m 1
 706 0 l 1
 700 -17 l 1
 569.181640625 -92.5556640625 441.876953125 -174.13671875 327 -244 c 1
 324.453125 -240.26171875 315.39453125 -229.456054688 313 -211 c 1
 425.1171875 -126.583007812 569.13671875 -6.611328125 619 31 c 1
EndSplineSet
Refer: 8 2958 N 1 0 0 1 0 1.09961 2
Colour: ff00ff
EndChar

StartChar: tml_Ka
Encoding: 270 2965 14
GlifName: tml_K_a
Width: 847
VWidth: 0
GlyphClass: 2
Flags: HW
AnchorPoint: "Anchor-0" 487 751 basechar 0
LayerCount: 3
Back
SplineSet
470 300 m 5
 472 370 l 4
 472.70703125 433.681640625 473.791015625 466.51171875 473 511 c 5
 392.280504077 511.69140625 325.311907966 511.171875 282.607421875 511 c 5
 282.98828125 458.611328125 283 416.990234375 284 364 c 4
 284 331.675824176 284 290 284 290 c 5
 228 290 l 5
 228 290 236 319.405405405 235 370 c 4
 234.696289062 440.999023438 232.577148438 497.514648438 230 553 c 5
 356.477780079 553.265625 591.112734946 553.47265625 732 563 c 5
 737.4296875 552.666992188 744.404296875 528.333007812 746 511 c 5
 705.286132812 511.266601562 602.196289062 510.958984375 559 511 c 5
 559 300 l 1029
EndSplineSet
Fore
SplineSet
450.934570312 301 m 1
 452 370 l 0
 452 433.681640625 452 466.51171875 452 511 c 1
 370.008613701 511.69140625 301.984798997 511.171875 258.607421875 511 c 1
 258.98828125 458.611328125 260 416.999669236 260 364 c 0
 260 332.112637363 260 291 260 291 c 1
 204 291 l 1
 204 291 211.213761861 320.028525395 211 370 c 0
 210.696289063 440.999023438 208.577148438 497.514648438 206 553 c 1
 332.477780079 553.265625 567.112734946 553.47265625 708 563 c 1
 713.4296875 552.666992188 720.404296875 528.333007812 722 511 c 1
 682.157017672 511.266601562 581.272304269 510.958984375 539 511 c 5
 539 301 l 5
 540 223 l 5
 537.247839313 84.067357513 456.107382551 -23 290 -23 c 0
 131.81615096 -23 54.201568638 68.3553358803 55.533203125 159 c 0
 57.0556318279 263.075953586 127.479539176 322.36006236 242 325 c 0
 308.728588693 326.538228428 381.811311629 326.807665433 494 326.026751323 c 1
 528.889521978 325.78389511 567.561160518 325.439454642 611 325 c 0
 747.153089429 323.62264151 800.762087436 246.73245078 802 179 c 0
 804.060861707 66.2398437322 735.24727015 -24.9411127555 571.473632812 -22.26953125 c 1
 571.522463425 -17.7182299578 571.555222815 3.99694211761 571.518554688 10.2958984375 c 1
 679.17307229 10.0915264991 716.346923218 100.092048468 712 170 c 0
 709.28351504 213.686968781 683.976048316 281.578871136 578 283 c 0
 491 283 l 0
 465 283 l 1
 235 283 l 0
 150.85316643 283 98 234.600355833 98 164 c 0
 98 85.2187199279 174.620930941 29.6227304513 285 30 c 0
 386.583562389 30.3447931823 450.670802474 99.4144377862 452 223 c 0
 452.787109375 283 l 1
 450.934570312 301 l 1
EndSplineSet
Colour: ff00ff
EndChar

StartChar: tml_Nga
Encoding: 271 2969 15
GlifName: tml_N_ga
Width: 987
VWidth: 0
GlyphClass: 2
Flags: HW
AnchorPoint: "Anchor-0" 520 751 basechar 0
LayerCount: 3
Fore
SplineSet
810 56 m 1
 811 420.099609375 l 1
 810.620117188 450.930664062 809.35546875 512.805664062 806 556 c 1
 833.444505774 556.692382812 876.196384596 558.69140625 897 560 c 1
 897 0 l 1
 343 0 l 1
 336 46 l 1
 491 46 748 48 810 56 c 1
601 563 m 1
 606.4296875 552.666992188 613.404296875 528.333007812 615 511 c 1
 574.286132812 511.266601562 471.196289062 510.958984375 428 511 c 1
 428 160 l 1
 397.455495084 159.846679688 365.86911868 159.013671875 340 159 c 1
 341 370 l 0
 341.70703125 433.681640625 342.791015625 466.51171875 342 511 c 1
 258.677804607 511.69140625 213.689098205 511.171875 169.607421875 511 c 1
 169.98828125 458.611328125 170.000184191 416.990237851 171 364 c 0
 174 205 171 0 171 0 c 1
 115 0 l 1
 115 0 123.000976558 136.000004175 122 370 c 0
 121.696289062 440.999023438 119.577148438 497.514648438 117 553 c 1
 244.737518925 553.265625 458.709960938 553.47265625 601 563 c 1
494 344 m 0
 459.760742188 344.4921875 416.471679688 323.19140625 412 275 c 1
 374 274 l 1
 384.392578125 359.680664062 458.78125 387.879882812 517 387 c 0
 616.962890625 385.564453125 684.044921875 320.358398438 685.0625 223 c 0
 686.059570312 127.608398438 606.927734375 40.3505859375 536 28 c 0
 440 46 l 0
 537.32421875 44.7421875 600.587890625 113.39453125 599.626953125 224 c 0
 599.14453125 284.68359375 557.375 343.11328125 494 344 c 0
EndSplineSet
Colour: ff00ff
EndChar

StartChar: tml_Ca
Encoding: 272 2970 16
GlifName: tml_C_a
Width: 787
VWidth: 0
GlyphClass: 2
Flags: HW
AnchorPoint: "Anchor-0" 487 751 basechar 0
LayerCount: 3
Fore
SplineSet
242 325 m 0
 394.923768997 327.602002783 509.344682723 324.459529754 701 333 c 1
 706.4296875 322.666992188 713.404296875 298.333007812 715 281 c 1
 666.230447861 282.266601562 542.743148396 281.958984375 491 282 c 1
 465 283 l 1
 235 283 l 0
 150.85316643 283 98 234.600355833 98 164 c 0
 98 85.2187199279 174.620922008 29.6253532297 285 30 c 0
 386.583562389 30.3447931823 450.670802474 99.4144377862 452 223 c 0
 452.787109375 283 l 1
 450.934570312 301 l 1
 452 370 l 0
 452 433.681640625 452 466.51171875 452 511 c 1
 370.008613701 511.69140625 301.984798997 511.171875 258.607421875 511 c 1
 258.98828125 458.611328125 260 416.999669236 260 364 c 0
 260 332.112637363 260 291 260 291 c 1
 204 291 l 1
 204 291 211.213761861 320.028525395 211 370 c 0
 210.696289063 440.999023438 208.577148438 497.514648438 206 553 c 1
 332.477780079 553.265625 567.112734946 553.47265625 708 563 c 1
 713.4296875 552.666992188 720.404296875 528.333007812 722 511 c 1
 682.157017672 511.266601562 581.272304269 510.958984375 539 511 c 5
 539 301 l 5
 540 223 l 5
 537.247839313 84.067357513 456.107382551 -23 290 -23 c 0
 131.81615096 -23 54.2072468364 68.3552526414 55.533203125 159 c 0
 57.0556318279 263.075953586 127.464994166 323.092735837 242 325 c 0
EndSplineSet
Colour: ff00ff
EndChar

StartChar: tml_Tta
Encoding: 275 2975 19
GlifName: tml_T_ta
Width: 910
VWidth: 0
GlyphClass: 2
Flags: HW
AnchorPoint: "Anchor-0" 505 682 basechar 0
LayerCount: 3
Fore
SplineSet
399 53 m 1
 537.815429688 53.99609375 687.483398438 51.47265625 846 63 c 1
 852.4296875 50.6904296875 859.404296875 21 860 0 c 1
 819.286132812 0.2666015625 699.196289062 -0.041015625 656 0 c 1
 90 0 l 1
 92.556640625 25.4814453125 96 103.978515625 96 147 c 2
 96 552 l 1
 114.333678464 555.639648438 158.322289157 560.139648438 184 560 c 5
 184 53 l 5
 399 53 l 1
EndSplineSet
Colour: ff00ff
EndChar

StartChar: tml_Nna
Encoding: 276 2979 20
GlifName: tml_N_na
Width: 1740
VWidth: 0
GlyphClass: 2
Flags: HW
AnchorPoint: "Anchor-0" 769.001 751 basechar 0
LayerCount: 3
Back
SplineSet
886.0625 562.40234375 m 5
 1004.93847656 560.478515625 1074.31690102 508.8310668 1132.17768013 463.000005827 c 5
 1219.03784294 394.198764652 1273.18196326 295.687552369 1273.00097656 181 c 4
 1272.83496094 75.927734375 1219.47265625 -28.787109375 1114.00097656 -29 c 4
 1009.43554688 -29.2109375 957.8125 53.1533203125 958.000976562 171 c 4
 958.327148438 375.086914062 1122.16894531 554.286132812 1334.00097656 555 c 4
 1413.81542969 555.265625 1528.48339844 556.47265625 1682 566 c 5
 1687.4296875 555.666992188 1693.40429688 528.333007812 1695 511 c 5
 1654.28613281 511.266601562 1551.19628906 510.958984375 1508 511 c 5
 1508 0 l 5
 1477.10839844 -0.12890625 1445.16308594 -0.1416015625 1419 0 c 5
 1421 377 l 4
 1421.70703125 440.681640625 1422.79101562 466.51171875 1422 511 c 5
 1335.00097656 511 l 4
 1187.828125 512.415039062 1006.29980469 395.869140625 1007.00097656 172 c 4
 1007.32519531 68.47265625 1055.62792969 21.96875 1108.00097656 22 c 4
 1166.10449219 22.03515625 1188.56738281 96.765625 1188.00097656 182 c 4
 1187.38595682 274.617187506 1144.37870539 356.347315983 1076.42889128 415.999995079 c 5
 1026.71152231 469.646534733 948.640625 512.473632812 859.052734375 515.098632812 c 5
 813.189453125 516.984375 760.509765625 486.756835938 732.05078125 459 c 5
 662.97265625 402.326171875 612.63109181 290.09626788 613.000976562 172 c 4
 613.325195312 68.47265625 661.627929688 21.96875 714.000976562 22 c 4
 772.104492188 22.03515625 794.567382812 96.765625 794.000976562 182 c 4
 792.74609375 370.975585938 615.00390625 513.237304688 409.000976562 517 c 4
 240.000706872 520.086832423 91.763671875 405.411132812 93 239 c 4
 93.998046875 104.65625 177.891601562 28.9775390625 281 29 c 4
 365.802734375 29.0185546875 409.669921875 83.4541015625 410 136 c 4
 410.323242188 187.50390625 367.131835938 225.834960938 313 226 c 4
 264.694335938 226.147460938 206.918945312 187.979492188 204 120 c 4
 202.03125 71.490234375 207.935546875 50.80078125 223 25 c 5
 206 9 l 5
 185.970703125 31.0234375 164.15234375 51.91796875 165.252929688 118 c 4
 166.935546875 219.059570312 234.18359375 297.713867188 335 297 c 4
 417.931640625 296.413085938 484.66015625 238.987304688 484 149 c 4
 483.455078125 74.751953125 432.380859375 -25.8095703125 302 -26 c 4
 138.833984375 -26.23828125 44.7139846798 89.0546609171 45 230 c 4
 45.4267578125 440.301757812 220.948242188 564.749023438 413.000976562 567 c 4
 669 570 879.357421875 406.872070312 879.000976562 181 c 4
 878.834960938 75.927734375 825.47265625 -28.787109375 720.000976562 -29 c 4
 615.435546875 -29.2109375 563.8125 53.1533203125 564.000976562 171 c 4
 564.178060807 281.802248201 612.8671875 409.897460938 691.228515625 482 c 5
 732.638671875 525.505859375 807.272460938 560.36328125 886.0625 562.40234375 c 5
EndSplineSet
Fore
SplineSet
918.0625 562.40234375 m 24
 1124 564 1283.31054688 413.419921875 1283.00097656 189 c 0
 1282.85644531 83.927734375 1229.47265625 -24.787109375 1124.00097656 -25 c 0
 1019.43554688 -25.2109375 967.8125 57.1533203125 968.000976562 175 c 0
 968.327148438 382.309339021 1132.16894531 560.274861225 1344.00097656 561 c 0
 1423.81542969 561.265625 1538.48339844 562.47265625 1692 572 c 1
 1697.4296875 560.539754972 1703.40429688 530.223881391 1705 511 c 1
 1665.37473888 511.266601562 1565.04130807 510.958984375 1523 511 c 1
 1523 0 l 1
 1490.37291521 -0.12890625 1456.63292223 -0.1416015625 1429 0 c 1
 1431 377 l 0
 1431.70703125 440.681640625 1432.79101562 466.51171875 1432 511 c 1
 1345.00097656 511 l 0
 1200.07161359 512.415039062 1021.31049329 399.869140625 1022.00097656 176 c 0
 1022.30898438 79.3744791667 1067.24658204 35.9708333333 1117.00097656 36 c 0
 1171.68663833 36.0329861111 1197.47432215 108.027006173 1197.00097656 188 c 0
 1195.96218772 363.849348495 1073.12876711 508.000856185 906.052734375 508.098632812 c 0
 735.373988099 508.198349273 619.532912357 364.933600586 620.000976562 184 c 0
 620.257517689 83.7488380142 671.60427108 30.9697389241 722.000976562 31 c 0
 776.645949592 31.0340576172 801.533668155 103.429199219 801.000976562 186 c 0
 799.762781022 372.120969836 633.26450559 508.294142986 430.000976562 512 c 0
 263.585066704 515.031394025 106.782575918 402.418126826 108 239 c 0
 108.971503075 104.65625 190.633846201 28.9775390625 291 29 c 0
 375.802734375 29.0185546875 419.669921875 83.4541015625 420 136 c 0
 420.323242188 187.50390625 377.131835938 225.834960938 323 226 c 0
 274.694335938 226.147460938 216.918945312 187.979492188 214 120 c 0
 212.03125 71.490234375 217.935546875 50.80078125 233 25 c 1
 216 9 l 1
 195.970703125 31.0234375 174.15234375 51.91796875 175.252929688 118 c 0
 176.935546875 219.059570312 244.18359375 297.713867188 345 297 c 0
 427.931640625 296.413085938 494.66015625 238.987304688 494 149 c 0
 493.455078125 74.751953125 442.380859375 -25.8095703125 312 -26 c 0
 148.833984375 -26.23828125 54.7138671875 89.0546875 55 230 c 0
 55.4267578125 440.301757812 241.948242188 564.749023438 434.000976562 567 c 0
 690 570 889.357421875 410.872070312 889.000976562 185 c 0
 888.834960938 79.927734375 833.47265625 -24.787109375 728.000976562 -25 c 0
 623.435546875 -25.2109375 567.837890625 60.1533203125 568.000976562 178 c 0
 568.299804688 394.048828125 714 560 918.0625 562.40234375 c 24
EndSplineSet
Colour: ff00ff
EndChar

StartChar: tml_Ta
Encoding: 277 2980 21
GlifName: tml_T_a
Width: 905
VWidth: 0
GlyphClass: 2
Flags: HW
LayerCount: 3
Back
SplineSet
616 325 m 5
 710.360351562 323.262695312 820.091796875 276.16796875 821 136 c 4
 822.138671875 -39.70703125 679.125976562 -131.083984375 475 -153.15234375 c 4
 404.705078125 -160.751953125 157.482421875 -183.306640625 143 -267 c 5
 159.15234375 -199 l 5
 169.229492188 -233 181.649414062 -271 190 -305 c 5
 168.735351562 -312.627929688 147.498046875 -316.370117188 123 -315.887695312 c 4
 99.6572265625 -315.427734375 92.7853254195 -295.458731662 93 -279 c 4
 94.6103515625 -155.537109375 308.649414062 -127.266601562 439 -112.868164062 c 4
 648.188476562 -89.7607421875 727.85546875 -21.958984375 726 121 c 4
 724.924804688 203.868164062 688.438476562 277.7421875 573 279 c 5
 501 278 l 4
 475 278 l 5
 243 280 l 4
 162.538085938 280 111 231.633789062 111 164 c 4
 111 83.455078125 189.80145607 26.6143621016 299 27 c 4
 398.15042317 27.3501526618 460.70263954 97.4934186844 462 223 c 4
 462.787109375 278 l 5
 460.934570312 301 l 5
 462 370 l 4
 462 433.681640625 462 466.51171875 462 511 c 5
 384.526106116 511.65331173 299.5234375 511.225585938 256 511.03125 c 5
 253.461914062 511.01953125 267.997070312 521.009765625 265.607421875 521 c 5
 265.759765625 500.0859375 269.012048011 470.889262874 269.260666473 452 c 5
 269.634822665 423.572768104 270 395.841620879 270 364 c 4
 270 329.928571429 270 286 270 286 c 5
 214 286 l 5
 214 286 221.227290853 316.865829988 221 370 c 4
 220.696289063 440.999023438 218.577148438 497.514648438 216 553 c 5
 342.477780079 553.265625 577.112734946 553.47265625 718 563 c 5
 723.4296875 552.666992188 730.404296875 528.333007812 732 511 c 5
 692.374738887 511.266601562 592.041308071 510.958984375 550 511 c 5
 550 301 l 5
 551 223 l 5
 548.23683067 84.067357513 466.771812081 -23 300 -23 c 4
 141.81615096 -23 64.2072468364 67.3513487662 65.533203125 157 c 4
 67.0910863548 262.329362313 137.479539176 322.328255882 252 325 c 4
 333.336076541 326.897557716 444.8203125 326.852539062 616 325 c 5
EndSplineSet
Fore
SplineSet
616 325 m 1
 710.360351562 323.262695312 819.968344556 276.167114486 821 136 c 0
 822.138671875 -18.70703125 717.756835938 -155.459960938 393 -162.15234375 c 4
 252.492993127 -165.047822994 191.482421875 -160.306640625 147 -246 c 1
 173.15234375 -174 l 5
 183.229492188 -208 180.649414062 -226 189 -260 c 1
 167.735351562 -267.627929688 158.498046875 -267.370117188 134 -266.887695312 c 0
 110.657226562 -266.427734375 102.237304688 -245.458007812 102 -229 c 0
 100.610351562 -132.537109375 234.583984375 -117.859375 414 -114.868164062 c 4
 645.40234375 -111.010742188 730.85546875 3.041015625 729 125 c 0
 727.739257812 207.865234375 688.438476562 277.7421875 573 279 c 1
 501 278 l 0
 475 278 l 1
 243 280 l 0
 162.538085938 280 111 231.633789062 111 164 c 0
 111 83.455078125 189.80145607 26.6143621016 299 27 c 0
 398.15042317 27.3501526618 460.70263954 97.4934186844 462 223 c 0
 462.787109375 278 l 1
 460.934570312 301 l 1
 462 370 l 0
 462 433.681640625 462 466.51171875 462 511 c 1
 384.526106116 511.65331173 299.5234375 511.225585938 256 511.03125 c 1
 253.461914062 511.01953125 267.997070312 521.009765625 265.607421875 521 c 1
 265.759765625 500.0859375 269.012048011 470.889262874 269.260666473 452 c 1
 269.634822665 423.572768104 270 395.841620879 270 364 c 0
 270 329.928571429 270 286 270 286 c 1
 214 286 l 1
 214 286 221.227290853 316.865829988 221 370 c 0
 220.696289063 440.999023438 218.577148438 497.514648438 216 553 c 1
 342.477780079 553.265625 577.112734946 553.47265625 718 563 c 1
 723.4296875 552.666992188 730.404296875 528.333007812 732 511 c 1
 692.374738887 511.266601562 592.041308071 510.958984375 550 511 c 1
 550 301 l 1
 551 223 l 1
 548.23683067 84.067357513 466.771812081 -23 300 -23 c 0
 141.81615096 -23 64.2072468364 67.3513487662 65.533203125 157 c 0
 67.0910863548 262.329362313 137.479539176 322.328255882 252 325 c 0
 333.336076541 326.897557716 444.8203125 326.852539062 616 325 c 1
EndSplineSet
Layer: 2
SplineSet
616 325 m 5
 710.360351562 323.262695312 819.968344556 276.167114486 821 136 c 4
 822.138671875 -18.70703125 697.646484375 -131.766601562 443 -162.15234375 c 4
 353.079101562 -172.881835938 181.482421875 -175.306640625 137 -261 c 5
 173.15234375 -194 l 5
 183.229492188 -228 180.649414062 -246 189 -280 c 5
 167.735351562 -287.627929688 158.498046875 -287.370117188 134 -286.887695312 c 4
 110.657226562 -286.427734375 102.237304688 -265.458007812 102 -249 c 4
 100.610351562 -152.537109375 305.721976589 -132.90544037 444 -114.868164062 c 4
 635.37890625 -89.904296875 730.85546875 3.041015625 729 125 c 4
 727.739257812 207.865234375 688.438476562 277.7421875 573 279 c 5
 501 278 l 4
 475 278 l 5
 243 280 l 4
 162.538085938 280 111 231.633789062 111 164 c 4
 111 83.455078125 189.80145607 26.6143621016 299 27 c 4
 398.15042317 27.3501526618 460.70263954 97.4934186844 462 223 c 4
 462.787109375 278 l 5
 460.934570312 301 l 5
 462 370 l 4
 462 433.681640625 462 466.51171875 462 511 c 5
 384.526106116 511.65331173 299.5234375 511.225585938 256 511.03125 c 5
 253.461914062 511.01953125 267.997070312 521.009765625 265.607421875 521 c 5
 265.759765625 500.0859375 269.012048011 470.889262874 269.260666473 452 c 5
 269.634822665 423.572768104 270 395.841620879 270 364 c 4
 270 329.928571429 270 286 270 286 c 5
 214 286 l 5
 214 286 221.227290853 316.865829988 221 370 c 4
 220.696289063 440.999023438 218.577148438 497.514648438 216 553 c 5
 342.477780079 553.265625 577.112734946 553.47265625 718 563 c 5
 723.4296875 552.666992188 730.404296875 528.333007812 732 511 c 5
 692.374738887 511.266601562 592.041308071 510.958984375 550 511 c 5
 550 301 l 5
 551 223 l 5
 548.23683067 84.067357513 466.771812081 -23 300 -23 c 4
 141.81615096 -23 64.2072468364 67.3513487662 65.533203125 157 c 4
 67.0910863548 262.329362313 137.479539176 322.328255882 252 325 c 4
 333.336076541 326.897557716 444.8203125 326.852539062 616 325 c 5
EndSplineSet
Colour: ff00ff
EndChar

StartChar: tml_Na
Encoding: 278 2984 22
GlifName: tml_N_a
Width: 808
VWidth: 0
GlyphClass: 2
Flags: HW
AnchorPoint: "Anchor-0" 470 751 basechar 0
LayerCount: 3
Fore
SplineSet
594 568 m 5
 599.4296875 556.673828125 606.404296875 530 608 511 c 5
 568.375 511.266601562 468.041015625 510.958984375 426 511 c 5
 426 0 l 5
 393.373046875 -0.12890625 359.6328125 -0.1416015625 332 0 c 5
 334 370 l 4
 334.70703125 433.681640625 335.791015625 466.51171875 335 511 c 5
 235.202148438 511.69140625 191.405273438 511.171875 138.607421875 511 c 5
 138.98828125 458.611328125 140 416.990234375 141 364 c 4
 144 205 141 0 141 0 c 5
 80 0 l 5
 80 0 88 136 87 370 c 4
 86.6962890625 442.938476562 84.5771484375 500.999023438 82 558 c 5
 221.075195312 558.265625 439.080078125 558.47265625 594 568 c 5
728 136 m 5
 728.138671875 -18.70703125 649.756835938 -158.459960938 365 -165.15234375 c 4
 224.501953125 -168.454101562 157.482421875 -160.306640625 113 -246 c 5
 139.15234375 -174 l 5
 149.229492188 -208 146.649414062 -226 155 -260 c 5
 133.735351562 -267.627929688 124.498046875 -267.370117188 100 -266.887695312 c 4
 76.6572265625 -266.427734375 68.2373046875 -245.458007812 68 -229 c 4
 66.6103515625 -132.537109375 196.588867188 -121.141601562 376 -117.868164062 c 4
 587.40234375 -114.010742188 632 -15 632 122 c 4
 632 238.005859375 587.031775334 296.932407053 529 298 c 4
 462.687220743 299.219936061 423.7734375 247.642578125 419 207 c 5
 384 202 l 5
 387.389648438 293.595703125 459.428710938 348.313476562 545 348 c 4
 646.635742188 347.627929688 728 272.951171875 728 136 c 5
EndSplineSet
Colour: ff00ff
EndChar

StartChar: tml_Nnna
Encoding: 279 2985 23
GlifName: tml_N_nna
Width: 1342
VWidth: 0
GlyphClass: 2
Flags: HW
AnchorPoint: "Anchor-0" 648.001 751 basechar 0
LayerCount: 3
Back
SplineSet
419.607421875 515 m 5
 248.723632812 516.3203125 92.6962890625 419.411132812 94 233 c 4
 94.890625 105.655273438 197.891601562 27.978515625 291 28 c 4
 381.802734375 28.0205078125 421.669921875 83.4541015625 422 137 c 4
 422.317382812 188.50390625 379.131835938 225.834960938 325 226 c 4
 276.694335938 226.147460938 215.918945312 183.979492188 211 115 c 4
 207.546875 66.5732421875 218.935546875 48.80078125 229 23 c 5
 212 7 l 5
 191.970703125 29.0234375 166.391601562 46.970703125 169.252929688 113 c 4
 173.935546875 221.059570312 252.18359375 296.76953125 352 296 c 4
 428.931640625 295.407226562 501.66015625 238.987304688 501 148 c 4
 500.4609375 73.751953125 452.391601562 -23.0830078125 315 -28 c 4
 147.947265625 -33.978515625 48.701171875 95.0546875 49 226 c 4
 49.466796875 430.393554688 199.021484375 553.954101562 437 554 c 4
 553.814453125 554.022460938 721.483398438 555.47265625 875 565 c 5
 880.4296875 554.666992188 887.404296875 531.333007812 889 514 c 5
 701 514 l 5
 701 0 l 5
 670.108398438 -0.12890625 640.163085938 -0.1416015625 614 0 c 5
 616 370 l 4
 616.70703125 433.681640625 617.791015625 469.51171875 617 514 c 5
 419.607421875 515 l 5
EndSplineSet
Fore
SplineSet
442.000976562 517 m 4
 263.00390625 520.244140625 91.6953125 398.41015625 93 229 c 4
 93.98046875 101.65625 177.891601562 28.9775390625 281 29 c 4
 365.802734375 29.0185546875 409.669921875 83.4541015625 410 136 c 4
 410.323242188 187.50390625 367.131835938 225.834960938 313 226 c 4
 264.694335938 226.147460938 206.918945312 187.979492188 204 120 c 4
 202.03125 71.490234375 207.935546875 50.80078125 223 25 c 5
 206 9 l 5
 185.970703125 31.0234375 164.15234375 51.91796875 165.252929688 118 c 4
 166.935546875 219.059570312 234.18359375 297.713867188 335 297 c 4
 417.931640625 296.413085938 484.66015625 238.987304688 484 149 c 4
 483.455078125 74.751953125 432.380859375 -25.8095703125 302 -26 c 4
 138.833984375 -26.23828125 45.712890625 83.0546875 46 224 c 4
 46.4267578125 433.301757812 234.950195312 564.55859375 446.000976562 567 c 4
 682.003277259 569.730041976 890.307617188 426.872070312 890.000976562 206 c 0
 889.831054688 83.927734375 820.47265625 -15.78125 714.000976562 -16 c 0
 612.435546875 -16.208984375 557.8203125 67.1533203125 558.000976562 185 c 0
 558.323242188 395.555664062 717.793945312 553.260742188 956.000976562 554 c 0
 1034.81542969 554.244140625 1140.48339844 557.47265625 1294 567 c 1
 1299.4296875 556.666992188 1305.40429688 529.333007812 1307 512 c 1
 1266.28613281 512.266601562 1163.19628906 511.958984375 1120 512 c 1
 1120 1 l 1
 1089.10839844 0.87109375 1057.16308594 0.8583984375 1031 1 c 1
 1033 378 l 0
 1033.70703125 441.681640625 1034.79101562 467.51171875 1034 512 c 1
 962.000976562 512 l 0
 784.828125 513.415039062 603.279296875 409.869140625 603.000976562 188 c 0
 602.875 87.47265625 649.627929688 35.9677734375 708.000976562 36 c 0
 766.104492188 36.0322265625 805.538085938 101.765625 806.000976562 186 c 0
 807.09375 384.9765625 638.007829998 513.447574282 442.000976562 517 c 4
EndSplineSet
Colour: ff00ff
EndChar

StartChar: tml_Pa
Encoding: 280 2986 24
GlifName: tml_P_a
Width: 865
VWidth: 0
GlyphClass: 2
Flags: HW
AnchorPoint: "Anchor-0" 428 682 basechar 0
AnchorPoint: "Anchor-4" 699 1 basechar 0
LayerCount: 3
Fore
SplineSet
697 56.6904296875 m 5
 697 420.099609375 l 5
 696.620117188 450.930664062 695.35546875 512.805664062 692 556 c 5
 719.74609375 556.692382812 753.967773438 558.69140625 775 560 c 5
 775 0 l 5
 90 -1 l 5
 92.556640625 24.4814453125 95.1630859375 53.978515625 96 147 c 6
 96 555 l 5
 122.362304688 557.639648438 159.083007812 559.139648438 174 559 c 5
 174 51 l 5
 378 51 l 6
 441.298828125 51 558.961914062 51.287109375 697 56.6904296875 c 5
EndSplineSet
Colour: ff00ff
EndChar

StartChar: tml_Ma
Encoding: 281 2990 25
GlifName: tml_M_a
Width: 872
VWidth: 0
GlyphClass: 2
Flags: HW
AnchorPoint: "Anchor-0" 594 751 basechar 0
LayerCount: 3
Back
SplineSet
556 0 m 6
 722.641601562 0 820.950195312 99.1689453125 822 266 c 4
 823.058401474 434.19722395 745.996954397 568.155366556 600 567 c 4
 522.630010552 566.387722171 439.397460938 527.958007812 438 399 c 6
 434 30 l 4
 511 30 l 5
 514 397 l 6
 514.771484375 490.0546875 571.90234375 509.397460938 614 509 c 4
 719.163085938 508.006835938 776.47283902 380.137728035 776 269 c 4
 775.483398438 147.576171875 721.325195312 48 555 48 c 6
 184 48 l 5
 184 560 l 5
 161.083007812 560.139648438 112.362304688 555.639648438 96 552 c 5
 96 147 l 6
 96 103.978515625 92.556640625 25.4814453125 90 0 c 5
 556 0 l 6
EndSplineSet
Fore
SplineSet
556 0 m 2
 90 0 l 1
 92.556640625 25.4814453125 96 103.978515625 96 147 c 2
 96 552 l 1
 111.804498846 555.639648438 158.864268909 560.139648438 181 560 c 5
 181 53 l 5
 555 53 l 2
 717.562181843 53 770.495086256 157.238975123 771 276 c 0
 771.458068094 387.137695312 713.979040076 508.006835938 614 509 c 0
 571.902418287 509.405278738 514.740284074 490.054941161 514 399 c 2
 511 35 l 1
 429 35 l 0
 433 395 l 2
 434.440592448 523.958007812 520.242047915 566.387722171 600 567 c 0
 745.996954397 568.155366556 823.071243487 441.197185535 822 273 c 0
 820.950195312 108.168945312 722.641601562 0 556 0 c 2
EndSplineSet
Colour: ff00ff
EndChar

StartChar: tml_Ya
Encoding: 282 2991 26
GlifName: tml_Y_a
Width: 966
VWidth: 0
GlyphClass: 2
Flags: HW
AnchorPoint: "Anchor-4" 788 1 basechar 0
AnchorPoint: "Anchor-0" 534 682 basechar 0
LayerCount: 3
Fore
SplineSet
409 181 m 5
 444 187 l 4
 444.924804688 106.953125 385.34375 -13.876953125 250 -13 c 4
 169.626953125 -12.4892578125 95.1220703125 25.28515625 94 140 c 6
 90 554 l 4
 119.080078125 557.068359375 139.397460938 559.466796875 175 559 c 5
 178 127 l 6
 178.477539062 60.3388671875 224.150390625 38.6650390625 273 39 c 4
 349.692382812 39.5927734375 408.556640625 114.935546875 409 181 c 5
794 53.6904296875 m 5
 794 450.099609375 l 5
 793.620117188 474.125 792.35546875 522.340820312 789 556 c 5
 818.25390625 556.692382812 853.825195312 558.69140625 876 560 c 5
 876 0 l 5
 428 -1 l 5
 430.158203125 27.798828125 430.68359375 86.9375 430.930664062 122 c 5
 411.993164062 120.428710938 402 118.764648438 402 117 c 6
 402 451 l 4
 403.224609375 467.28515625 402.205078125 516.166015625 399 555 c 5
 428.05859375 557.639648438 469.557617188 559.139648438 486 559 c 5
 486 44 l 5
 594 44 l 6
 624.51953125 44 737.901367188 47.89453125 794 53.6904296875 c 5
EndSplineSet
Colour: ff00ff
EndChar

StartChar: tml_Ra
Encoding: 283 2992 27
GlifName: tml_R_a
Width: 663
VWidth: 0
GlyphClass: 2
Flags: HW
AnchorPoint: "Anchor-0" 360 751 basechar 0
LayerCount: 3
Fore
SplineSet
362 27 m 1
 456 0 l 5
 450 -17 l 5
 317.274667456 -92.5556640625 218.551544278 -161.13671875 102 -233 c 1
 99.453125 -229.26171875 90.39453125 -218.456054688 88 -200 c 1
 195.1171875 -112.583007812 312.13671875 -11.611328125 362 27 c 1
EndSplineSet
Refer: 37 3006 N 1 0 0 1 0 0 2
Substitution2: "Single Substitution lookup 23 subtable" tml_MatraAa
Colour: ff00ff
EndChar

StartChar: tml_Rra
Encoding: 284 2993 28
GlifName: tml_R_ra
Width: 871
VWidth: 0
GlyphClass: 2
Flags: HW
LayerCount: 3
Fore
SplineSet
384 -162.15234375 m 1
 242.501953125 -165.454101562 171.482421875 -160.306640625 127 -246 c 1
 153.15234375 -174 l 1
 163.229492188 -208 160.649414062 -226 169 -260 c 1
 147.735351562 -267.627929688 138.498046875 -267.370117188 114 -266.887695312 c 0
 90.6572265625 -266.427734375 82.2373046875 -245.458007812 82 -229 c 0
 80.6103515625 -132.537109375 202.588867188 -120.141601562 382 -116.868164062 c 1
 651.234375 -112.74609375 677.85546875 63.041015625 679 255 c 0
 680.178710938 452.678710938 622.758789062 512.00390625 539 510 c 0
 497.883789062 509.016601562 444.641601562 466.362304688 439 417 c 2
 425 385 l 1
 425.294921875 397.466796875 395.422851562 440.041992188 398.498046875 452 c 1
 407.725585938 489.201171875 460.279296875 557.413085938 553 560 c 0
 646.509765625 562.609375 759.930664062 492.956054688 761 246 c 0
 761.540039062 121.290039062 749.1796875 -149.30078125 384 -162.15234375 c 1
171 -3 m 1
 119 -3 l 1
 119.787109375 13.5615234375 123.44606386 38.3914821302 122.926757812 139 c 1
 124.700195312 402.177734375 l 1
 125.3203125 498.915039062 188.768554688 559.8203125 280 561 c 0
 342.228515625 561.8046875 398.560546875 530.559570312 426.092773438 470 c 1
 441.369140625 433 l 1
 441 423.249023438 l 1
 441 1 l 1
 411.919921875 -2.068359375 392.602539062 -4.466796875 357 -4 c 1
 357 381.926757812 l 1
 358.302734375 487.208984375 314.801757812 512.807617188 263 512 c 0
 217.788085938 511.294921875 172.756835938 473.826171875 174.091796875 397.826171875 c 1
 171 -3 l 1
EndSplineSet
Colour: ff00ff
EndChar

StartChar: tml_La
Encoding: 285 2994 29
GlifName: tml_L_a
Width: 1130
VWidth: 0
GlyphClass: 2
Flags: HW
AnchorPoint: "Anchor-0" 532 751 basechar 0
LayerCount: 3
Back
SplineSet
365 509 m 4
 225.819335938 509 131.0546875 399.700195312 132 255 c 4
 132.897460938 117.655273438 231.31640625 27.978515625 323 28 c 4
 410.336914062 28.0205078125 448.682617188 83.4541015625 449 137 c 4
 449.30078125 185.03125 408.341796875 219.845703125 357 220 c 4
 308.694335938 220.139648438 247.918945312 180.250976562 243 115 c 4
 239.546875 66.5732421875 250.935546875 48.80078125 261 23 c 5
 244 7 l 5
 223.970703125 29.0234375 198.391601562 46.970703125 201.252929688 113 c 4
 205.935546875 221.059570312 284.18359375 296.76953125 384 296 c 4
 460.931640625 295.407226562 527.66015625 242.987304688 527 152 c 4
 526.4609375 77.751953125 477.380859375 -20.8037109375 340 -26 c 4
 181.947265625 -31.978515625 77.70703125 105.0546875 78 246 c 4
 78.4306640625 456.423828125 212.650641766 568 386 568 c 4
 504 568 638.9921875 513.419921875 677 283 c 4
 694.200709676 178.721802466 750.745117188 54.765625 851 55 c 4
 957.944324603 55.2500135193 986.948242188 179.6484375 986 265 c 4
 984.783324088 374.513362216 935.239257812 462.055664062 877 498.159179688 c 5
 851.190429688 511.870117188 801.732421875 524.868164062 777.12109375 528.540039062 c 5
 771.629302588 547.105086961 793.477063824 603.568531284 833 605.418945312 c 5
 915.768554688 582.440429688 1040.95214844 456.721679688 1043.07128906 262 c 4
 1044.30623695 148.524223608 998.965820312 -10.9091796875 838.140625 -13 c 4
 719.998046875 -14.5361328125 621.577148438 55.7080078125 584 269 c 4
 553.004589897 444.933327685 482.67578125 509 365 509 c 4
EndSplineSet
Fore
SplineSet
366 506 m 0
 237.819335938 506 138.0546875 399.700195312 139 255 c 0
 139.897460938 117.655273438 228.31640625 27.978515625 320 28 c 0
 407.336914062 28.0205078125 445.682617188 83.4541015625 446 137 c 0
 446.30078125 185.03125 405.341796875 219.845703125 354 220 c 0
 305.694335938 220.139648438 244.918945312 180.250976562 240 115 c 0
 236.546875 66.5732421875 247.935546875 48.80078125 258 23 c 1
 241 7 l 1
 220.970703125 29.0234375 195.391601562 46.970703125 198.252929688 113 c 0
 202.935546875 221.059570312 281.18359375 296.76953125 381 296 c 0
 457.931640625 295.407226562 524.66015625 242.987304688 524 152 c 0
 523.4609375 77.751953125 474.380859375 -20.8037109375 337 -26 c 0
 178.947265625 -31.978515625 84.6982421875 105.0546875 85 246 c 0
 85.4306640625 447.423828125 212.650390625 568 386 568 c 0
 442.388873166 568 503.615234375 558.001953125 557 522.716796875 c 0
 622.90234375 479.157226562 670.853515625 399.15625 689 277 c 0
 707.453125 152.780273438 724.745068096 49.7584241142 828 50 c 0
 931.944406323 50.2431889845 977.129660738 177.643567573 977 261 c 0
 976.778320312 403.513671875 930.239257812 453.055664062 872 489.159179688 c 5
 847.190429688 505.870117188 789.732421875 509.868164062 765.12109375 509.540039062 c 5
 769.62890625 529.10546875 801.477539062 575.568359375 841 577.418945312 c 1
 906.768554688 547.440429688 1031.95214844 484.721679688 1034.07128906 256 c 0
 1035.12267579 142.522425719 976.966811456 -15.961656249 821.140625 -18 c 0
 750.314993006 -18.9264616408 683.475585938 6.9912109375 647.459960938 68 c 0
 621.862304688 111.36328125 612.258029277 172.948719512 599 253 c 0
 573.054379719 409.658284806 503.67578125 506 366 506 c 0
EndSplineSet
Colour: ff00ff
EndChar

StartChar: tml_Lla
Encoding: 286 2995 30
GlifName: tml_L_la
Width: 1271
VWidth: 0
GlyphClass: 2
Flags: HW
AnchorPoint: "Anchor-0" 636 751 basechar 0
LayerCount: 3
Back
SplineSet
444.607421875 511 m 5
 263.723632812 512.3203125 107.696289062 419.411132812 109 233 c 4
 109.890625 105.655273438 212.891601562 27.978515625 306 28 c 4
 396.802734375 28.0205078125 436.669921875 83.4541015625 437 137 c 4
 437.317382812 188.50390625 394.131835938 225.834960938 340 226 c 4
 291.694335938 226.147460938 230.918945312 183.979492188 226 115 c 4
 222.546875 66.5732421875 233.935546875 48.80078125 244 23 c 5
 227 7 l 5
 206.970703125 29.0234375 181.391601562 46.970703125 184.252929688 113 c 4
 188.935546875 221.059570312 267.18359375 296.76953125 367 296 c 4
 443.931640625 295.407226562 510.66015625 241.987304688 510 151 c 4
 509.4609375 76.751953125 467.391601562 -23.0830078125 330 -28 c 4
 162.947265625 -33.978515625 63.701171875 100.0546875 64 231 c 4
 64.37109375 393.540039062 160.546875 504.970703125 324 543.45703125 c 4
 364.12890625 552.90625 415.599609375 554.3046875 452 554 c 4
 568.814453125 553.022460938 736.483398438 554.47265625 890 564 c 5
 895.4296875 553.666992188 902.404296875 527.333007812 904 510 c 5
 716 510 l 5
 716 0 l 5
 685.108398438 -0.12890625 655.163085938 -0.1416015625 629 0 c 5
 631 370 l 4
 631.70703125 433.681640625 632.791015625 465.51171875 632 510 c 5
 444.607421875 511 l 5
EndSplineSet
Fore
SplineSet
1212 569 m 1
 1217.4296875 557.474722056 1224.40429688 530.332970252 1226 511 c 1
 1186.5924601 511.266601562 1086.81031187 510.958984375 1045 511 c 1
 1045 0 l 1
 1012.02581856 -0.12890625 977.926889484 -0.1416015625 950 0 c 1
 952 370 l 0
 952.70703125 433.681640625 953.791015625 466.51171875 953 511 c 1
 855.75678184 511.69140625 776.053749802 511.171875 724.607421875 511 c 1
 724.98828125 458.611328125 724 409.990234375 725 347 c 0
 725 0 l 1
 630 0 l 1
 630 0 629.872070312 158.272460938 630 364 c 1
 630.008789062 378.879882812 673.067382812 354.216796875 673 370 c 0
 672.696289062 443.326860272 673.577148438 501.695456584 671 559 c 1
 808.815429688 559.265625 1058.48339844 559.47265625 1212 569 c 1
380 527 m 0
 231.831969535 528.456776495 105.745287814 415.028766134 107 245 c 0
 108.012943097 113.766059028 206.352670242 33.9780589916 311 34 c 0
 392.437546503 34.017687646 431.683020213 85.9095173773 432 136 c 0
 432.306406657 185.239998283 392.312469483 222.842215402 341 223 c 0
 292.694335938 223.14194838 233.918945312 185.43820276 231 120 c 0
 229.03125 71.490234375 234.935546875 50.80078125 250 25 c 1
 233 9 l 1
 212.970703125 31.0234375 191.15234375 51.91796875 192.252929688 118 c 0
 193.935546875 219.059570312 261.18359375 297.688476562 362 297 c 0
 447.931640625 296.397329856 511.66015625 236.403071257 511 144 c 4
 510.455078125 71.4394087358 463.380845855 -27.8150577294 329 -28 c 0
 164.833974233 -28.2311885496 61.701171875 101.0546875 62 242 c 0
 62.4267578125 446.31525718 204.153320312 581 389 581 c 0
 578.433846154 581 693.182833533 461.383300782 720 342 c 1
 637 296 l 1
 628.615631813 419.47170573 525.142275315 525.53920573 380 527 c 0
EndSplineSet
Colour: ff00ff
EndChar

StartChar: tml_Llla
Encoding: 287 2996 31
GlifName: tml_L_lla
Width: 872
VWidth: 0
GlyphClass: 2
Flags: HW
LayerCount: 3
Back
SplineSet
192 -150 m 5
 122 -206 l 5
 121.228515625 -247.420898438 165.647460938 -292.690429688 213 -292 c 4
 306.231445312 -290.594726562 398.956054688 -165.985351562 482 -155 c 5
 446.810546875 -152.614257812 431.938476562 -107.935546875 432 -64 c 5
 432 6 l 5
 509 5 l 5
 509 -55 l 5
 509.624023438 -106.0546875 514.219726562 -147 581 -147 c 6
 680 -147 l 5
 680 -170.8125 680 -176.646484375 680 -194 c 5
 570 -193 l 5
 421.998046875 -194.671875 346.111328125 -341.440429688 208 -342 c 4
 119.697265625 -342.388671875 37.5419921875 -290.33203125 37 -208 c 4
 36.4990234375 -143.568359375 81.6923828125 -104.806640625 128 -103.33203125 c 4
 156.680664062 -102.403320312 189.15234375 -117.520507812 192 -150 c 5
EndSplineSet
Refer: 25 2990 S 1 0 0 1 0 0 2
Fore
SplineSet
558 -170 m 1
 481.313476562 -171.30859375 395.498046875 -265.87890625 347 -312 c 4
 323.474609375 -334.372070312 277.511081297 -356.116182301 231 -357 c 0
 131.689827056 -358.887122081 73.44140625 -302.33203125 73 -228 c 0
 72.4052734375 -127.864257812 151.602539062 -69 233 -69 c 0
 268 -69 299.84765625 -81.900390625 311 -96 c 1
 310.362304688 -120.521484375 302.204101562 -145.215820312 278 -152 c 1
 262.834960938 -134.612304688 235.986328125 -122.711914062 207 -124 c 0
 161.987304688 -126 116 -162.446289062 116 -218 c 0
 116 -269 145.650390625 -302.760742188 219 -301 c 0
 314.217773438 -298.71484375 374.956054688 -125.985351562 487 -125 c 1
 558 -170 l 1
432 -45 m 2
 432 16 l 1
 509 15 l 1
 509 -56 l 1
 509.624023438 -116.0546875 531.219726562 -124 568 -124 c 1
 593 -124 670 -122 696 -120 c 1
 697 -133.8125 696 -156 693 -171 c 1
 540 -170 l 2
 468.509765625 -169.489257812 432 -140.01953125 432 -45 c 2
EndSplineSet
Refer: 25 2990 N 1 0 0 1 0 13 2
Colour: ff00ff
EndChar

StartChar: tml_Va
Encoding: 288 2997 32
GlifName: tml_V_a
Width: 1074
VWidth: 0
GlyphClass: 2
Flags: HW
AnchorPoint: "Anchor-0" 504 751 basechar 0
LayerCount: 3
Back
SplineSet
431.607421875 510 m 5
 484.405273438 510.171875 521.202148438 511.69140625 621 511 c 5
 621.791015625 466.51171875 620.70703125 433.681640625 620 370 c 4
 618 0 l 5
 644.163085938 -0.1416015625 674.108398438 -0.12890625 705 0 c 5
 705 511 l 5
 748.196289062 510.958984375 852.286132812 511.266601562 893 511 c 5
 891.404296875 528.333007812 884.4296875 552.666992188 879 563 c 5
 725.483398438 553.47265625 555.814453125 552.022460938 439 553 c 4
 402.599609375 553.3046875 351.12890625 549.90625 311 540.45703125 c 4
 147.546875 501.970703125 54.37109375 389.540039062 54 223 c 4
 53.7080078125 92.0546875 145.833984375 -28.2314453125 304 -28 c 4
 438.380859375 -27.8037109375 498.4609375 72.751953125 499 147 c 4
 499.66015625 237.987304688 435.931640625 296.413085938 350 297 c 4
 249.18359375 297.688476562 180.935546875 219.059570312 179.252929688 118 c 4
 178.15234375 51.91796875 199.970703125 29.0234375 220 7 c 5
 237 23 l 5
 226.935546875 48.80078125 216.03125 73.490234375 218 122 c 4
 220.918945312 189.979492188 280.694335938 226.147460938 329 226 c 4
 383.131835938 225.834960938 426.317382812 188.50390625 426 137 c 4
 425.669921875 83.4541015625 382.802734375 28.0185546875 292 28 c 4
 188.891601562 27.978515625 98.890625 105.655273438 98 233 c 4
 96.6962890625 419.411132812 243.723632812 511.3203125 431.607421875 510 c 5
EndSplineSet
Fore
SplineSet
99 247 m 4
 98.0547685731 401.699801773 201.822641509 519.969333022 361 519 c 4
 515 518.073336576 616.428710938 400.067952776 615 246 c 0
 614.018554688 141.705078125 590.951171875 79.9873046875 559 18 c 1
 573 0 l 1
 1000 0 l 1
 1000 565 l 1
 977.596106488 564.69140625 931.555621603 561.692382812 902 560 c 1
 905.35546875 515.32539606 906.620117188 440.987242957 907 409.099609375 c 1
 907 52.6904296875 l 1
 794.708984375 48.7001953125 722.637695312 45.654296875 600 47 c 1
 596.213867188 36.427734375 657.459960938 22.21875 653.517578125 9 c 1
 681.013047922 75.56640625 706.790118317 158.431640625 706 250 c 0
 704.407895062 453.870211205 562.760153785 574.239033385 384 577 c 4
 192.818359375 579.997599774 47.4306640625 450.423772237 47 240 c 4
 46.70703125 99.0546875 150.947265625 -31.978515625 309 -26 c 4
 446.380859375 -20.8037109375 495.4609375 77.751953125 496 152 c 4
 496.66015625 242.987304688 429.931640625 295.407226562 353 296 c 4
 253.18359375 296.76953125 174.935546875 221.059570312 170.252929688 113 c 4
 167.391601562 46.970703125 192.970703125 29.0234375 213 7 c 5
 230 23 l 5
 219.935546875 48.80078125 208.546875 66.5732421875 212 115 c 4
 216.918945312 180.250870989 277.694335938 220.139490076 326 220 c 4
 377.341535116 219.846087167 418.301022873 185.031732795 418 137 c 4
 417.682520277 83.4541015625 379.336981155 28.0205078125 292 28 c 4
 200.31673011 27.978515625 99.8481445312 109.655273438 99 247 c 4
EndSplineSet
Layer: 2
SplineSet
919 52.6904296875 m 5
 806.708984375 48.7001953125 734.637695312 45.654296875 612 47 c 5
 608.213867188 36.427734375 664.459960938 22.21875 660.517578125 9 c 5
 685.393554688 75.56640625 708.744425204 158.432276994 708 250 c 4
 706.432961386 442.752954815 553.986328125 564.416992188 388 567 c 4
 186.821289062 570.130859375 56.458984375 419.301757812 56 231 c 4
 55.6806640625 100.0546875 153.833984375 -28.23828125 317 -28 c 4
 447.380859375 -27.8095703125 504.455078125 73.751953125 505 148 c 4
 505.66015625 237.987304688 438.931640625 296.413085938 353 297 c 4
 252.18359375 297.688476562 187.935546875 219.059570312 186.252929688 118 c 4
 185.15234375 51.91796875 206.970703125 31.0234375 227 9 c 5
 244 25 l 5
 228.935546875 50.80078125 223.03125 71.490234375 225 120 c 4
 227.918945312 187.979492188 286.694335938 226.147460938 335 226 c 4
 389.131835938 225.834960938 432.323242188 188.50390625 432 137 c 4
 431.669921875 84.4541015625 391.802734375 29.0185546875 306 29 c 4
 202.891601562 28.9775390625 103.182617188 117.658203125 102 245 c 4
 100.696289062 385.411132812 196 511.955078125 357 511 c 4
 511 510.086914062 628.375542587 410.811460257 627 255 c 4
 626.043945312 146.705078125 595.951171875 70.9873046875 571 18 c 5
 585 0 l 5
 1006 0 l 5
 1006 560 l 5
 984.967773438 559.69140625 941.74609375 557.692382812 914 556 c 5
 917.35546875 512.805664062 918.620117188 450.930664062 919 420.099609375 c 5
 919 52.6904296875 l 5
EndSplineSet
Colour: ff00ff
EndChar

StartChar: tml_Sha
Encoding: 289 2998 33
GlifName: tml_S_ha
Width: 1093
VWidth: 0
GlyphClass: 2
Flags: HW
AnchorPoint: "Anchor-0" 540 751 basechar 0
LayerCount: 3
Fore
SplineSet
463.657226562 184.810546875 m 1
 464 507 l 1
 761 507 l 2
 922.056640625 507 974.5 401.826171875 975 282 c 0
 975.474609375 170.385742188 918.705078125 48.9970703125 820 48 c 0
 777.90234375 47.57421875 720.75 67.1171875 720 159 c 2
 717 525 l 1
 631 525 l 0
 635 163 l 2
 636.432617188 33.2919921875 726.2421875 -9.3837890625 806 -10 c 0
 951.997070312 -11.1318359375 1029.07128906 117.942382812 1028 289 c 0
 1026.96484375 452.624023438 928.641601562 560 762 560 c 2
 403 560 l 1
 405.556640625 534.865234375 409.447265625 449.994140625 409 415 c 2
 405.913085938 180.233398438 l 6
 404.806640625 93.9189453125 364.997070312 45.4970703125 303 45 c 0
 230.405273438 44.41796875 188.596679688 89.619140625 188 168 c 2
 185 559 l 1
 149.397460938 559.466796875 131.080078125 557.068359375 102 554 c 0
 106 146 l 2
 107.075195312 36.2841796875 196.474673995 -12.5180844839 272 -13 c 0
 415.250976562 -13.9140625 463.657226562 76.47265625 463.657226562 184.810546875 c 1
EndSplineSet
Colour: ff00ff
EndChar

StartChar: tml_Ssa
Encoding: 290 2999 34
GlifName: tml_S_sa
Width: 1467
VWidth: 0
GlyphClass: 2
Flags: HW
AnchorPoint: "Anchor-0" 512 751 basechar 0
LayerCount: 3
Fore
SplineSet
1375 0 m 1
 581 0 l 1
 567 18 l 1
 598.951171875 79.9873046875 622.018554688 141.705078125 623 246 c 0
 624.450195312 400.067382812 523 518.073242188 369 519 c 0
 209.822265625 519.958007812 106.0546875 402.700195312 107 248 c 0
 107.838867188 110.655273438 208.31640625 27.978515625 300 28 c 0
 387.336914062 28.0205078125 425.682617188 83.4541015625 426 137 c 0
 426.28515625 185.032226562 385.341796875 219.845703125 334 220 c 0
 285.694335938 220.14453125 224.918945312 180.250976562 220 115 c 0
 216.350585938 66.587890625 227.935546875 48.80078125 238 23 c 1
 221 7 l 1
 200.970703125 29.0234375 175.391601562 46.970703125 178.252929688 113 c 0
 182.935546875 221.059570312 261.18359375 296.76953125 361 296 c 0
 437.931640625 295.407226562 504.66015625 242.987304688 504 152 c 0
 503.4609375 77.751953125 454.380859375 -20.8037109375 317 -26 c 0
 158.947265625 -31.978515625 54.70703125 100.0546875 55 241 c 0
 55.4375 451.423828125 200.818359375 579.998046875 392 577 c 0
 570.759765625 574.197265625 712.408203125 453.870117188 714 250 c 0
 714.71484375 158.430664062 689.012695312 75.56640625 661.517578125 9 c 1
 665.459960938 23.9580078125 604.213867188 40.037109375 608 52 c 1
 810.224609375 49.369140625 1188.17578125 46.51171875 1294.04492188 58.0673828125 c 1
 1290.34179688 337 l 1
 1330 324 l 1
 1296.27636719 272.471679688 1184.58496094 199.518554688 1055 199.5078125 c 4
 877.557617188 199.493164062 782.181640625 304.6171875 782.181640625 405.494140625 c 0
 782.181640625 515.838867188 867.436523438 564.293945312 940 565.569335938 c 0
 1025.65039062 567.075195312 1094 518.651367188 1096 417.685546875 c 1
 1096 -250 l 1
 1010 -250 l 2
 1010 401 l 1
 1010 484.05859375 971.497070312 509.244140625 922 508.37890625 c 0
 877.590820312 507.602539062 838 477.858398438 838 408 c 0
 838 317.676757812 949.176757812 252.065429688 1057 255.70703125 c 4
 1225.1953125 261.387695312 1321.01464844 374.255859375 1357 414 c 1
 1378.35742188 416 l 1
 1375.6328125 381.870117188 1375 329.002929688 1375 312 c 2
 1375 0 l 1
EndSplineSet
Colour: ff00ff
EndChar

StartChar: tml_Sa
Encoding: 291 3000 35
GlifName: tml_S_a
Width: 1130
VWidth: 0
GlyphClass: 2
Flags: HW
AnchorPoint: "Anchor-0" 532 751 basechar 0
LayerCount: 3
Fore
SplineSet
366 506 m 0
 237.819335938 506 138.0546875 399.700195312 139 255 c 0
 139.897460938 117.655273438 228.31640625 27.978515625 320 28 c 0
 407.336914062 28.0205078125 445.682617188 83.4541015625 446 137 c 0
 446.30078125 185.03125 405.341796875 219.845703125 354 220 c 0
 305.694335938 220.139648438 244.918945312 180.250976562 240 115 c 0
 236.546875 66.5732421875 247.935546875 48.80078125 258 23 c 1
 241 7 l 1
 220.970703125 29.0234375 195.391601562 46.970703125 198.252929688 113 c 0
 202.935546875 221.059570312 281.18359375 296.76953125 381 296 c 0
 457.931640625 295.407226562 524.66015625 242.987304688 524 152 c 0
 523.4609375 77.751953125 474.380859375 -20.8037109375 337 -26 c 0
 178.947265625 -31.978515625 84.6982421875 105.0546875 85 246 c 0
 85.4306640625 447.423828125 212.650390625 568 386 568 c 0
 442.388873166 568 509.615234375 558.001953125 563 522.716796875 c 0
 628.90234375 479.157226562 676.853758681 399.156132916 695 277 c 0
 713.452781346 152.780313337 724.745068096 49.7584241142 828 50 c 0
 931.944406323 50.2431889845 977.129660738 177.643567573 977 261 c 0
 976.778320312 403.513671875 910.239257812 463.055664062 852 499.159179688 c 1
 826.190429688 512.870117188 759.732421875 506.868164062 735.12109375 510.540039062 c 1
 729.62890625 529.10546875 761.477539062 585.568359375 801 587.418945312 c 1
 876.768554688 557.440429688 1031.95214844 484.721679688 1034.07128906 256 c 0
 1035.12267579 142.522425719 976.966811456 -15.961656249 821.140625 -18 c 0
 750.314993006 -18.9264616408 683.475585938 6.9912109375 647.459960938 68 c 0
 621.862304688 111.36328125 612.258029277 172.948719512 599 253 c 0
 573.054379719 409.658284806 503.67578125 506 366 506 c 0
EndSplineSet
Colour: ff00ff
EndChar

StartChar: tml_Ha
Encoding: 292 3001 36
GlifName: tml_H_a
Width: 1645
VWidth: 0
GlyphClass: 2
Flags: HW
AnchorPoint: "Anchor-0" 911 751 basechar 0
LayerCount: 3
Back
SplineSet
1582 259 m 4
 1582.64941406 20.7119140625 1486.68554688 -162.0390625 1289 -186.356445312 c 4
 1037.17675781 -217.333007812 643.575195312 -197.157226562 513 -207.15234375 c 4
 401.449203234 -215.691203549 200.482421875 -225.306640625 186 -309 c 5
 202.15234375 -244 l 5
 212.229492188 -278 224.649414062 -329 233 -363 c 5
 211.735351562 -368.627929688 175.498046875 -371.370117188 157 -370.887695312 c 4
 133.692382812 -369.530273438 126.819335938 -353.458984375 127 -337 c 4
 128.610351562 -190.537109375 372.479492188 -174.19921875 523 -161.868164062 c 4
 652.274414062 -151.27734375 1060.99707031 -169.885742188 1229 -137.6953125 c 5
 1434.41015625 -114.231445312 1488.47363281 36.9150390625 1489 261 c 4
 1489.28320312 381.671875 1453.33554284 510.83400092 1339 510 c 4
 1287.87616781 509.627086013 1244.64160156 466.362304688 1239 417 c 6
 1225 385 l 5
 1225.29492188 397.466796875 1195.42285156 440.041992188 1198.49804688 452 c 5
 1207.72558594 489.201171875 1256.24730969 559.112319923 1349 560 c 4
 1486.54980469 561.31640625 1581.46582031 455.013671875 1582 259 c 4
1245 423.249023438 m 5
 1245 1 l 5
 1215.91992188 -2.068359375 1200.60253906 -4.466796875 1165 -4 c 5
 1165 351.926757812 l 5
 1166.30273438 467.208984375 1114.80175781 512.807617188 1063 512 c 4
 1017.78808594 511.294921875 975.756835938 483.826171875 977.091796875 407.826171875 c 5
 976.284179688 104 l 5
 976.65234375 52.7646484375 979.463867188 32.1611328125 981 -3 c 5
 591 0 l 5
 577 18 l 5
 608.951171875 79.9873046875 632.018554688 141.705078125 633 246 c 4
 634.428710938 400.068359375 533 518.073242188 379 519 c 4
 219.822265625 519.969726562 116.0546875 401.700195312 117 247 c 4
 117.84765625 109.655273438 218.31640625 27.978515625 310 28 c 4
 397.336914062 28.0205078125 435.682617188 83.4541015625 436 137 c 4
 436.30078125 185.03125 395.341796875 219.845703125 344 220 c 4
 295.694335938 220.139648438 234.918945312 180.250976562 230 115 c 4
 226.546875 66.5732421875 237.935546875 48.80078125 248 23 c 5
 231 7 l 5
 210.970703125 29.0234375 185.391601562 46.970703125 188.252929688 113 c 4
 192.935546875 221.059570312 271.18359375 296.76953125 371 296 c 4
 447.931640625 295.407226562 514.66015625 242.987304688 514 152 c 4
 513.4609375 77.751953125 464.380859375 -20.8037109375 327 -26 c 4
 168.947265625 -31.978515625 64.70703125 99.0546875 65 240 c 4
 65.4306640625 450.423828125 210.818359375 579.998046875 402 577 c 4
 580.759765625 574.239257812 722.408203125 453.870117188 724 250 c 4
 724.790039062 158.431640625 699.012695312 75.56640625 671.517578125 9 c 5
 675.459960938 22.21875 614.213867188 36.427734375 618 47 c 5
 740.637695312 45.654296875 817.708984375 48.7001953125 930 52.6904296875 c 5
 927 14 l 5
 922.926757812 139 l 5
 922.700195312 408.177734375 l 5
 923.3203125 504.915039062 983.768554688 559.8203125 1075 561 c 4
 1137.22851562 561.8046875 1198.56054688 530.559570312 1226.09277344 470 c 5
 1245.36914062 443 l 5
 1245 423.249023438 l 5
EndSplineSet
Fore
SplineSet
1582 259 m 4
 1582.64941406 20.7119140625 1473.68554688 -148.0390625 1256 -183.356445312 c 4
 1005.55371094 -223.989257812 643.575195312 -197.157226562 513 -207.15234375 c 4
 401.449203234 -215.691203549 200.482421875 -225.306640625 186 -309 c 5
 202.15234375 -244 l 5
 212.229492188 -278 224.649414062 -329 233 -363 c 5
 211.735351562 -368.627929688 175.498046875 -371.370117188 157 -370.887695312 c 4
 133.692382812 -369.530273438 126.819335938 -353.458984375 127 -337 c 4
 128.610351562 -190.537109375 372.479492188 -174.19921875 523 -161.868164062 c 4
 652.274414062 -151.27734375 1057.99707031 -170.885742188 1226 -138.6953125 c 5
 1431.41015625 -108.231445312 1488.47363281 36.9150390625 1489 261 c 4
 1489.28320312 381.671875 1453.33554284 510.83400092 1339 510 c 4
 1287.87616781 509.627086013 1244.64160156 466.362304688 1239 417 c 6
 1225 385 l 5
 1225.29492188 397.466796875 1195.42285156 440.041992188 1198.49804688 452 c 5
 1207.72558594 489.201171875 1256.24730969 559.112319923 1349 560 c 4
 1486.54980469 561.31640625 1581.46582031 455.013671875 1582 259 c 4
1245 423.249023438 m 5
 1245 1 l 5
 1215.91992188 -2.068359375 1200.60253906 -4.466796875 1165 -4 c 5
 1165 351.926757812 l 5
 1166.30273438 467.208984375 1114.80175781 512.807617188 1063 512 c 4
 1017.78808594 511.294921875 975.756835938 483.826171875 977.091796875 407.826171875 c 5
 976.284179688 104 l 5
 976.65234375 52.7646484375 979.463867188 32.1611328125 981 -3 c 5
 591 0 l 1
 577 18 l 1
 608.951171875 79.9873046875 632.018554688 141.705078125 633 246 c 0
 634.428710938 400.068359375 533 518.073242188 379 519 c 0
 219.822265625 519.969726562 116.0546875 401.700195312 117 247 c 0
 117.84765625 109.655273438 218.31640625 27.978515625 310 28 c 0
 397.336914062 28.0205078125 435.682617188 83.4541015625 436 137 c 0
 436.30078125 185.03125 395.341796875 219.845703125 344 220 c 0
 295.694335938 220.139648438 234.918945312 180.250976562 230 115 c 0
 226.546875 66.5732421875 237.935546875 48.80078125 248 23 c 1
 231 7 l 1
 210.970703125 29.0234375 185.391601562 46.970703125 188.252929688 113 c 0
 192.935546875 221.059570312 271.18359375 296.76953125 371 296 c 0
 447.931640625 295.407226562 514.66015625 242.987304688 514 152 c 0
 513.4609375 77.751953125 464.380859375 -20.8037109375 327 -26 c 0
 168.947265625 -31.978515625 64.70703125 99.0546875 65 240 c 0
 65.4306640625 450.423828125 210.818359375 579.998046875 402 577 c 0
 580.759765625 574.239257812 722.408203125 453.870117188 724 250 c 0
 724.790039062 158.431640625 699.012695312 75.56640625 671.517578125 9 c 1
 675.459960938 22.21875 614.213867188 36.427734375 618 47 c 1
 740.637695312 45.654296875 817.708984375 48.7001953125 930 52.6904296875 c 5
 927 14 l 5
 922.926757812 139 l 5
 922.700195312 408.177734375 l 5
 923.3203125 504.915039062 983.768554688 559.8203125 1075 561 c 4
 1137.22851562 561.8046875 1198.56054688 530.559570312 1226.09277344 470 c 5
 1245.36914062 443 l 5
 1245 423.249023438 l 5
EndSplineSet
Colour: ff00ff
EndChar

StartChar: tml_MatraAa
Encoding: 293 3006 37
GlifName: tml_M_atraA_a
Width: 668
VWidth: 0
GlyphClass: 2
Flags: HW
LayerCount: 3
Back
SplineSet
650 563 m 5
 655.4296875 552.666992188 662.404296875 528.333007812 664 511 c 5
 623.286262718 511.266946152 544.196289062 510.958984375 501 511 c 5
 501 -2 l 5
 470.108398438 -1.12890625 442.163085938 -0.1416015625 416 0 c 5
 416 511 l 5
 316.202148438 511.69140625 227.405273438 511.171875 174.607421875 511 c 5
 175.98828125 485.611328125 177 416.990234375 178 364 c 4
 181 205 182 0 182 0 c 5
 122 0 l 5
 122 0 130 136 129 370 c 4
 128.696289062 440.999023438 127.577148438 500.514648438 124 553 c 5
 261.815429688 553.265625 496.483398438 553.47265625 650 563 c 5
EndSplineSet
Fore
SplineSet
624 568 m 1
 629.4296875 556.673433745 636.404296875 529.999643179 638 511 c 1
 598.374738887 511.266601562 498.041308071 510.958984375 456 511 c 1
 456 0 l 1
 423.372915204 -0.12890625 389.632922227 -0.1416015625 362 0 c 1
 364 370 l 0
 364.70703125 433.681640625 365.791015625 466.51171875 365 511 c 1
 265.202148438 511.69140625 181.405273438 511.171875 128.607421875 511 c 5
 128.98828125 458.611328125 130 416.990234375 131 364 c 0
 134 205 131 0 131 0 c 1
 70 0 l 1
 70 0 78 136 77 370 c 0
 76.6962890625 442.938887466 74.5771484375 500.998655226 72 558 c 1
 211.075168533 558.265625 469.080138826 558.47265625 624 568 c 1
EndSplineSet
Colour: ff00ff
EndChar

StartChar: tml_MatraE
Encoding: 298 3014 42
GlifName: tml_M_atraE_
Width: 930
VWidth: 0
Flags: HW
LayerCount: 3
Back
SplineSet
769 477 m 5
 768 -1 l 5
 829 -1 l 5
 829 519 l 5
 827.537979423 696.238157318 693.493927087 833 487 833 c 4
 243.769070397 833 52.2285012285 658.349366358 49 397 c 4
 46.5293516403 182.293406862 176.933668736 -21.2285779553 437 -21 c 4
 573.257445972 -20.880240367 673 55.3350257572 673 167 c 4
 673 251.778719443 617.239218482 312.534755628 533 311 c 4
 452.987741678 309.542255425 382.702160721 247.095267713 384 152 c 4
 384.806662813 92.8942097738 413.043785545 37.7017688934 478.1328125 0.1318359375 c 5
 496 41 l 5
 462.101059437 55.6884872002 439.636655794 111.480671994 441 153 c 260
 442.379111242 194.999497814 471.033631257 235.734890477 515 236 c 4
 556.654760749 236.251170931 585.529009468 193.615789011 584 149 c 4
 581.24508807 68.6129442004 517.56990206 41.0641084559 450 41 c 4
 262.013613581 40.8216437113 115 180.026018009 115 394 c 4
 115 628.207940925 279.454320887 770.033813441 487 764 c 4
 640.195859429 756.734269886 770.363048537 661.470131417 769 477 c 5
EndSplineSet
Fore
SplineSet
456.064453125 -27.0595703125 m 0
 571.827492131 -26.110645076 668.006835938 48.6216866734 668.006835938 171.5234375 c 0
 668.006835938 262.796235601 598.450450175 328.051757812 509.01171875 328.051757812 c 0
 399.574269569 328.051757812 325.32013924 239.73468847 326.991210938 136.840820312 c 0
 328.327700922 54.5483462541 371.196770525 4.28861348088 423.1328125 -26.8681640625 c 1
 441 10 l 1
 400.638272493 32.7704350034 373.798503889 79.1612346691 375.921875 137.821289062 c 0
 378.361572311 205.220141869 415.840905273 261.00390625 484.340820312 261.00390625 c 0
 548.714462823 261.00390625 583.715504074 212.830354369 583.002929688 155.8984375 c 0
 582.124159364 85.6881128067 525.510742188 36.556640625 443.287109375 38.9990234375 c 0
 218.592773438 45.5693359375 131.201171875 220.486328125 133.93359375 399.416992188 c 0
 137.625976562 634.677734375 258.717880696 765.233702009 462.521484375 767.466796875 c 0
 677.630166818 769.978603482 796.506835938 619.68359375 796 410 c 2
 796 117 l 1
 796.27734375 57.0361328125 792.221679688 10.8642578125 790 -1 c 1
 852 -1 l 1
 852.012695312 467.40234375 l 0
 852.842773438 689.65625 716.461642937 846.194335938 493.116210938 846.194335938 c 0
 231.796219299 846.194335938 77.2021484375 648.547893868 77.2021484375 398.9765625 c 0
 77.2021484375 154.883344058 207.08154886 -29.1752536889 456.064453125 -27.0595703125 c 0
EndSplineSet
EndChar

StartChar: tml_MatraEe
Encoding: 299 3015 43
GlifName: tml_M_atraE_e
Width: 813
Flags: HW
LayerCount: 3
Back
SplineSet
128.93359375 411.416992188 m 4
 132.162932873 625.626877638 262.372711008 736.910010235 473.521484375 739.466796875 c 0
 699.252875154 742.175350664 804.642757211 580.107460587 804 354 c 2
 803 -1 l 1
 861 -1 l 1
 861.012695312 417.40234375 l 0
 861.861747147 667.820113224 743.958554762 844.194335938 495.116210938 844.194335938 c 0
 228.141493632 844.194335938 70.2021484375 642.169431593 70.2021484375 388.9765625 c 4
 70.2021484375 144.515722708 224.340731878 -20.9570332824 466.064453125 -20.0595703125 c 4
 592.753957274 -19.5892021663 698.006835938 55.6216866734 698.006835938 178.5234375 c 4
 698.006835938 272.128664593 628.450450175 339.051757812 539.01171875 339.051757812 c 4
 430.175506488 339.051757812 356.329319919 250.73468847 357.991210938 147.840820312 c 4
 359.312915366 63.5404133815 397.139010434 12.0498857509 443.1328125 -19.8681640625 c 5
 461 21 l 5
 426.840314655 43.7704350033 404.124784204 90.1612346688 405.921875 148.821289062 c 4
 408.054637944 216.230552556 445.840905273 272.00390625 514.340820312 272.00390625 c 4
 578.714462823 272.00390625 613.634550869 223.831310037 613.002929688 166.8984375 c 4
 612.15248403 87.6871308117 561.85265088 28.6411675595 474.287109375 29.9990234375 c 4
 252.865731496 33.4002198807 125.659494049 193.093228523 128.93359375 411.416992188 c 4
EndSplineSet
Fore
SplineSet
72 384 m 1
 71.0771484375 143.903320312 242.615980693 -21.9642012642 524.064453125 -21.0595703125 c 0
 666.255859375 -20.6025390625 777.006835938 60.7197265625 777.006835938 193.5234375 c 0
 777.006835938 283.046875 705.325195312 352.051757812 617.01171875 352.051757812 c 0
 511.181640625 352.051757812 437.787109375 267.8984375 438.991210938 169.840820312 c 0
 439.95703125 89.052734375 470.036132812 24.7177734375 524.1328125 -5.8681640625 c 1
 556 28 l 1
 511.916992188 51.3046875 495.830078125 105.719726562 494.921875 158.821289062 c 0
 493.67578125 226.225585938 534.028320312 273.00390625 602.340820312 273.00390625 c 0
 650.251953125 273.00390625 689.579101562 238.958007812 689.002929688 176.8984375 c 0
 688.177734375 95.2880859375 636.615234375 36.775390625 529.287109375 37.9990234375 c 0
 250.55078125 41.17578125 132.100585938 205.625 133 392 c 0
 134.2109375 642.771484375 306.131835938 798.474609375 536 792 c 4
 629.999023438 789.352539062 696.495117188 743.520507812 697 676 c 0
 697.442892007 616.769833151 665.503757715 582.186620499 613 582 c 0
 555.578125 581.795898438 525.532825682 635.753916453 524 677 c 256
 521.790039062 736.466796875 558.758789062 785.076171875 596 802 c 1
 548.83984375 823.323242188 l 1
 510.438476562 805.533203125 467.0859375 737.979492188 466 662 c 0
 464.678710938 569.166015625 520.870117188 503.948242188 622 505 c 0
 734.12109375 506.166015625 781.147460938 589.552734375 780 674 c 0
 778.75390625 765.720703125 695.794921875 850 533 850 c 0
 276.997070312 850 75.3984375 665.078125 72 384 c 1
EndSplineSet
EndChar

StartChar: tml_MatraAi
Encoding: 300 3016 44
GlifName: tml_M_atraA_i
Width: 1251
VWidth: 0
Flags: HW
LayerCount: 3
Fore
SplineSet
892.0625 561.40234375 m 0
 1059.13574219 563.283203125 1196.2265625 448.359375 1196.00097656 260 c 0
 1195.82910156 116.467773438 1142.11230469 15.2724609375 1094.00097656 -25 c 1
 1075.48632812 -19 1057.61425781 -3 1047.00097656 6 c 1
 1094.47949219 56.9921875 1111.78027344 185.198242188 1111.00097656 252 c 4
 1109.68457031 364.8828125 1024.18847656 504.015625 873.052734375 504.098632812 c 0
 711.374023438 504.1875 609.533203125 343.350585938 610.000976562 197 c 0
 610.342773438 90.197265625 661.486328125 37.94921875 706.000976562 38 c 0
 749.479492188 38.0498046875 790.66796875 84.4296875 790.000976562 186 c 0
 788.778320312 372.120117188 607.828125 508.293945312 421.000976562 512 c 0
 249.416992188 515.03125 106.745117188 402.41796875 108 239 c 0
 108.971679688 104.65625 190.633789062 28.9775390625 291 29 c 0
 375.802734375 29.0185546875 419.669921875 83.4541015625 420 136 c 0
 420.323242188 187.50390625 377.131835938 225.834960938 323 226 c 0
 274.694335938 226.147460938 216.918945312 187.979492188 214 120 c 0
 212.03125 71.490234375 217.935546875 50.80078125 233 25 c 1
 216 9 l 1
 195.970703125 31.0234375 174.15234375 51.91796875 175.252929688 118 c 0
 176.935546875 219.059570312 244.18359375 297.713867188 345 297 c 0
 427.931640625 296.413085938 494.66015625 238.987304688 494 149 c 0
 493.455078125 74.751953125 442.380859375 -25.8095703125 312 -26 c 0
 148.833984375 -26.23828125 54.7138671875 89.0546875 55 230 c 0
 55.4384765625 440.301757812 227.880859375 564.749023438 425.000976562 567 c 0
 664.12109375 570 878.376898493 410.872002967 878.000976562 185 c 0
 877.814453125 72.927734375 821.575195312 -19.8017578125 711.000976562 -20 c 0
 612.505859375 -20.17578125 553.809570312 70.34765625 554.000976562 194 c 0
 554.299804688 387.428710938 678.000976562 558.9921875 892.0625 561.40234375 c 0
EndSplineSet
Substitution2: "Single Substitution lookup 24 subtable" tml_MatraAi.alt
Colour: ffff00
EndChar

StartChar: tml_MatraAu
Encoding: 303 3020 47
GlifName: tml_M_atraA_u
Width: 1271
VWidth: 0
Flags: HW
LayerCount: 3
Fore
SplineSet
1212 563 m 1
 1217.4296875 552.666992188 1224.40429688 528.333007812 1226 511 c 1
 1185.28613281 511.266601562 1082.19628906 510.958984375 1039 511 c 1
 1039 0 l 1
 1008.10839844 -0.12890625 976.163085938 -0.1416015625 950 0 c 1
 952 370 l 0
 952.70703125 433.681640625 953.791015625 466.51171875 953 511 c 1
 853.202148438 511.69140625 771.405273438 511.171875 718.607421875 511 c 1
 718.98828125 458.611328125 718 409.990234375 719 347 c 0
 719 0 l 1
 630 0 l 1
 630 0 629.872070312 138.272460938 630 344 c 1
 630.008789062 358.879882812 673.067382812 334.216796875 673 350 c 0
 672.696289062 420.999023438 673.577148438 497.514648438 671 553 c 1
 808.815429688 553.265625 1058.48339844 553.47265625 1212 563 c 1
376 521 m 0
 230.002929688 522.42578125 108.763671875 407.411132812 110 241 c 0
 110.998046875 106.65625 207.891601562 28.9775390625 311 29 c 0
 395.802734375 29.0185546875 436.669921875 83.4541015625 437 136 c 0
 437.323242188 187.50390625 395.131835938 226.834960938 341 227 c 0
 292.694335938 227.147460938 233.918945312 187.979492188 231 120 c 0
 229.03125 71.490234375 234.935546875 50.80078125 250 25 c 1
 233 9 l 1
 212.970703125 31.0234375 191.15234375 51.91796875 192.252929688 118 c 0
 193.935546875 219.059570312 261.18359375 297.688476562 362 297 c 0
 447.931640625 296.413085938 511.66015625 237.987304688 511 148 c 0
 510.455078125 73.751953125 459.380845855 -27.8107567464 329 -28 c 0
 164.833984375 -28.23828125 61.701171875 97.0546875 62 238 c 0
 62.4267578125 439.301757812 204.153320312 576 389 576 c 0
 575 576 687.668945312 458.885742188 714 342 c 1
 637 296 l 1
 628.583007812 416.264648438 521.70703125 519.577148438 376 521 c 0
EndSplineSet
Colour: ffff00
EndChar

StartChar: tml_Virama
Encoding: 304 3021 48
GlifName: tml_V_irama
Width: 0
VWidth: 0
GlyphClass: 4
Flags: HW
AnchorPoint: "Anchor-0" -0.0576172 713.235 mark 0
LayerCount: 3
Fore
SplineSet
-1.017578125 651.35546875 m 4
 -37.53125 650.010742188 -67.9140625 679.80859375 -69.0576171875 715.1953125 c 4
 -70.248046875 752.036132812 -35.5927734375 780.979492188 1.5029296875 782.39453125 c 4
 35.0615234375 783.67578125 65.24609375 754.127929688 66.1826171875 721.075195312 c 4
 67.23828125 683.797851562 36.345703125 652.73046875 -1.017578125 651.35546875 c 4
EndSplineSet
EndChar

StartChar: tml_Om
Encoding: 305 3024 49
GlifName: tml_O_m
Width: 999
Flags: HW
LayerCount: 3
Back
SplineSet
348 -6 m 2
 348 -9.33333333333 347.333333333 -12.5 346 -15.5 c 128
 344.666666667 -18.5 343 -20.8333333333 341 -22.5 c 128
 339 -24.1666666667 336.5 -25.6666666667 333.5 -27 c 128
 330.5 -28.3333333333 327.333333333 -29 324 -29 c 128
 320.666666667 -29 317.833333333 -28.3333333333 315.5 -27 c 128
 313.166666667 -25.6666666667 310.833333333 -24 308.5 -22 c 128
 306.166666667 -20 304.333333333 -17.3333333333 303 -14 c 128
 301.666666667 -10.6666666667 301 -7.33333333333 301 -4 c 128
 301 -0.666666666667 301.666666667 2.5 303 5.5 c 128
 304.333333333 8.5 306.166666667 11.3333333333 308.5 14 c 128
 310.833333333 16.6666666667 313.333333333 18.5 316 19.5 c 128
 318.666666667 20.5 321.333333333 21 324 21 c 0
 327.333333333 21 330.5 20.5 333.5 19.5 c 128
 336.5 18.5 339 16.8333333333 341 14.5 c 128
 343 12.1666666667 344.666666667 9.33333333333 346 6 c 128
 347.333333333 2.66666666667 348 -0.666666666667 348 -4 c 2
 348 -6 l 2
360 -160 m 1
 375.333333333 -136.666666667 376 -116 362 -98 c 0
 347.333333333 -82 333 -81.1666666667 319 -95.5 c 128
 305 -109.833333333 303.666666667 -131 315 -159 c 1
 360 -160 l 1
261 -283 m 0
 349.666666667 -287.666666667 414.333333333 -245.666666667 455 -157 c 1
 474.333333333 -102.333333333 503 -66 541 -48 c 1
 505 -34.6666666667 476 -13.6666666667 454 15 c 128
 432 43.6666666667 421 74.6666666667 421 108 c 0
 421 154 439.833333333 193.5 477.5 226.5 c 128
 515.166666667 259.5 560.333333333 276 613 276 c 1
 598.333333333 258 586.666666667 238.666666667 578 218 c 128
 569.333333333 197.333333333 565 176.666666667 565 156 c 256
 565 136 573.166666667 119 589.5 105 c 128
 605.833333333 91 625.666666667 84 649 84 c 256
 672.333333333 84 692.166666667 93.5 708.5 112.5 c 128
 724.833333333 131.5 733 154 733 180 c 0
 733 256 701.5 321 638.5 375 c 128
 575.5 429 499 456 409 456 c 0
 322.333333333 456 248.833333333 431.5 188.5 382.5 c 128
 128.166666667 333.5 98 274 98 204 c 0
 98 190.666666667 99 178 101 166 c 128
 103 154 105.666666667 142.666666667 109 132 c 1
 109 170.666666667 120.833333333 203.5 144.5 230.5 c 128
 168.166666667 257.5 196.333333333 271 229 271 c 0
 261.666666667 271 290 258.333333333 314 233 c 128
 338 207.666666667 350 178.333333333 350 145 c 0
 350 107.666666667 338 76.1666666667 314 50.5 c 128
 290 24.8333333333 261.666666667 12 229 12 c 0
 179.666666667 12 137.333333333 30.8333333333 102 68.5 c 128
 66.6666666667 106.166666667 49 151.333333333 49 204 c 0
 49 287.333333333 84.3333333333 358.166666667 155 416.5 c 128
 225.666666667 474.833333333 310.333333333 504 409 504 c 0
 515 504 605.666666667 472.333333333 681 409 c 128
 756.333333333 345.666666667 794 269.333333333 794 180 c 0
 794 140 780 106 752 78 c 128
 724 50 689.666666667 36 649 36 c 0
 611.666666667 36 580.5 47.6666666667 555.5 71 c 128
 530.5 94.3333333333 518 122.666666667 518 156 c 0
 518 162.666666667 520.5 172.166666667 525.5 184.5 c 128
 530.5 196.833333333 538 211.666666667 548 229 c 1
 524 215 505 197.166666667 491 175.5 c 128
 477 153.833333333 470 131.333333333 470 108 c 0
 470 70.6666666667 486.166666667 39.3333333333 518.5 14 c 128
 550.833333333 -11.3333333333 590.666666667 -24 638 -24 c 2
 770 -24 l 1
 770 -72 l 1
 593 -72 l 2
 579.666666667 -72 562 -81.6666666667 540 -101 c 0
 526 -113.666666667 513.666666667 -133 503 -159 c 0
 460.333333333 -271.666666667 380.333333333 -325.666666667 263 -321 c 0
 111.666666667 -315 34.3333333333 -258.666666667 31 -152 c 0
 29.6666666667 -120.666666667 37.3333333333 -92.3333333333 54 -67 c 0
 68.6666666667 -43.6666666667 90.6666666667 -32 120 -32 c 0
 137.333333333 -32 152 -38.6666666667 164 -52 c 0
 178.666666667 -70.6666666667 186.333333333 -107 187 -161 c 1
 218.333333333 -161.666666667 247.666666667 -161.666666667 275 -161 c 1
 267.666666667 -119.666666667 274.666666667 -89 296 -69 c 0
 318.666666667 -48.3333333333 345.333333333 -46.6666666667 376 -64 c 0
 398.666666667 -77.3333333333 408 -102.666666667 404 -140 c 0
 401.333333333 -168.666666667 395.333333333 -186.666666667 386 -194 c 1
 145 -194 l 1
 155 -139.333333333 150.666666667 -103 132 -85 c 0
 116 -68.3333333333 100.666666667 -68.6666666667 86 -86 c 0
 72.6666666667 -100.666666667 67.6666666667 -128.666666667 71 -170 c 0
 76.3333333333 -238.666666667 139.666666667 -276.333333333 261 -283 c 0
169 145 m 0
 169 121.666666667 174.833333333 101.666666667 186.5 85 c 128
 198.166666667 68.3333333333 212.333333333 60 229 60 c 256
 245.666666667 60 259.833333333 68.1666666667 271.5 84.5 c 128
 283.166666667 100.833333333 289 121 289 145 c 0
 289 165 283.333333333 181.833333333 272 195.5 c 128
 260.666666667 209.166666667 246.333333333 216 229 216 c 256
 212.333333333 216 198.166666667 209.166666667 186.5 195.5 c 128
 174.833333333 181.833333333 169 165 169 145 c 0
EndSplineSet
EndChar

StartChar: tml_AuLengthmark
Encoding: 306 3031 50
GlifName: tml_A_uL_engthmark
Width: 0
Flags: HW
LayerCount: 3
Back
SplineSet
199 145 m 1
 199 118.333333333 206 95.5 220 76.5 c 128
 234 57.5 251 48 271 48 c 256
 291 48 308.166666667 57.3333333333 322.5 76 c 128
 336.833333333 94.6666666667 344 117.666666667 344 145 c 0
 344 168.333333333 337 188.166666667 323 204.5 c 128
 309 220.833333333 291.666666667 229 271 229 c 256
 251 229 234 220.666666667 220 204 c 128
 206 187.333333333 199 167.666666667 199 145 c 1
 199 145 l 1
476 480 m 1
 896 480 l 1
 896 433 l 1
 764 433 l 1
 764 0 l 1
 703 0 l 1
 703 433 l 1
 523 433 l 1
 523 0 l 1
 464 0 l 1
 464 240 l 2
 464 296 446.166666667 344 410.5 384 c 128
 374.833333333 424 332.333333333 444 283 444 c 256
 233.666666667 444 191.5 423 156.5 381 c 128
 121.5 339 104 288.333333333 104 229 c 0
 104 198.333333333 110.166666667 169.333333333 122.5 142 c 128
 134.833333333 114.666666667 152.333333333 91.3333333333 175 72 c 1
 167 86 161 99.1666666667 157 111.5 c 128
 153 123.833333333 151 135 151 145 c 0
 151 182.333333333 162.833333333 213.5 186.5 238.5 c 128
 210.166666667 263.5 238.333333333 276 271 276 c 0
 303.666666667 276 332 263.166666667 356 237.5 c 128
 380 211.833333333 392 181 392 145 c 0
 392 102.333333333 378 65.5 350 34.5 c 128
 322 3.5 287.666666667 -12 247 -12 c 0
 194.333333333 -12 149.333333333 11.5 112 58.5 c 128
 74.6666666667 105.5 56 162.333333333 56 229 c 0
 56 301.666666667 78 363.666666667 122 415 c 128
 166 466.333333333 219.666666667 492 283 492 c 0
 325 492 363.333333333 483.333333333 398 466 c 128
 432.666666667 448.666666667 458.666666667 425.333333333 476 396 c 1
 476 480 l 1
 476 480 l 1
EndSplineSet
Colour: ff0000
EndChar

StartChar: tml_Zero
Encoding: 307 3046 51
GlifName: tml_Z_ero
Width: 0
Flags: HW
LayerCount: 3
Back
SplineSet
59 315 m 1
 59 397.666666667 79.5 469.833333333 120.5 531.5 c 128
 161.5 593.166666667 216.666666667 624 286 624 c 256
 355.333333333 624 410.5 593.166666667 451.5 531.5 c 128
 492.5 469.833333333 513 397.666666667 513 315 c 0
 513 230.333333333 492.833333333 156.666666667 452.5 94 c 128
 412.166666667 31.3333333333 356.666666667 0 286 0 c 256
 216 0 160.666666667 31.3333333333 120 94 c 128
 79.3333333333 156.666666667 59 230.333333333 59 315 c 1
 59 315 l 1
122 315 m 1
 122 247 135.833333333 188 163.5 138 c 128
 191.166666667 88 232 63 286 63 c 0
 339.333333333 63 380 88.1666666667 408 138.5 c 128
 436 188.833333333 450 247.666666667 450 315 c 0
 450 381 435.833333333 438.5 407.5 487.5 c 128
 379.166666667 536.5 338.666666667 561 286 561 c 256
 233.333333333 561 192.833333333 536.5 164.5 487.5 c 128
 136.166666667 438.5 122 381 122 315 c 1
 122 315 l 1
EndSplineSet
Colour: ff0000
EndChar

StartChar: tml_One
Encoding: 308 3047 52
GlifName: tml_O_ne
Width: 0
Flags: HW
LayerCount: 3
Back
SplineSet
240 264 m 1
 360 264 l 1
 360 433 l 1
 240 433 l 1
 240 264 l 1
 240 264 l 1
120 156 m 1
 120 123.333333333 132.833333333 95.1666666667 158.5 71.5 c 128
 184.166666667 47.8333333333 215.333333333 36 252 36 c 0
 281.333333333 36 306.666666667 45.5 328 64.5 c 128
 349.333333333 83.5 360 106 360 132 c 2
 360 216 l 1
 180 216 l 2
 163.333333333 216 149.166666667 210.333333333 137.5 199 c 128
 125.833333333 187.666666667 120 173.333333333 120 156 c 1
 120 156 l 1
180 480 m 1
 552 480 l 1
 552 433 l 1
 420 433 l 1
 420 264 l 1
 492 264 l 2
 529.333333333 264 560.666666667 251.333333333 586 226 c 128
 611.333333333 200.666666667 624 169.333333333 624 132 c 0
 624 92 612.333333333 58 589 30 c 128
 565.666666667 2 537.333333333 -12 504 -12 c 0
 494.666666667 -12 485.166666667 -11 475.5 -9 c 128
 465.833333333 -7 455.333333333 -4 444 0 c 1
 456 48 l 1
 463.333333333 44 471 41 479 39 c 128
 487 37 495.333333333 36 504 36 c 0
 520.666666667 36 534.833333333 45.5 546.5 64.5 c 128
 558.166666667 83.5 564 106 564 132 c 0
 564 155.333333333 557 175.166666667 543 191.5 c 128
 529 207.833333333 512 216 492 216 c 2
 420 216 l 1
 420 132 l 2
 420 92 403.5 58 370.5 30 c 128
 337.5 2 298 -12 252 -12 c 0
 199.333333333 -12 154.166666667 4.5 116.5 37.5 c 128
 78.8333333333 70.5 60 110 60 156 c 0
 60 185.333333333 71.8333333333 210.666666667 95.5 232 c 128
 119.166666667 253.333333333 147.333333333 264 180 264 c 1
 180 480 l 1
 180 480 l 1
EndSplineSet
Colour: ff0000
EndChar

StartChar: tml_Two
Encoding: 309 3048 53
GlifName: tml_T_wo
Width: 0
Flags: HW
LayerCount: 3
Back
SplineSet
108 336 m 1
 108 319.333333333 113.833333333 305.166666667 125.5 293.5 c 128
 137.166666667 281.833333333 151.333333333 276 168 276 c 256
 184.666666667 276 199 281.833333333 211 293.5 c 128
 223 305.166666667 229 319.333333333 229 336 c 0
 229 356 223 373 211 387 c 128
 199 401 184.666666667 408 168 408 c 256
 151.333333333 408 137.166666667 401 125.5 387 c 128
 113.833333333 373 108 356 108 336 c 1
 108 336 l 1
60 348 m 1
 60 388 80 422 120 450 c 128
 160 478 208 492 264 492 c 0
 330.666666667 492 387.333333333 473.166666667 434 435.5 c 128
 480.666666667 397.833333333 504 352.666666667 504 300 c 0
 504 250.666666667 484 208.333333333 444 173 c 128
 404 137.666666667 356 120 300 120 c 2
 168 120 l 2
 154 120 142.5 116.5 133.5 109.5 c 128
 124.5 102.5 120 94 120 84 c 256
 120 74 124.5 65.5 133.5 58.5 c 128
 142.5 51.5 154 48 168 48 c 2
 648 48 l 1
 648 0 l 1
 168 0 l 2
 138.666666667 0 113.333333333 8.16666666667 92 24.5 c 128
 70.6666666667 40.8333333333 60 60.6666666667 60 84 c 256
 60 107.333333333 70.6666666667 127.166666667 92 143.5 c 128
 113.333333333 159.833333333 138.666666667 168 168 168 c 2
 300 168 l 2
 340 168 374 180.833333333 402 206.5 c 128
 430 232.166666667 444 263.333333333 444 300 c 0
 444 340 426.5 374 391.5 402 c 128
 356.5 430 314 444 264 444 c 2
 192 444 l 1
 217.333333333 434.666666667 237.666666667 420.166666667 253 400.5 c 128
 268.333333333 380.833333333 276 359.333333333 276 336 c 0
 276 306.666666667 265.5 281.5 244.5 260.5 c 128
 223.5 239.5 198 229 168 229 c 0
 138.666666667 229 113.333333333 240.666666667 92 264 c 128
 70.6666666667 287.333333333 60 315.333333333 60 348 c 1
 60 348 l 1
EndSplineSet
Colour: ff0000
EndChar

StartChar: tml_Three
Encoding: 310 3049 54
GlifName: tml_T_hree
Width: 0
Flags: HW
LayerCount: 3
Back
SplineSet
60 0 m 1
 60 480 l 1
 492 480 l 1
 492 433 l 1
 324 433 l 1
 324 258 l 1
 335.333333333 269.333333333 348.5 278.166666667 363.5 284.5 c 128
 378.5 290.833333333 393.333333333 294 408 294 c 0
 450.666666667 294 487.333333333 280.666666667 518 254 c 128
 548.666666667 227.333333333 564 194.666666667 564 156 c 0
 564 134.666666667 559.833333333 114.5 551.5 95.5 c 128
 543.166666667 76.5 531.666666667 60.6666666667 517 48 c 1
 702 48 l 1
 702 0 l 1
 264 0 l 1
 264 48 l 1
 396 48 l 2
 425.333333333 48 450.666666667 58.5 472 79.5 c 128
 493.333333333 100.5 504 126 504 156 c 0
 504 179.333333333 494.666666667 199.166666667 476 215.5 c 128
 457.333333333 231.833333333 434.666666667 240 408 240 c 0
 394 240 379.833333333 235.833333333 365.5 227.5 c 128
 351.166666667 219.166666667 337.333333333 207.333333333 324 192 c 1
 324 96 l 1
 264 96 l 1
 264 433 l 1
 120 433 l 1
 120 0 l 1
 60 0 l 1
 60 0 l 1
EndSplineSet
Colour: ff0000
EndChar

StartChar: tml_Four
Encoding: 311 3050 55
GlifName: tml_F_our
Width: 0
Flags: HW
LayerCount: 3
Back
SplineSet
240 264 m 1
 360 264 l 1
 360 433 l 1
 240 433 l 1
 240 264 l 1
 240 264 l 1
120 156 m 1
 120 123.333333333 132.833333333 95.1666666667 158.5 71.5 c 128
 184.166666667 47.8333333333 215.333333333 36 252 36 c 0
 281.333333333 36 306.666666667 45.5 328 64.5 c 128
 349.333333333 83.5 360 106 360 132 c 2
 360 216 l 1
 180 216 l 2
 163.333333333 216 149.166666667 210.333333333 137.5 199 c 128
 125.833333333 187.666666667 120 173.333333333 120 156 c 1
 120 156 l 1
180 480 m 1
 564 480 l 1
 564 433 l 1
 420 433 l 1
 420 264 l 1
 528 264 l 1
 528 324 l 1
 588 324 l 1
 588 216 l 1
 420 216 l 1
 420 132 l 2
 420 92 403.5 58 370.5 30 c 128
 337.5 2 298 -12 252 -12 c 0
 199.333333333 -12 154.166666667 4.5 116.5 37.5 c 128
 78.8333333333 70.5 60 110 60 156 c 0
 60 185.333333333 71.8333333333 210.666666667 95.5 232 c 128
 119.166666667 253.333333333 147.333333333 264 180 264 c 1
 180 480 l 1
 180 480 l 1
EndSplineSet
Colour: ff0000
EndChar

StartChar: tml_Five
Encoding: 312 3051 56
GlifName: tml_F_ive
Width: 0
Flags: HW
LayerCount: 3
Back
SplineSet
433 -216 m 1
 523 -216 599.333333333 -183.333333333 662 -118 c 128
 724.666666667 -52.6666666667 756 26.6666666667 756 120 c 0
 756 157.333333333 744.833333333 188.666666667 722.5 214 c 128
 700.166666667 239.333333333 673.666666667 252 643 252 c 0
 631 252 618 247.833333333 604 239.5 c 128
 590 231.166666667 576.666666667 219.333333333 564 204 c 1
 564 0 l 1
 504 0 l 1
 504 433 l 1
 360 433 l 1
 360 0 l 1
 300 0 l 1
 300 480 l 1
 660 480 l 1
 660 433 l 1
 564 433 l 1
 564 264 l 1
 570.666666667 275.333333333 581.5 284.166666667 596.5 290.5 c 128
 611.5 296.833333333 628.666666667 300 648 300 c 0
 694 300 733.5 282.333333333 766.5 247 c 128
 799.5 211.666666667 816 169.333333333 816 120 c 0
 816 14 778.666666667 -76.5 704 -151.5 c 128
 629.333333333 -226.5 539 -264 433 -264 c 0
 331 -264 243.333333333 -217.666666667 170 -125 c 128
 96.6666666667 -32.3333333333 60 79.3333333333 60 210 c 0
 60 350.666666667 99.8333333333 471 179.5 571 c 128
 259.166666667 671 355.333333333 721 468 721 c 0
 561.333333333 721 640.833333333 690.5 706.5 629.5 c 128
 772.166666667 568.5 805 494.666666667 805 408 c 1
 744 408 l 1
 744 480.666666667 717 542.833333333 663 594.5 c 128
 609 646.166666667 544 672 468 672 c 0
 370.666666667 672 287.333333333 626.833333333 218 536.5 c 128
 148.666666667 446.166666667 114 337.333333333 114 210 c 0
 114 92 145 -8.5 207 -91.5 c 128
 269 -174.5 344.333333333 -216 433 -216 c 1
 433 -216 l 1
EndSplineSet
Colour: ff0000
EndChar

StartChar: tml_Six
Encoding: 313 3052 57
GlifName: tml_S_ix
Width: 0
Flags: HW
LayerCount: 3
Back
SplineSet
240 433 m 1
 240 264 l 1
 360 264 l 1
 360 433 l 1
 240 433 l 1
 240 433 l 1
120 156 m 1
 120 123.333333333 132.833333333 95.1666666667 158.5 71.5 c 128
 184.166666667 47.8333333333 215.333333333 36 252 36 c 0
 281.333333333 36 306.666666667 45.5 328 64.5 c 128
 349.333333333 83.5 360 106 360 132 c 2
 360 216 l 1
 180 216 l 2
 163.333333333 216 149.166666667 210.333333333 137.5 199 c 128
 125.833333333 187.666666667 120 173.333333333 120 156 c 1
 120 156 l 1
60 156 m 1
 60 185.333333333 71.8333333333 210.666666667 95.5 232 c 128
 119.166666667 253.333333333 147.333333333 264 180 264 c 1
 180 480 l 1
 588 480 l 1
 588 433 l 1
 420 433 l 1
 420 264 l 1
 750 264 l 1
 750 216 l 1
 685 216 l 1
 685 0 l 1
 624 0 l 1
 624 216 l 1
 552 216 l 1
 552 0 l 1
 492 0 l 1
 492 216 l 1
 420 216 l 1
 420 132 l 2
 420 92 403.5 58 370.5 30 c 128
 337.5 2 298 -12 252 -12 c 0
 199.333333333 -12 154.166666667 4.5 116.5 37.5 c 128
 78.8333333333 70.5 60 110 60 156 c 1
 60 156 l 1
EndSplineSet
Colour: ff0000
EndChar

StartChar: tml_Seven
Encoding: 314 3053 58
GlifName: tml_S_even
Width: 0
Flags: HW
LayerCount: 3
Back
SplineSet
216 132 m 1
 216 105.333333333 223 82.6666666667 237 64 c 128
 251 45.3333333333 268 36 288 36 c 256
 308 36 325 45.5 339 64.5 c 128
 353 83.5 360 106 360 132 c 0
 360 155.333333333 353 175.166666667 339 191.5 c 128
 325 207.833333333 308 216 288 216 c 256
 268 216 251 207.833333333 237 191.5 c 128
 223 175.166666667 216 155.333333333 216 132 c 1
 216 132 l 1
552 433 m 1
 312 433 l 2
 256 433 208 411.833333333 168 369.5 c 128
 128 327.166666667 108 276 108 216 c 0
 108 180.666666667 116.5 148 133.5 118 c 128
 150.5 88 174 64.6666666667 204 48 c 1
 192 62 183 76 177 90 c 128
 171 104 168 118 168 132 c 0
 168 169.333333333 179.833333333 200.666666667 203.5 226 c 128
 227.166666667 251.333333333 255.333333333 264 288 264 c 0
 325.333333333 264 356.666666667 251.333333333 382 226 c 128
 407.333333333 200.666666667 420 169.333333333 420 132 c 0
 420 92 404.833333333 58 374.5 30 c 128
 344.166666667 2 307.333333333 -12 264 -12 c 0
 208 -12 160 10.1666666667 120 54.5 c 128
 80 98.8333333333 60 152.666666667 60 216 c 0
 60 288.666666667 84.6666666667 350.833333333 134 402.5 c 128
 183.333333333 454.166666667 242.666666667 480 312 480 c 2
 690 480 l 1
 690 433 l 1
 612 433 l 1
 612 0 l 1
 552 0 l 1
 552 433 l 1
 552 433 l 1
EndSplineSet
Colour: ff0000
EndChar

StartChar: tml_Eight
Encoding: 315 3054 59
GlifName: tml_E_ight
Width: 0
Flags: HW
LayerCount: 3
Back
SplineSet
876 -60 m 1
 876 132 l 1
 756 132 l 1
 732 66.6666666667 688.833333333 14.3333333333 626.5 -25 c 128
 564.166666667 -64.3333333333 493.333333333 -84 414 -84 c 0
 359.333333333 -84 308 -75.8333333333 260 -59.5 c 128
 212 -43.1666666667 169.333333333 -19.3333333333 132 12 c 0
 108.666666667 31.3333333333 90.8333333333 50.5 78.5 69.5 c 128
 66.1666666667 88.5 60 105.333333333 60 120 c 0
 60 136.666666667 67 150.833333333 81 162.5 c 128
 95 174.166666667 112 180 132 180 c 2
 330 182 l 1
 308.666666667 190 291.333333333 205.333333333 278 228 c 128
 264.666666667 250.666666667 258 276.666666667 258 306 c 0
 258 357.333333333 282 401.166666667 330 437.5 c 128
 378 473.833333333 436 492 504 492 c 0
 580 492 645 468.666666667 699 422 c 128
 753 375.333333333 780 318.666666667 780 252 c 0
 780 238.666666667 779 226.166666667 777 214.5 c 128
 775 202.833333333 772.333333333 191.333333333 769 180 c 1
 876 180 l 1
 876 480 l 1
 937 480 l 1
 937 -60 l 1
 876 -60 l 1
 876 -60 l 1
312 306 m 1
 312 271.333333333 325.5 241.666666667 352.5 217 c 128
 379.5 192.333333333 412 180 450 180 c 0
 487.333333333 180 518.666666667 191.833333333 544 215.5 c 128
 569.333333333 239.166666667 582 267.333333333 582 300 c 0
 582 337.333333333 569.333333333 368.833333333 544 394.5 c 128
 518.666666667 420.166666667 487.333333333 433 450 433 c 0
 411.333333333 433 378.666666667 420.333333333 352 395 c 128
 325.333333333 369.666666667 312 340 312 306 c 1
 312 306 l 1
696 132 m 1
 145 132 l 2
 138.333333333 132 132.5 129.5 127.5 124.5 c 128
 122.5 119.5 120 114 120 108 c 0
 120 104 122 99 126 93 c 128
 130 87 136.333333333 80 145 72 c 0
 179.666666667 37.3333333333 219.833333333 10.6666666667 265.5 -8 c 128
 311.166666667 -26.6666666667 358.666666667 -36 408 -36 c 0
 476 -36 536.5 -20.5 589.5 10.5 c 128
 642.5 41.5 678 82 696 132 c 1
 696 132 l 1
576 180 m 1
 708 180 l 1
 712 191.333333333 715.166666667 202.833333333 717.5 214.5 c 128
 719.833333333 226.166666667 721 238.666666667 721 252 c 0
 721 302 704.5 346.333333333 671.5 385 c 128
 638.5 423.666666667 596.666666667 447.333333333 546 456 c 1
 574 436 596.166666667 412.333333333 612.5 385 c 128
 628.833333333 357.666666667 637 329.333333333 637 300 c 0
 637 275.333333333 631.666666667 252.333333333 621 231 c 128
 610.333333333 209.666666667 595.333333333 192.666666667 576 180 c 1
 576 180 l 1
EndSplineSet
Colour: ff0000
EndChar

StartChar: tml_Nine
Encoding: 316 3055 60
GlifName: tml_N_ine
Width: 0
Flags: HW
LayerCount: 3
Back
SplineSet
240 264 m 1
 360 264 l 1
 360 433 l 1
 240 433 l 1
 240 264 l 1
 240 264 l 1
120 156 m 1
 120 126.666666667 132.833333333 101.333333333 158.5 80 c 128
 184.166666667 58.6666666667 215.333333333 48 252 48 c 0
 281.333333333 48 306.666666667 56.3333333333 328 73 c 128
 349.333333333 89.6666666667 360 109.333333333 360 132 c 2
 360 216 l 1
 180 216 l 2
 163.333333333 216 149.166666667 210.333333333 137.5 199 c 128
 125.833333333 187.666666667 120 173.333333333 120 156 c 1
 120 156 l 1
540 120 m 1
 540 96.6666666667 544.5 76.8333333333 553.5 60.5 c 128
 562.5 44.1666666667 574 36 588 36 c 256
 602 36 613.666666667 44.1666666667 623 60.5 c 128
 632.333333333 76.8333333333 637 96.6666666667 637 120 c 0
 637 140.666666667 630.333333333 159.833333333 617 177.5 c 128
 603.666666667 195.166666667 586 208 564 216 c 1
 556 202 550 186.833333333 546 170.5 c 128
 542 154.166666667 540 137.333333333 540 120 c 1
 540 120 l 1
60 156 m 1
 60 185.333333333 71.8333333333 210.666666667 95.5 232 c 128
 119.166666667 253.333333333 147.333333333 264 180 264 c 1
 180 480 l 1
 534 480 l 1
 534 433 l 1
 420 433 l 1
 420 264 l 1
 540 264 l 1
 556 286 577.333333333 303.5 604 316.5 c 128
 630.666666667 329.5 659.333333333 336 690 336 c 0
 738 336 779 319.5 813 286.5 c 128
 847 253.5 864 214 864 168 c 0
 864 136.666666667 858.833333333 106.666666667 848.5 78 c 128
 838.166666667 49.3333333333 823.666666667 23.3333333333 805 0 c 1
 738 0 l 1
 759.333333333 25.3333333333 775.833333333 52.5 787.5 81.5 c 128
 799.166666667 110.5 805 139.333333333 805 168 c 0
 805 200.666666667 793.666666667 228.833333333 771 252.5 c 128
 748.333333333 276.166666667 721.333333333 288 690 288 c 0
 669.333333333 288 650.5 284.833333333 633.5 278.5 c 128
 616.5 272.166666667 603.333333333 263.333333333 594 252 c 1
 621.333333333 242 643.333333333 224.833333333 660 200.5 c 128
 676.666666667 176.166666667 685 149.333333333 685 120 c 0
 685 82.6666666667 675.5 51.3333333333 656.5 26 c 128
 637.5 0.666666666667 614.666666667 -12 588 -12 c 256
 561.333333333 -12 538.666666667 0.666666666667 520 26 c 128
 501.333333333 51.3333333333 492 82.6666666667 492 120 c 0
 492 137.333333333 494 154.166666667 498 170.5 c 128
 502 186.833333333 508.333333333 202 517 216 c 1
 420 216 l 1
 420 132 l 2
 420 92 403.5 58 370.5 30 c 128
 337.5 2 298 -12 252 -12 c 0
 199.333333333 -12 154.166666667 4.5 116.5 37.5 c 128
 78.8333333333 70.5 60 110 60 156 c 1
 60 156 l 1
EndSplineSet
Colour: ff0000
EndChar

StartChar: tml_Ten
Encoding: 317 3056 61
GlifName: tml_T_en
Width: 0
Flags: HW
LayerCount: 3
Back
SplineSet
304 48 m 1
 288 28.6666666667 270.666666667 13.8333333333 252 3.5 c 128
 233.333333333 -6.83333333333 214.333333333 -12 195 -12 c 0
 157.666666667 -12 126.333333333 0.666666666667 101 26 c 128
 75.6666666667 51.3333333333 63 82.6666666667 63 120 c 2
 63 360 l 1
 124 360 l 1
 124 120 l 2
 124 96.6666666667 131 76.8333333333 145 60.5 c 128
 159 44.1666666667 175.666666667 36 195 36 c 0
 215 36 232.166666667 44.1666666667 246.5 60.5 c 128
 260.833333333 76.8333333333 268 96.6666666667 268 120 c 2
 268 360 l 1
 328 360 l 1
 328 120 l 1
 337.333333333 94.6666666667 350.666666667 74.3333333333 368 59 c 128
 385.333333333 43.6666666667 404 36 424 36 c 0
 453.333333333 36 478.666666667 52.5 500 85.5 c 128
 521.333333333 118.5 532 158 532 204 c 0
 532 267.333333333 513.166666667 321.333333333 475.5 366 c 128
 437.833333333 410.666666667 392.666666667 433 340 433 c 2
 184 433 l 1
 184 480 l 1
 340 480 l 2
 409.333333333 480 468.666666667 453 518 399 c 128
 567.333333333 345 592 280 592 204 c 0
 592 144 575.5 93 542.5 51 c 128
 509.5 9 470 -12 424 -12 c 0
 396 -12 371.166666667 -6.5 349.5 4.5 c 128
 327.833333333 15.5 312.666666667 30 304 48 c 1
 304 48 l 1
EndSplineSet
Colour: ff0000
EndChar

StartChar: tml_Hundred
Encoding: 318 3057 62
GlifName: tml_H_undred
Width: 0
Flags: HW
LayerCount: 3
Back
SplineSet
326 433 m 1
 335.333333333 451 350.666666667 465.333333333 372 476 c 128
 393.333333333 486.666666667 418 492 446 492 c 2
 663 492 l 1
 663 438 l 1
 566 438 l 1
 566 0 l 1
 507 0 l 1
 507 438 l 1
 446 438 l 2
 426 438 407.166666667 430.833333333 389.5 416.5 c 128
 371.833333333 402.166666667 359 383.333333333 351 360 c 1
 351 0 l 1
 290 0 l 1
 290 360 l 2
 290 383.333333333 283 403.166666667 269 419.5 c 128
 255 435.833333333 238.333333333 444 219 444 c 0
 199 444 181.833333333 435.833333333 167.5 419.5 c 128
 153.166666667 403.166666667 146 383.333333333 146 360 c 2
 146 0 l 1
 87 0 l 1
 87 360 l 2
 87 397.333333333 99.6666666667 428.666666667 125 454 c 128
 150.333333333 479.333333333 181.666666667 492 219 492 c 0
 237 492 255.5 486.833333333 274.5 476.5 c 128
 293.5 466.166666667 310.666666667 451.666666667 326 433 c 1
 326 433 l 1
EndSplineSet
Colour: ff0000
EndChar

StartChar: tml_Thousand
Encoding: 319 3058 63
GlifName: tml_T_housand
Width: 0
Flags: HW
LayerCount: 3
Back
SplineSet
214 433 m 1
 214 264 l 1
 334 264 l 1
 334 433 l 1
 214 433 l 1
 214 433 l 1
94 156 m 1
 94 123.333333333 106.833333333 95.1666666667 132.5 71.5 c 128
 158.166666667 47.8333333333 189.333333333 36 226 36 c 0
 255.333333333 36 280.666666667 45.5 302 64.5 c 128
 323.333333333 83.5 334 106 334 132 c 2
 334 216 l 1
 153 216 l 2
 136.333333333 216 122.333333333 210.333333333 111 199 c 128
 99.6666666667 187.666666667 94 173.333333333 94 156 c 1
 94 156 l 1
33 156 m 1
 33 185.333333333 44.8333333333 210.666666667 68.5 232 c 128
 92.1666666667 253.333333333 120.333333333 264 153 264 c 1
 153 480 l 1
 562 480 l 1
 562 433 l 1
 394 433 l 1
 394 264 l 1
 634 264 l 1
 634 216 l 1
 502 216 l 1
 502 132 l 1
 512 143.333333333 524.333333333 152.166666667 539 158.5 c 128
 553.666666667 164.833333333 569.333333333 168 586 168 c 0
 623.333333333 168 654.666666667 152.833333333 680 122.5 c 128
 705.333333333 92.1666666667 718 55.3333333333 718 12 c 0
 718 -34 695.833333333 -73.5 651.5 -106.5 c 128
 607.166666667 -139.5 553.333333333 -156 490 -156 c 2
 153 -156 l 2
 126.333333333 -156 103.833333333 -167.833333333 85.5 -191.5 c 128
 67.1666666667 -215.166666667 58 -243.333333333 58 -276 c 1
 10 -276 l 1
 10 -230 24 -190.5 52 -157.5 c 128
 80 -124.5 113.666666667 -108 153 -108 c 2
 490 -108 l 2
 536 -108 575.5 -96.1666666667 608.5 -72.5 c 128
 641.5 -48.8333333333 658 -20.6666666667 658 12 c 0
 658 41.3333333333 651 66.6666666667 637 88 c 128
 623 109.333333333 606 120 586 120 c 0
 566.666666667 120 549.166666667 113.833333333 533.5 101.5 c 128
 517.833333333 89.1666666667 507.333333333 73.3333333333 502 54 c 1
 502 0 l 1
 441 0 l 1
 441 216 l 1
 394 216 l 1
 394 132 l 2
 394 92 377.5 58 344.5 30 c 128
 311.5 2 272 -12 226 -12 c 0
 173.333333333 -12 128 4.5 90 37.5 c 128
 52 70.5 33 110 33 156 c 1
 33 156 l 1
EndSplineSet
Colour: ff0000
EndChar

StartChar: tml_Day
Encoding: 320 3059 64
GlifName: tml_D_ay
Width: 0
Flags: HW
LayerCount: 3
Back
SplineSet
195 132 m 1
 195 105.333333333 203.333333333 82.6666666667 220 64 c 128
 236.666666667 45.3333333333 256.333333333 36 279 36 c 0
 305.666666667 36 328.5 45.5 347.5 64.5 c 128
 366.5 83.5 376 106 376 132 c 0
 376 158.666666667 366.5 181.5 347.5 200.5 c 128
 328.5 219.5 305.666666667 229 279 229 c 0
 255.666666667 229 235.833333333 219.5 219.5 200.5 c 128
 203.166666667 181.5 195 158.666666667 195 132 c 1
 195 132 l 1
52 229 m 1
 52 301.666666667 77.6666666667 363.666666667 129 415 c 128
 180.333333333 466.333333333 242.333333333 492 315 492 c 0
 391 492 456.166666667 466.166666667 510.5 414.5 c 128
 564.833333333 362.833333333 592 301 592 229 c 0
 592 197 587.833333333 165.666666667 579.5 135 c 128
 571.166666667 104.333333333 559.333333333 75.3333333333 544 48 c 1
 880 48 l 1
 880 0 l 1
 472 0 l 1
 472 36 l 1
 491.333333333 59.3333333333 506.166666667 87.3333333333 516.5 120 c 128
 526.833333333 152.666666667 532 189 532 229 c 0
 532 289 511 339.833333333 469 381.5 c 128
 427 423.166666667 375.666666667 444 315 444 c 0
 255 444 204.166666667 423 162.5 381 c 128
 120.833333333 339 100 288.333333333 100 229 c 0
 100 201.666666667 105.166666667 174.333333333 115.5 147 c 128
 125.833333333 119.666666667 140.333333333 94.6666666667 159 72 c 1
 155 83.3333333333 152 94 150 104 c 128
 148 114 147 123.333333333 147 132 c 0
 147 172 160 206 186 234 c 128
 212 262 243 276 279 276 c 0
 319 276 353.166666667 262 381.5 234 c 128
 409.833333333 206 424 172 424 132 c 0
 424 92 410 58 382 30 c 128
 354 2 319.666666667 -12 279 -12 c 0
 215.666666667 -12 162 11.5 118 58.5 c 128
 74 105.5 52 162.333333333 52 229 c 1
 52 229 l 1
EndSplineSet
Colour: ff0000
EndChar

StartChar: tml_Month
Encoding: 321 3060 65
GlifName: tml_M_onth
Width: 0
Flags: HW
LayerCount: 3
Back
SplineSet
438 360 m 1
 438 48 l 1
 606 48 l 2
 629.333333333 48 649.166666667 60.8333333333 665.5 86.5 c 128
 681.833333333 112.166666667 690 143.333333333 690 180 c 0
 690 252.666666667 672.5 314.833333333 637.5 366.5 c 128
 602.5 418.166666667 560 444 510 444 c 0
 490 444 473 435.833333333 459 419.5 c 128
 445 403.166666667 438 383.333333333 438 360 c 1
 438 360 l 1
498 492 m 1
 472.666666667 506.666666667 452.333333333 527 437 553 c 128
 421.666666667 579 414 607 414 637 c 0
 414 683 431.666666667 722.5 467 755.5 c 128
 502.333333333 788.5 544.666666667 805 594 805 c 0
 610 805 623.833333333 804.166666667 635.5 802.5 c 128
 647.166666667 800.833333333 657 798.666666667 665 796 c 1
 686.333333333 810 708.5 820.5 731.5 827.5 c 128
 754.5 834.5 776.333333333 838 797 838 c 0
 821.666666667 838 844.666666667 832.666666667 866 822 c 128
 887.333333333 811.333333333 904.333333333 796.666666667 917 778 c 1
 931.666666667 797.333333333 949.833333333 812.166666667 971.5 822.5 c 128
 993.166666667 832.833333333 1015 838 1037 838 c 1
 1037 790 l 1
 1023 790 1009 785.833333333 995 777.5 c 128
 981 769.166666667 969 757.333333333 959 742 c 1
 969.666666667 728 977.5 715.166666667 982.5 703.5 c 128
 987.5 691.833333333 990 681.333333333 990 672 c 0
 990 651.333333333 983.5 633.833333333 970.5 619.5 c 128
 957.5 605.166666667 941.333333333 598 922 598 c 256
 902.666666667 598 886.166666667 605.166666667 872.5 619.5 c 128
 858.833333333 633.833333333 852 651.333333333 852 672 c 0
 852 683.333333333 855 695.333333333 861 708 c 128
 867 720.666666667 875.666666667 732.666666667 887 744 c 1
 875 758 861.166666667 769.166666667 845.5 777.5 c 128
 829.833333333 785.833333333 813.666666667 790 797 790 c 0
 781 790 765.666666667 788 751 784 c 128
 736.333333333 780 723 774 711 766 c 1
 731.666666667 752 748 735.5 760 716.5 c 128
 772 697.5 778 678.666666667 778 660 c 0
 778 630.666666667 766 605.333333333 742 584 c 128
 718 562.666666667 688.666666667 552 654 552 c 0
 627.333333333 552 604.833333333 561.333333333 586.5 580 c 128
 568.166666667 598.666666667 559 621.333333333 559 648 c 0
 559 670 564.333333333 690.833333333 575 710.5 c 128
 585.666666667 730.166666667 600 745.333333333 618 756 c 1
 594 756 l 2
 558.666666667 756 528.5 744.333333333 503.5 721 c 128
 478.5 697.666666667 466 669.666666667 466 637 c 0
 466 611.666666667 477.333333333 585 500 557 c 128
 522.666666667 529 554 503.333333333 594 480 c 1
 641.333333333 463.333333333 679.166666667 427.333333333 707.5 372 c 128
 735.833333333 316.666666667 750 252.666666667 750 180 c 0
 750 130.666666667 736 88.3333333333 708 53 c 128
 680 17.6666666667 646 0 606 0 c 2
 90 0 l 1
 90 480 l 1
 150 480 l 1
 150 48 l 1
 378 48 l 1
 378 360 l 2
 378 397.333333333 389.833333333 428.666666667 413.5 454 c 128
 437.166666667 479.333333333 465.333333333 492 498 492 c 1
 498 492 l 1
606 648 m 1
 606 634 610.666666667 622.666666667 620 614 c 128
 629.333333333 605.333333333 640.666666667 601 654 601 c 0
 674 601 691.166666667 606.666666667 705.5 618 c 128
 719.833333333 629.333333333 727 643.333333333 727 660 c 0
 727 676 722 691.166666667 712 705.5 c 128
 702 719.833333333 688.666666667 730.666666667 672 738 c 1
 652 728 636 715.166666667 624 699.5 c 128
 612 683.833333333 606 666.666666667 606 648 c 1
 606 648 l 1
900 672 m 1
 900 665.333333333 902.166666667 659.666666667 906.5 655 c 128
 910.833333333 650.333333333 916 648 922 648 c 256
 928 648 932.833333333 650.5 936.5 655.5 c 128
 940.166666667 660.5 942 666 942 672 c 0
 942 678.666666667 940.333333333 685.166666667 937 691.5 c 128
 933.666666667 697.833333333 928.666666667 703.333333333 922 708 c 1
 915.333333333 703.333333333 910 697.833333333 906 691.5 c 128
 902 685.166666667 900 678.666666667 900 672 c 1
 900 672 l 1
EndSplineSet
Colour: ff0000
EndChar

StartChar: tml_Year
Encoding: 322 3061 66
GlifName: tml_Y_ear
Width: 0
Flags: HW
LayerCount: 3
Back
SplineSet
377 132 m 1
 377 105.333333333 384.833333333 82.6666666667 400.5 64 c 128
 416.166666667 45.3333333333 434.666666667 36 456 36 c 256
 477.333333333 36 495.833333333 45.5 511.5 64.5 c 128
 527.166666667 83.5 535 106 535 132 c 0
 535 158.666666667 527.166666667 181.5 511.5 200.5 c 128
 495.833333333 219.5 477.333333333 229 456 229 c 256
 434.666666667 229 416.166666667 219.5 400.5 200.5 c 128
 384.833333333 181.5 377 158.666666667 377 132 c 1
 377 132 l 1
907 48 m 1
 907 480 l 1
 1271 480 l 1
 1271 433 l 1
 1147 433 l 1
 1147 234 l 1
 1158.33333333 244 1170.33333333 251.5 1183 256.5 c 128
 1195.66666667 261.5 1208.33333333 264 1221 264 c 0
 1255 264 1283.66666667 247.666666667 1307 215 c 128
 1330.33333333 182.333333333 1342 142.666666667 1342 96 c 0
 1342 -16.6666666667 1279.66666667 -112.833333333 1155 -192.5 c 128
 1030.33333333 -272.166666667 879.333333333 -312 702 -312 c 0
 526 -312 375.5 -262.833333333 250.5 -164.5 c 128
 125.5 -66.1666666667 63 52.6666666667 63 192 c 0
 63 338 132.333333333 462.666666667 271 566 c 128
 409.666666667 669.333333333 577 721 773 721 c 0
 969 721 1136.16666667 685.666666667 1274.5 615 c 128
 1412.83333333 544.333333333 1482 459.333333333 1482 360 c 2
 1482 180 l 2
 1482 142.666666667 1490.5 111.333333333 1507.5 86 c 128
 1524.5 60.6666666667 1545 48 1569 48 c 0
 1598.33333333 48 1623.66666667 66.8333333333 1645 104.5 c 128
 1666.33333333 142.166666667 1677 187.333333333 1677 240 c 256
 1677 292.666666667 1667.66666667 338 1649 376 c 128
 1630.33333333 414 1607.33333333 433 1580 433 c 1
 1599 480 l 1
 1633.66666667 480 1663.33333333 456.666666667 1688 410 c 128
 1712.66666667 363.333333333 1725 306.666666667 1725 240 c 256
 1725 173.333333333 1709.83333333 116.666666667 1679.5 70 c 128
 1649.16666667 23.3333333333 1612.33333333 0 1569 0 c 0
 1529 0 1495 17.5 1467 52.5 c 128
 1439 87.5 1425 130 1425 180 c 2
 1425 360 l 2
 1425 446.666666667 1361.16666667 520.333333333 1233.5 581 c 128
 1105.83333333 641.666666667 951.666666667 672 771 672 c 256
 590.333333333 672 436 625.333333333 308 532 c 128
 180 438.666666667 116 325.333333333 116 192 c 0
 116 66.6666666667 173.166666667 -40.6666666667 287.5 -130 c 128
 401.833333333 -219.333333333 539.333333333 -264 700 -264 c 0
 861.333333333 -264 999 -228.833333333 1113 -158.5 c 128
 1227 -88.1666666667 1284 -3.33333333333 1284 96 c 0
 1284 127.333333333 1277.5 154.166666667 1264.5 176.5 c 128
 1251.5 198.833333333 1236 210 1218 210 c 0
 1198.66666667 210 1182 203 1168 189 c 128
 1154 175 1147 158 1147 138 c 2
 1147 0 l 1
 1090 0 l 1
 1090 433 l 1
 967 433 l 1
 967 0 l 1
 652 0 l 1
 652 36 l 1
 668.666666667 58 681.666666667 85.6666666667 691 119 c 128
 700.333333333 152.333333333 705 189 705 229 c 0
 705 289 684.666666667 339.833333333 644 381.5 c 128
 603.333333333 423.166666667 554.333333333 444 497 444 c 0
 440.333333333 444 391.666666667 423 351 381 c 128
 310.333333333 339 290 288.333333333 290 229 c 0
 290 199.666666667 294.166666667 171.5 302.5 144.5 c 128
 310.833333333 117.5 323.333333333 93.3333333333 340 72 c 1
 336.666666667 83.3333333333 334 94 332 104 c 128
 330 114 329 123.333333333 329 132 c 0
 329 172 340.666666667 206 364 234 c 128
 387.333333333 262 416 276 450 276 c 0
 487.333333333 276 518.833333333 262 544.5 234 c 128
 570.166666667 206 583 172 583 132 c 0
 583 92 570.166666667 58 544.5 30 c 128
 518.833333333 2 487.333333333 -12 450 -12 c 0
 383.333333333 -12 330 9.83333333333 290 53.5 c 128
 250 97.1666666667 230 155.666666667 230 229 c 256
 230 301.666666667 256.166666667 363.666666667 308.5 415 c 128
 360.833333333 466.333333333 423.666666667 492 497 492 c 256
 570.333333333 492 633.166666667 466.166666667 685.5 414.5 c 128
 737.833333333 362.833333333 764 301 764 229 c 0
 764 197 760.333333333 165.666666667 753 135 c 128
 745.666666667 104.333333333 735.333333333 75.3333333333 722 48 c 1
 907 48 l 1
 907 48 l 1
EndSplineSet
Colour: ff0000
EndChar

StartChar: tml_Debit
Encoding: 323 3062 67
GlifName: tml_D_ebit
Width: 0
Flags: HW
LayerCount: 3
Back
SplineSet
83 132 m 1
 83 480 l 1
 143 480 l 1
 143 132 l 2
 143 105.333333333 151.166666667 82.6666666667 167.5 64 c 128
 183.833333333 45.3333333333 203.666666667 36 227 36 c 0
 256.333333333 36 281.666666667 46.6666666667 303 68 c 128
 324.333333333 89.3333333333 335 115 335 145 c 2
 335 480 l 1
 395 480 l 1
 395 -60 l 1
 623 -60 l 1
 623 480 l 1
 683 480 l 1
 683 -108 l 1
 395 -108 l 1
 395 -180 l 2
 395 -212.666666667 383.833333333 -240.833333333 361.5 -264.5 c 128
 339.166666667 -288.166666667 312.333333333 -300 281 -300 c 2
 197 -300 l 2
 164.333333333 -300 136.166666667 -288.166666667 112.5 -264.5 c 128
 88.8333333333 -240.833333333 77 -212.666666667 77 -180 c 0
 77 -147.333333333 88.6666666667 -119.166666667 112 -95.5 c 128
 135.333333333 -71.8333333333 163.666666667 -60 197 -60 c 2
 335 -60 l 1
 335 36 l 1
 325.666666667 21.3333333333 311.5 9.66666666667 292.5 1 c 128
 273.5 -7.66666666667 251.666666667 -12 227 -12 c 0
 187 -12 153 2 125 30 c 128
 97 58 83 92 83 132 c 1
 83 132 l 1
137 -180 m 1
 137 -200 142.833333333 -217 154.5 -231 c 128
 166.166666667 -245 180.333333333 -252 197 -252 c 2
 281 -252 l 2
 295.666666667 -252 308.333333333 -245 319 -231 c 128
 329.666666667 -217 335 -200 335 -180 c 2
 335 -108 l 1
 197 -108 l 2
 180.333333333 -108 166.166666667 -115 154.5 -129 c 128
 142.833333333 -143 137 -160 137 -180 c 1
 137 -180 l 1
EndSplineSet
Colour: ff0000
EndChar

StartChar: tml_Credit
Encoding: 324 3063 68
GlifName: tml_C_redit
Width: 0
Flags: HW
LayerCount: 3
Back
SplineSet
209 132 m 1
 209 105.333333333 216 82.6666666667 230 64 c 128
 244 45.3333333333 261 36 281 36 c 256
 301 36 318 45.5 332 64.5 c 128
 346 83.5 353 106 353 132 c 0
 353 155.333333333 346 175.166666667 332 191.5 c 128
 318 207.833333333 301 216 281 216 c 0
 261 216 244 207.833333333 230 191.5 c 128
 216 175.166666667 209 155.333333333 209 132 c 1
 209 132 l 1
53 216 m 1
 53 288.666666667 77.5 350.833333333 126.5 402.5 c 128
 175.5 454.166666667 235 480 305 480 c 2
 725 480 l 1
 725 433 l 1
 605 433 l 1
 605 142 l 1
 617 156 631 169 647 181 c 128
 663 193 680.666666667 203.666666667 700 213 c 1
 710.666666667 255.666666667 733.5 290.666666667 768.5 318 c 128
 803.5 345.333333333 843 359 887 359 c 0
 942.333333333 359 989.666666667 340.166666667 1029 302.5 c 128
 1068.33333333 264.833333333 1088 219.666666667 1088 167 c 0
 1088 143 1085.16666667 119.666666667 1079.5 97 c 128
 1073.83333333 74.3333333333 1065.33333333 53.6666666667 1054 35 c 1
 1298 35 l 1
 1298 0 l 1
 1000 0 l 1
 1000 26 l 1
 1014 42.6666666667 1024.66666667 63.1666666667 1032 87.5 c 128
 1039.33333333 111.833333333 1043 138.333333333 1043 167 c 0
 1043 209.666666667 1027.83333333 246.5 997.5 277.5 c 128
 967.166666667 308.5 930.333333333 324 887 324 c 0
 855.666666667 324 827.166666667 315.166666667 801.5 297.5 c 128
 775.833333333 279.833333333 756.333333333 256.333333333 743 227 c 1
 756.333333333 230.333333333 769.166666667 232.666666667 781.5 234 c 128
 793.833333333 235.333333333 805.666666667 236 817 236 c 0
 858.333333333 236 893.666666667 223.5 923 198.5 c 128
 952.333333333 173.5 967 143.333333333 967 108 c 0
 967 76 954.833333333 48.5 930.5 25.5 c 128
 906.166666667 2.5 876.666666667 -9 842 -9 c 0
 800.666666667 -9 765.666666667 8.33333333333 737 43 c 128
 708.333333333 77.6666666667 694 119 694 167 c 1
 673.333333333 155 655.166666667 140.833333333 639.5 124.5 c 128
 623.833333333 108.166666667 612.333333333 89.6666666667 605 69 c 1
 605 0 l 1
 545 0 l 1
 545 433 l 1
 305 433 l 2
 249 433 201 411.833333333 161 369.5 c 128
 121 327.166666667 101 276 101 216 c 0
 101 180.666666667 109.5 148 126.5 118 c 128
 143.5 88 167 64.6666666667 197 48 c 1
 185 62 176 76 170 90 c 128
 164 104 161 118 161 132 c 0
 161 169.333333333 172.666666667 200.666666667 196 226 c 128
 219.333333333 251.333333333 247.666666667 264 281 264 c 0
 318.333333333 264 349.666666667 251.333333333 375 226 c 128
 400.333333333 200.666666667 413 169.333333333 413 132 c 0
 413 92 397.666666667 58 367 30 c 128
 336.333333333 2 299.666666667 -12 257 -12 c 0
 201 -12 153 10.1666666667 113 54.5 c 128
 73 98.8333333333 53 152.666666667 53 216 c 1
 53 216 l 1
731 183 m 1
 731 141.666666667 741.833333333 106.166666667 763.5 76.5 c 128
 785.166666667 46.8333333333 811.333333333 32 842 32 c 0
 863.333333333 32 881.333333333 39.5 896 54.5 c 128
 910.666666667 69.5 918 87.3333333333 918 108 c 0
 918 132.666666667 908.166666667 153.666666667 888.5 171 c 128
 868.833333333 188.333333333 845 197 817 197 c 0
 803 197 788.666666667 195.666666667 774 193 c 128
 759.333333333 190.333333333 745 187 731 183 c 1
 731 183 l 1
EndSplineSet
Colour: ff0000
EndChar

StartChar: tml_Above
Encoding: 325 3064 69
GlifName: tml_A_bove
Width: 0
Flags: HW
LayerCount: 3
Back
SplineSet
60 300 m 1
 60 398.666666667 95.1666666667 483.333333333 165.5 554 c 128
 235.833333333 624.666666667 320.666666667 660 420 660 c 0
 493.333333333 660 561.5 635.833333333 624.5 587.5 c 128
 687.5 539.166666667 733.666666667 475.333333333 763 396 c 1
 774.333333333 400 786.166666667 403 798.5 405 c 128
 810.833333333 407 825 408 841 408 c 0
 890.333333333 408 932.666666667 389.166666667 968 351.5 c 128
 1003.33333333 313.833333333 1021 268.666666667 1021 216 c 0
 1021 178 1015.66666667 144.5 1005 115.5 c 128
 994.333333333 86.5 979.333333333 64 960 48 c 1
 1188 48 l 1
 1158.66666667 62 1135.5 83 1118.5 111 c 128
 1101.5 139 1093 170 1093 204 c 0
 1093 241.333333333 1107 272.666666667 1135 298 c 128
 1163 323.333333333 1196.66666667 336 1236 336 c 256
 1276 336 1310.16666667 323.333333333 1338.5 298 c 128
 1366.83333333 272.666666667 1381 241.333333333 1381 204 c 2
 1381 48 l 1
 1549 48 l 1
 1549 0 l 1
 1381 0 l 1
 1381 -288 l 1
 1320 -288 l 1
 1320 0 l 1
 853 0 l 1
 853 36 l 1
 885.666666667 48 911.666666667 70.3333333333 931 103 c 128
 950.333333333 135.666666667 960 173.333333333 960 216 c 0
 960 256 947.333333333 290 922 318 c 128
 896.666666667 346 865.333333333 360 828 360 c 0
 814.666666667 360 803.666666667 359.333333333 795 358 c 128
 786.333333333 356.666666667 779.333333333 355.333333333 774 354 c 1
 775.333333333 348 776.666666667 340.666666667 778 332 c 128
 779.333333333 323.333333333 780 312.666666667 780 300 c 0
 780 216.666666667 764.833333333 145.833333333 734.5 87.5 c 128
 704.166666667 29.1666666667 667.333333333 0 624 0 c 0
 600.666666667 0 580.833333333 11.8333333333 564.5 35.5 c 128
 548.166666667 59.1666666667 540 87.3333333333 540 120 c 0
 540 180 554.833333333 233.666666667 584.5 281 c 128
 614.166666667 328.333333333 653.333333333 360.666666667 702 378 c 1
 676.666666667 448 638.166666667 504.5 586.5 547.5 c 128
 534.833333333 590.5 479.333333333 612 420 612 c 0
 335.333333333 612 263.166666667 581.666666667 203.5 521 c 128
 143.833333333 460.333333333 114 386.666666667 114 300 c 0
 114 272 118.666666667 242.666666667 128 212 c 128
 137.333333333 181.333333333 150.666666667 150.666666667 168 120 c 1
 164 161.333333333 175.166666667 197.666666667 201.5 229 c 128
 227.833333333 260.333333333 260.666666667 276 300 276 c 0
 340 276 374 262 402 234 c 128
 430 206 444 172 444 132 c 0
 444 92 430 58 402 30 c 128
 374 2 340 -12 300 -12 c 0
 233.333333333 -12 176.666666667 18.5 130 79.5 c 128
 83.3333333333 140.5 60 214 60 300 c 1
 60 300 l 1
216 132 m 1
 216 105.333333333 224.333333333 82.6666666667 241 64 c 128
 257.666666667 45.3333333333 277.333333333 36 300 36 c 0
 323.333333333 36 343.166666667 45.5 359.5 64.5 c 128
 375.833333333 83.5 384 106 384 132 c 0
 384 158.666666667 375.166666667 181.5 357.5 200.5 c 128
 339.833333333 219.5 318.666666667 229 294 229 c 0
 272.666666667 229 254.333333333 219.5 239 200.5 c 128
 223.666666667 181.5 216 158.666666667 216 132 c 1
 216 132 l 1
601 120 m 1
 601 100 603.166666667 83 607.5 69 c 128
 611.833333333 55 617.333333333 48 624 48 c 0
 648.666666667 48 669.833333333 72.5 687.5 121.5 c 128
 705.166666667 170.5 714 230 714 300 c 2
 714 336 l 1
 679.333333333 322.666666667 651.833333333 296.333333333 631.5 257 c 128
 611.166666667 217.666666667 601 172 601 120 c 1
 601 120 l 1
1152 204 m 1
 1152 161.333333333 1168.5 124.666666667 1201.5 94 c 128
 1234.5 63.3333333333 1274 48 1320 48 c 1
 1320 204 l 2
 1320 227.333333333 1311.83333333 247.166666667 1295.5 263.5 c 128
 1279.16666667 279.833333333 1259.33333333 288 1236 288 c 256
 1212.66666667 288 1192.83333333 279.833333333 1176.5 263.5 c 128
 1160.16666667 247.166666667 1152 227.333333333 1152 204 c 1
 1152 204 l 1
EndSplineSet
Colour: ff0000
EndChar

StartChar: tml_Rupee
Encoding: 326 3065 70
GlifName: tml_R_upee
Width: 0
Flags: HW
LayerCount: 3
Back
SplineSet
446 -216 m 1
 536 -216 612.666666667 -183.333333333 676 -118 c 128
 739.333333333 -52.6666666667 771 26.6666666667 771 120 c 0
 771 157.333333333 759.666666667 188.666666667 737 214 c 128
 714.333333333 239.333333333 687.333333333 252 656 252 c 0
 644 252 631.333333333 247.833333333 618 239.5 c 128
 604.666666667 231.166666667 591.666666667 219.333333333 579 204 c 1
 579 0 l 1
 519 0 l 1
 519 433 l 1
 375 433 l 1
 375 0 l 1
 314 0 l 1
 314 480 l 1
 675 480 l 1
 675 433 l 1
 579 433 l 1
 579 264 l 1
 585.666666667 275.333333333 596.5 284.166666667 611.5 290.5 c 128
 626.5 296.833333333 643.666666667 300 663 300 c 0
 709 300 748.5 282.333333333 781.5 247 c 128
 814.5 211.666666667 831 169.333333333 831 120 c 0
 831 14 793.5 -76.5 718.5 -151.5 c 128
 643.5 -226.5 552.666666667 -264 446 -264 c 0
 344 -264 256.5 -217.666666667 183.5 -125 c 128
 110.5 -32.3333333333 74 79.3333333333 74 210 c 0
 74 350.666666667 113.833333333 471 193.5 571 c 128
 273.166666667 671 369.333333333 721 482 721 c 0
 556 721 624 698.833333333 686 654.5 c 128
 748 610.166666667 792 552 818 480 c 1
 829.333333333 508.666666667 848.333333333 531.833333333 875 549.5 c 128
 901.666666667 567.166666667 931 576 963 576 c 0
 1003 576 1036.83333333 564.333333333 1064.5 541 c 128
 1092.16666667 517.666666667 1106 489.333333333 1106 456 c 1
 1203 456 l 1
 1203 408 l 1
 1059 408 l 1
 1059 440.666666667 1049.5 468.833333333 1030.5 492.5 c 128
 1011.5 516.166666667 989 528 963 528 c 0
 930.333333333 528 902.166666667 514 878.5 486 c 128
 854.833333333 458 843 424 843 384 c 1
 782 384 l 1
 782 463.333333333 752.833333333 531.166666667 694.5 587.5 c 128
 636.166666667 643.833333333 565.333333333 672 482 672 c 0
 384.666666667 672 301.5 626.833333333 232.5 536.5 c 128
 163.5 446.166666667 129 337.333333333 129 210 c 0
 129 92 159.833333333 -8.5 221.5 -91.5 c 128
 283.166666667 -174.5 358 -216 446 -216 c 1
 446 -216 l 1
EndSplineSet
Colour: ff0000
EndChar

StartChar: tml_Number
Encoding: 327 3066 71
GlifName: tml_N_umber
Width: 0
Flags: HW
LayerCount: 3
Back
SplineSet
672 336 m 1
 672 319.333333333 677.833333333 305.166666667 689.5 293.5 c 128
 701.166666667 281.833333333 715.333333333 276 732 276 c 0
 746.666666667 276 759.333333333 281.833333333 770 293.5 c 128
 780.666666667 305.166666667 786 319.333333333 786 336 c 0
 786 359.333333333 785 379.333333333 783 396 c 128
 781 412.666666667 778 426.666666667 774 438 c 1
 743.333333333 430 718.666666667 416.666666667 700 398 c 128
 681.333333333 379.333333333 672 358.666666667 672 336 c 1
 672 336 l 1
90 0 m 1
 90 480 l 1
 378 480 l 1
 368 489.333333333 360.5 502.333333333 355.5 519 c 128
 350.5 535.666666667 348 554.666666667 348 576 c 0
 348 614.666666667 367.5 647.333333333 406.5 674 c 128
 445.5 700.666666667 492 714 546 714 c 0
 606 714 660.666666667 693.333333333 710 652 c 128
 759.333333333 610.666666667 793 557 811 491 c 1
 828 492 l 1
 893.333333333 492 948.666666667 473.166666667 994 435.5 c 128
 1039.33333333 397.833333333 1062 352.666666667 1062 300 c 0
 1062 252 1047.16666667 205.666666667 1017.5 161 c 128
 987.833333333 116.333333333 947 78.6666666667 895 48 c 1
 1158 48 l 1
 1158 0 l 1
 696 0 l 1
 790 34.6666666667 865.666666667 79.3333333333 923 134 c 128
 980.333333333 188.666666667 1009 244 1009 300 c 0
 1009 340 991.166666667 374 955.5 402 c 128
 919.833333333 430 877.333333333 444 828 444 c 1
 832.666666667 433.333333333 836.333333333 419.166666667 839 401.5 c 128
 841.666666667 383.833333333 843 362 843 336 c 0
 843 306.666666667 832.166666667 281.5 810.5 260.5 c 128
 788.833333333 239.5 762.666666667 229 732 229 c 0
 700.666666667 229 673.833333333 239.5 651.5 260.5 c 128
 629.166666667 281.5 618 306.666666667 618 336 c 0
 618 372 631 403.833333333 657 431.5 c 128
 683 459.166666667 716 476.333333333 756 483 c 1
 742 536.333333333 715.333333333 580.166666667 676 614.5 c 128
 636.666666667 648.833333333 593.333333333 666 546 666 c 0
 506 666 472 657.166666667 444 639.5 c 128
 416 621.833333333 402 600.666666667 402 576 c 0
 402 555.333333333 405.166666667 536.5 411.5 519.5 c 128
 417.833333333 502.5 426.666666667 489.333333333 438 480 c 1
 522 480 l 1
 522 433 l 1
 354 433 l 1
 354 258 l 1
 364 269.333333333 376.333333333 278.166666667 391 284.5 c 128
 405.666666667 290.833333333 421.333333333 294 438 294 c 0
 480.666666667 294 517.333333333 280.666666667 548 254 c 128
 578.666666667 227.333333333 594 194.666666667 594 156 c 0
 594 113.333333333 577.666666667 76.6666666667 545 46 c 128
 512.333333333 15.3333333333 472.666666667 0 426 0 c 2
 294 0 l 1
 294 48 l 1
 426 48 l 2
 455.333333333 48 480.666666667 58.5 502 79.5 c 128
 523.333333333 100.5 534 126 534 156 c 0
 534 179.333333333 524.666666667 199.166666667 506 215.5 c 128
 487.333333333 231.833333333 464.666666667 240 438 240 c 0
 424 240 409.666666667 235.833333333 395 227.5 c 128
 380.333333333 219.166666667 366.666666667 207.333333333 354 192 c 1
 354 96 l 1
 294 96 l 1
 294 433 l 1
 150 433 l 1
 150 0 l 1
 90 0 l 1
 90 0 l 1
EndSplineSet
Colour: ff0000
EndChar

StartChar: tml_TtI
Encoding: 328 -1 72
GlifName: tml_T_tI_
Width: 991
VWidth: 0
Flags: HW
LayerCount: 3
Back
SplineSet
90 560 m 5
 177 560 l 5
 172 0 l 5
 90 0 l 5
 90 560 l 5
110 56 m 5
 951 56 l 5
 951 0 l 5
 110 0 l 5
 110 56 l 5
571.955078125 571.30859375 m 4
 676.766899368 571.30859375 750 500.99311364 750 380 c 6
 750 -194 l 5
 668 -194 l 5
 667 379 l 5
 668.162083225 444.836624509 635.262146013 506.494140625 557.181640625 506.494140625 c 4
 488.661629365 506.494140625 430.384765625 438.537963249 430.384765625 326.685546875 c 4
 430.384765625 198.144782846 526.893122731 60.8254195319 645 50 c 5
 637 14 l 5
 633.72692721 13.8559516786 630.448347555 13.6564474875 627.174804688 13.7841796875 c 4
 474.874799009 19.1770042188 364.876362765 185.503549275 367.9609375 331.596679688 c 4
 371.192158378 463.545327039 445.431280924 571.30859375 571.955078125 571.30859375 c 4
EndSplineSet
Fore
SplineSet
394 53 m 1
 532.815429688 53.99609375 783.483398438 51.47265625 942 63 c 1
 948.4296875 50.6904296875 955.404296875 21 956 0 c 1
 915.286132812 0.2666015625 694.196289062 -0.041015625 651 0 c 1
 85 0 l 1
 87.556640625 25.4814453125 91 103.978515625 91 147 c 2
 91 552 l 1
 108.291981091 555.639648438 159.780905983 560.139648438 184 560 c 1
 184 53 l 1
 394 53 l 1
578.955078125 560.30859375 m 0
 681.412109375 560.30859375 750 500.360351562 750 380 c 2
 750 -194 l 1
 673 -194 l 1
 672 380 l 1
 671.21484375 448.934570312 646.504882812 502.494140625 559.181640625 502.494140625 c 0
 487.418945312 502.494140625 423.384765625 444.861328125 423.384765625 320.685546875 c 0
 423.384765625 193.538085938 519.188476562 53.7080078125 645 53 c 1
 640 24 l 1
 636.7265625 23.85546875 633.44921875 23.8828125 630.174804688 23.7841796875 c 0
 466.700195312 18.87109375 366.860351562 178.038085938 368.9609375 325.596679688 c 0
 370.803710938 457.572265625 450.5703125 560.30859375 578.955078125 560.30859375 c 0
EndSplineSet
LCarets2: 1 0
Ligature2: "'abvs' Above Base Substitutions lookup 1 subtable" tml_Tta tml_MatraI
Colour: ff0000
EndChar

StartChar: tml_KU
Encoding: 329 -1 73
GlifName: tml_K_U_
Width: 1190
VWidth: 0
Flags: HW
LayerCount: 3
Back
SplineSet
1008 85 m 1
 1007.35204506 193.4051277 952.283973215 286.443693792 852 288 c 1
 799 290 l 0
 771 286 l 1
 556 289 l 0
 460.796954315 289 399 249.2109375 399 169 c 0
 399 88.9052734375 472.675757883 41.5568709969 580 42 c 0
 698.527081404 42.4893841912 746.623383621 114.425537507 748 226 c 0
 749.787109375 295 l 1
 746.934570312 330 l 1
 748.309000115 383.212511914 748.999999955 469.804469274 747 505 c 1
 576 505 l 0
 576 294 l 0
 509 291 l 0
 509 562 l 1
 595.81744104 559.305664062 843.828214838 559.356445312 1007 561 c 1
 1009.51416489 536.353124322 1008.66938302 523.052151919 1004 505 c 0
 834 505 l 1
 834 427.631157636 834 324.876154557 834 233 c 1
 831.115735599 80.6787564767 746.080536913 -19 572 -19 c 0
 402.571254284 -19 336.040498534 75.3977858138 336.533203125 170 c 0
 337.025390625 264.502929688 411.448003697 341.844183394 530 345 c 0
 608.287346442 347.083984375 706.121828682 346.865234375 870 345 c 1
 1006.74898785 342.874433039 1111.98714308 259.500513991 1113 93 c 1
 1113.40157884 -144.75932344 956.611860852 -378 634 -378 c 0
 248.430328911 -378 80.8490159926 -111.51168379 80 148 c 0
 79.2773785341 369.277133306 193.650674625 519.082384017 285 599 c 1
 326 559 l 1
 217.135251017 461.409587981 148 321.290652697 148 153 c 0
 148 -83.6930530025 316.459341472 -298.4949117 628 -301 c 0
 861.734521736 -302.903200388 1007.18675385 -143.577424578 1008 85 c 1
EndSplineSet
Fore
SplineSet
872 282 m 1
 983.744246033 280.489692991 1027.33496094 190.201171875 1028 85 c 5
 1027.17382812 -132.326171875 885.42578125 -283.760742188 648 -282 c 4
 324.479492188 -279.600585938 154 -83.8388671875 154 132 c 4
 154 311.068359375 237.1171875 459.16015625 368 563 c 1
 323 599 l 1
 218.282226562 516.0703125 100.171875 360.618164062 101 131 c 0
 101.900390625 -102.36328125 274.9921875 -342 654 -342 c 4
 971.223632812 -342 1123.39487189 -131.538667647 1123 83 c 5
 1122.0462264 242.893350738 1022.94696355 322.958780935 897 325 c 1
 722.834127476 326.852539062 629.750474694 327.077148438 547 325 c 0
 434.482524048 322.175659714 362.055631828 266.704289817 360.533203125 155 c 0
 359.324931793 66.3461991082 429.288024963 -23 590 -23 c 0
 756.771812081 -23 838.23683067 84.067357513 841 223 c 1
 841 318.970595665 841 432.182821738 841 513 c 1
 983 513 l 0
 983 560 l 1
 820.622808339 558.356445312 602.394488155 558.305664062 516 561 c 1
 518 282 l 0
 565 282 l 0
 563 513 l 0
 756 513 l 1
 755.934570312 310 l 1
 753.787109375 282 l 1
 753 223 l 0
 751.591209808 101.335456888 693.61016693 33.3570776437 576 33 c 0
 466.059260767 32.6662075981 404 88.0981695546 404 162 c 0
 404 233.193636134 452.99527107 282 531 282 c 0
 770 282 l 1
 796 282 l 0
 872 282 l 1
EndSplineSet
LCarets2: 1 0
Ligature2: "'psts' Post Base Substitutions lookup 3 subtable" tml_Ka tml_MatraU
Colour: ff0000
EndChar

StartChar: tml_CU
Encoding: 330 -1 74
GlifName: tml_C_U_
Width: 901
VWidth: 0
Flags: HW
AnchorPoint: "Anchor-0" 487 751 basechar 0
LayerCount: 3
Back
SplineSet
214 433 m 1
 214 264 l 1
 334 264 l 1
 334 433 l 1
 214 433 l 1
 214 433 l 1
94 156 m 1
 94 123.333333333 106.833333333 95.1666666667 132.5 71.5 c 128
 158.166666667 47.8333333333 189.333333333 36 226 36 c 0
 255.333333333 36 280.666666667 45.5 302 64.5 c 128
 323.333333333 83.5 334 106 334 132 c 2
 334 216 l 1
 153 216 l 2
 136.333333333 216 122.333333333 210.333333333 111 199 c 128
 99.6666666667 187.666666667 94 173.333333333 94 156 c 1
 94 156 l 1
33 156 m 1
 33 185.333333333 44.8333333333 210.666666667 68.5 232 c 128
 92.1666666667 253.333333333 120.333333333 264 153 264 c 1
 153 480 l 1
 562 480 l 1
 562 433 l 1
 394 433 l 1
 394 264 l 1
 634 264 l 1
 634 216 l 1
 562 216 l 1
 562 0 l 1
 502 0 l 1
 502 216 l 1
 394 216 l 1
 394 132 l 2
 394 92 377.5 58 344.5 30 c 128
 311.5 2 272 -12 226 -12 c 0
 173.333333333 -12 128 4.5 90 37.5 c 128
 52 70.5 33 110 33 156 c 1
 33 156 l 1
EndSplineSet
Fore
SplineSet
655 0 m 9
 740 0 l 21
 741 307 l 5
 716.78125 307.139648438 678.291992188 305.639648438 661 302 c 1
 661 147 l 2
 661 103.978515625 657.556640625 25.4814453125 655 0 c 9
242 325 m 0
 127.464994166 323.092735837 57.0556318279 263.075953586 55.533203125 159 c 0
 54.2072468364 68.3552526414 131.81615096 -23 290 -23 c 0
 453.44966443 -23 533.291873884 84.067357513 536 223 c 1
 535 301 l 1
 535 511 l 1
 578.196289062 510.958984375 681.286132812 511.266601562 722 511 c 1
 720.404296875 528.333007812 713.4296875 552.666992188 708 563 c 1
 567.112734946 553.47265625 332.477780079 553.265625 206 553 c 1
 208.577148438 497.514648438 210.696289063 440.999023438 211 370 c 0
 211.213761861 320.028525395 204 291 204 291 c 1
 260 291 l 1
 260 291 260 332.112637363 260 364 c 0
 260 416.999669236 258.98828125 458.611328125 258.607421875 511 c 1
 301.984798997 511.171875 370.008613701 511.69140625 452 511 c 1
 452 466.51171875 452 433.681640625 452 370 c 0
 450.934570312 301 l 1
 452.787109375 283 l 1
 452 226 l 0
 450.670898438 102.4140625 386.583562389 30.3447931823 285 30 c 0
 174.620922008 29.6253532297 98 85.2187199279 98 164 c 0
 98 234.600355833 150.85316643 283 235 283 c 0
 465 283 l 1
 491 282 l 1
 542.743148396 281.958984375 817.23046875 279.266601562 866 278 c 1
 866.404296875 295.333007812 862.4296875 322.666992188 859 333 c 1
 667.344726562 324.459960938 394.923768997 327.602002783 242 325 c 0
EndSplineSet
LCarets2: 1 0
Ligature2: "'psts' Post Base Substitutions lookup 3 subtable" tml_Ca tml_MatraU
Colour: ff0000
EndChar

StartChar: tml_NyU
Encoding: 331 -1 75
GlifName: tml_N_yU_
Width: 0
Flags: HW
LayerCount: 3
Back
SplineSet
205 132 m 1
 205 105.333333333 213.333333333 82.6666666667 230 64 c 128
 246.666666667 45.3333333333 266.333333333 36 289 36 c 0
 312.333333333 36 332.166666667 45.5 348.5 64.5 c 128
 364.833333333 83.5 373 106 373 132 c 0
 373 158.666666667 364.833333333 181.5 348.5 200.5 c 128
 332.166666667 219.5 312.333333333 229 289 229 c 256
 265.666666667 229 245.833333333 219.5 229.5 200.5 c 128
 213.166666667 181.5 205 158.666666667 205 132 c 1
 205 132 l 1
49 204 m 1
 49 280 78.3333333333 345 137 399 c 128
 195.666666667 453 266.666666667 480 350 480 c 2
 817 480 l 1
 817 433 l 1
 625 433 l 1
 625 264 l 1
 638.333333333 278.666666667 654.333333333 290.333333333 673 299 c 128
 691.666666667 307.666666667 711.666666667 312 733 312 c 0
 775.666666667 312 812.5 291.166666667 843.5 249.5 c 128
 874.5 207.833333333 890 156.666666667 890 96 c 0
 890 62 888 30.8333333333 884 2.5 c 128
 880 -25.8333333333 873.666666667 -50.6666666667 865 -72 c 1
 985 -72 l 1
 985 480 l 1
 1046 480 l 1
 1046 -120 l 1
 848 -120 l 1
 813.333333333 -179.333333333 757 -226.166666667 679 -260.5 c 128
 601 -294.833333333 511 -312 409 -312 c 0
 321.666666667 -312 246.833333333 -302.5 184.5 -283.5 c 128
 122.166666667 -264.5 79.3333333333 -238 56 -204 c 0
 46 -194 38.3333333333 -183.833333333 33 -173.5 c 128
 27.6666666667 -163.166666667 25 -153.666666667 25 -145 c 0
 25 -125 33.1666666667 -107.833333333 49.5 -93.5 c 128
 65.8333333333 -79.1666666667 85.6666666667 -72 109 -72 c 2
 806 -72 l 1
 814 -58 819.833333333 -37 823.5 -9 c 128
 827.166666667 19 829 54 829 96 c 0
 829 142 818.5 181.5 797.5 214.5 c 128
 776.5 247.5 751.333333333 264 722 264 c 0
 704 264 686.333333333 257 669 243 c 128
 651.666666667 229 637 210.333333333 625 187 c 1
 625 0 l 1
 565 0 l 1
 565 433 l 1
 350 433 l 2
 282 433 224 410.666666667 176 366 c 128
 128 321.333333333 104 267.333333333 104 204 c 0
 104 179.333333333 110.833333333 154.333333333 124.5 129 c 128
 138.166666667 103.666666667 157.333333333 80.6666666667 182 60 c 1
 174 74 167.833333333 87 163.5 99 c 128
 159.166666667 111 157 122 157 132 c 0
 157 172 169.833333333 206 195.5 234 c 128
 221.166666667 262 252.333333333 276 289 276 c 0
 326.333333333 276 357.666666667 262 383 234 c 128
 408.333333333 206 421 172 421 132 c 0
 421 92 408.333333333 58 383 30 c 128
 357.666666667 2 326.333333333 -12 289 -12 c 0
 222.333333333 -12 165.666666667 9 119 51 c 128
 72.3333333333 93 49 144 49 204 c 1
 49 204 l 1
85 -145 m 1
 85 -154.333333333 87.6666666667 -163 93 -171 c 128
 98.3333333333 -179 105.666666667 -186 115 -192 c 0
 149 -215.333333333 190.833333333 -233.166666667 240.5 -245.5 c 128
 290.166666667 -257.833333333 346.333333333 -264 409 -264 c 0
 499 -264 577.166666667 -251.333333333 643.5 -226 c 128
 709.833333333 -200.666666667 755.666666667 -165.333333333 781 -120 c 1
 109 -120 l 2
 102.333333333 -120 96.6666666667 -122.5 92 -127.5 c 128
 87.3333333333 -132.5 85 -138.333333333 85 -145 c 1
 85 -145 l 1
EndSplineSet
Ligature2: "'psts' Post Base Substitutions lookup 3 subtable" tml_Nya tml_MatraU
Colour: ff0000
EndChar

StartChar: tml_TtU
Encoding: 332 -1 76
GlifName: tml_T_tU_
Width: 0
Flags: HW
LayerCount: 3
Back
SplineSet
131 192 m 1
 131 86 158.666666667 -4.5 214 -79.5 c 128
 269.333333333 -154.5 335.666666667 -192 413 -192 c 0
 473 -192 524 -166.166666667 566 -114.5 c 128
 608 -62.8333333333 629 -0.666666666667 629 72 c 0
 629 112 619.5 146 600.5 174 c 128
 581.5 202 559 216 533 216 c 0
 519 216 504.666666667 211.666666667 490 203 c 128
 475.333333333 194.333333333 461.666666667 182.666666667 449 168 c 1
 449 0 l 1
 389 0 l 1
 389 480 l 1
 449 480 l 1
 449 234 l 1
 463 244 478.166666667 251.5 494.5 256.5 c 128
 510.833333333 261.5 527.666666667 264 545 264 c 0
 585 264 619 245.166666667 647 207.5 c 128
 675 169.833333333 689 124.666666667 689 72 c 0
 689 -14.6666666667 662 -88.3333333333 608 -149 c 128
 554 -209.666666667 489 -240 413 -240 c 0
 319.666666667 -240 240.333333333 -197.666666667 175 -113 c 128
 109.666666667 -28.3333333333 77 73.3333333333 77 192 c 0
 77 352 109.666666667 480.166666667 175 576.5 c 128
 240.333333333 672.833333333 327.666666667 721 437 721 c 0
 549.666666667 721 640 677.333333333 708 590 c 128
 776 502.666666667 810 386 810 240 c 2
 810 0 l 1
 749 0 l 1
 749 240 l 2
 749 370 720.666666667 474.5 664 553.5 c 128
 607.333333333 632.5 531.666666667 672 437 672 c 0
 343.666666667 672 269.333333333 628.333333333 214 541 c 128
 158.666666667 453.666666667 131 337.333333333 131 192 c 1
 131 192 l 1
EndSplineSet
Ligature2: "'psts' Post Base Substitutions lookup 3 subtable" tml_Tta tml_MatraU
Colour: ff0000
EndChar

StartChar: tml_NnU
Encoding: 333 -1 77
GlifName: tml_N_nU_
Width: 2113
VWidth: 0
Flags: HW
AnchorPoint: "Anchor-0" 789.001 751 basechar 0
LayerCount: 3
Back
SplineSet
185 132 m 1
 185 105.333333333 192 82.6666666667 206 64 c 128
 220 45.3333333333 237 36 257 36 c 256
 277 36 294 45.5 308 64.5 c 128
 322 83.5 329 106 329 132 c 0
 329 158.666666667 322 181.5 308 200.5 c 128
 294 219.5 277 229 257 229 c 256
 237 229 220 219.5 206 200.5 c 128
 192 181.5 185 158.666666667 185 132 c 1
 185 132 l 1
473 192 m 1
 473 149.333333333 478.833333333 112.666666667 490.5 82 c 128
 502.166666667 51.3333333333 516.333333333 36 533 36 c 256
 549.666666667 36 563.833333333 51.1666666667 575.5 81.5 c 128
 587.166666667 111.833333333 593 148.666666667 593 192 c 0
 593 221.333333333 587.833333333 249.833333333 577.5 277.5 c 128
 567.166666667 305.166666667 552.333333333 330.666666667 533 354 c 1
 513.666666667 330.666666667 498.833333333 305.166666667 488.5 277.5 c 128
 478.166666667 249.833333333 473 221.333333333 473 192 c 1
 473 192 l 1
761 192 m 1
 761 149.333333333 766.833333333 112.666666667 778.5 82 c 128
 790.166666667 51.3333333333 804.333333333 36 821 36 c 256
 837.666666667 36 851.833333333 51.1666666667 863.5 81.5 c 128
 875.166666667 111.833333333 881 148.666666667 881 192 c 0
 881 223.333333333 875.833333333 253.333333333 865.5 282 c 128
 855.166666667 310.666666667 840.333333333 336.666666667 821 360 c 1
 801.666666667 336.666666667 786.833333333 310.666666667 776.5 282 c 128
 766.166666667 253.333333333 761 223.333333333 761 192 c 1
 761 192 l 1
953 480 m 1
 1016.33333333 480 1070.33333333 453 1115 399 c 128
 1159.66666667 345 1182 280 1182 204 c 0
 1182 152 1173.66666667 102.166666667 1157 54.5 c 128
 1140.33333333 6.83333333333 1116.33333333 -35.3333333333 1085 -72 c 1
 1253 -72 l 1
 1253 480 l 1
 1313 480 l 1
 1313 -120 l 1
 1037 -120 l 1
 985.666666667 -180.666666667 912.833333333 -227.833333333 818.5 -261.5 c 128
 724.166666667 -295.166666667 617 -312 497 -312 c 0
 419 -312 348 -302.833333333 284 -284.5 c 128
 220 -266.166666667 167 -239.333333333 125 -204 c 0
 110.333333333 -190.666666667 98.6666666667 -175.833333333 90 -159.5 c 128
 81.3333333333 -143.166666667 77 -126 77 -108 c 0
 77 -98 80.6666666667 -89.5 88 -82.5 c 128
 95.3333333333 -75.5 103.666666667 -72 113 -72 c 2
 1014 -72 l 1
 1049.33333333 -30.6666666667 1076 13.8333333333 1094 61.5 c 128
 1112 109.166666667 1121 156.666666667 1121 204 c 0
 1121 267.333333333 1104.5 321.333333333 1071.5 366 c 128
 1038.5 410.666666667 999 433 953 433 c 0
 939 433 923.833333333 430.333333333 907.5 425 c 128
 891.166666667 419.666666667 874.333333333 412 857 402 c 1
 884.333333333 370 905.166666667 337 919.5 303 c 128
 933.833333333 269 941 236 941 204 c 0
 941 144 929.166666667 93 905.5 51 c 128
 881.833333333 9 853.666666667 -12 821 -12 c 256
 788.333333333 -12 760.166666667 9 736.5 51 c 128
 712.833333333 93 701 144 701 204 c 0
 701 246 707.833333333 284.333333333 721.5 319 c 128
 735.166666667 353.666666667 754.333333333 381.333333333 779 402 c 1
 763 416 746.166666667 426.5 728.5 433.5 c 128
 710.833333333 440.5 693.666666667 444 677 444 c 256
 660.333333333 444 642.833333333 439.833333333 624.5 431.5 c 128
 606.166666667 423.166666667 587.666666667 411.333333333 569 396 c 1
 595.666666667 374 616.333333333 345.166666667 631 309.5 c 128
 645.666666667 273.833333333 653 234.666666667 653 192 c 0
 653 136 641.166666667 88 617.5 48 c 128
 593.833333333 8 565.666666667 -12 533 -12 c 256
 500.333333333 -12 472.166666667 8 448.5 48 c 128
 424.833333333 88 413 136 413 192 c 0
 413 230 419.833333333 266.833333333 433.5 302.5 c 128
 447.166666667 338.166666667 466.333333333 371.333333333 491 402 c 1
 475 416 455.166666667 426.5 431.5 433.5 c 128
 407.833333333 440.5 381.666666667 444 353 444 c 0
 283.666666667 444 224.333333333 420.666666667 175 374 c 128
 125.666666667 327.333333333 101 270.666666667 101 204 c 0
 101 168 106.833333333 135.333333333 118.5 106 c 128
 130.166666667 76.6666666667 146.333333333 53.3333333333 167 36 c 1
 157 52.6666666667 149.5 69.1666666667 144.5 85.5 c 128
 139.5 101.833333333 137 117.333333333 137 132 c 0
 137 172 148.833333333 206 172.5 234 c 128
 196.166666667 262 224.333333333 276 257 276 c 256
 289.666666667 276 317.833333333 262 341.5 234 c 128
 365.166666667 206 377 172 377 132 c 0
 377 92 363 58 335 30 c 128
 307 2 272.666666667 -12 232 -12 c 0
 182.666666667 -12 140.5 9 105.5 51 c 128
 70.5 93 53 144 53 204 c 0
 53 283.333333333 82.3333333333 351.166666667 141 407.5 c 128
 199.666666667 463.833333333 270.333333333 492 353 492 c 0
 391 492 425.333333333 487.5 456 478.5 c 128
 486.666666667 469.5 512.333333333 456 533 438 c 1
 553.666666667 455.333333333 576.5 468.666666667 601.5 478 c 128
 626.5 487.333333333 651.666666667 492 677 492 c 0
 705 492 731.833333333 487.5 757.5 478.5 c 128
 783.166666667 469.5 806.333333333 456 827 438 c 1
 843 452 861.833333333 462.5 883.5 469.5 c 128
 905.166666667 476.5 928.333333333 480 953 480 c 1
 953 480 l 1
161 -120 m 1
 154.333333333 -120 148.666666667 -121.833333333 144 -125.5 c 128
 139.333333333 -129.166666667 137 -133.333333333 137 -138 c 0
 137 -144 144.833333333 -152.833333333 160.5 -164.5 c 128
 176.166666667 -176.166666667 188.333333333 -185.333333333 197 -192 c 0
 225 -215.333333333 264.833333333 -233.166666667 316.5 -245.5 c 128
 368.166666667 -257.833333333 428.333333333 -264 497 -264 c 0
 593.666666667 -264 682.166666667 -251.5 762.5 -226.5 c 128
 842.833333333 -201.5 910.333333333 -166 965 -120 c 1
 161 -120 l 1
 161 -120 l 1
EndSplineSet
Fore
SplineSet
1330.00097656 510 m 0
 1187.07519531 508.879882812 1056.31054688 399.869140625 1057.00097656 176 c 0
 1057.30859375 79.3740234375 1102.24707031 35.970703125 1152.00097656 36 c 0
 1206.68652344 36.033203125 1232.47460938 108.02734375 1232.00097656 188 c 0
 1230.96191406 363.849609375 1103.12890625 508.000976562 936.052734375 508.098632812 c 0
 765.374023438 508.198242188 639.533203125 364.93359375 640.000976562 184 c 0
 640.2578125 83.7490234375 691.604492188 30.9697265625 742.000976562 31 c 0
 796.645507812 31.0341796875 821.533203125 103.4296875 821.000976562 186 c 0
 819.762695312 372.12109375 653.264648438 508.293945312 450.000976562 512 c 0
 283.584960938 515.03125 126.782226562 402.41796875 128 239 c 0
 128.971679688 104.65625 210.633789062 28.9775390625 311 29 c 0
 395.802734375 29.0185546875 439.669921875 83.4541015625 440 136 c 0
 440.323242188 187.50390625 397.131835938 225.834960938 343 226 c 0
 294.694335938 226.147460938 236.918945312 187.979492188 234 120 c 0
 232.03125 71.490234375 237.935546875 50.80078125 253 25 c 1
 236 9 l 1
 215.970703125 31.0234375 194.15234375 51.91796875 195.252929688 118 c 0
 196.935546875 219.059570312 264.18359375 297.713867188 365 297 c 0
 447.931640625 296.413085938 514.66015625 238.987304688 514 149 c 0
 513.455078125 74.751953125 462.380859375 -25.8095703125 332 -26 c 0
 168.833984375 -26.23828125 74.7138671875 89.0546875 75 230 c 0
 75.4267578125 440.301757812 261.948242188 564.749023438 454.000976562 567 c 0
 710 570 909.357421875 410.872070312 909.000976562 185 c 0
 908.834960938 79.927734375 853.47265625 -24.787109375 748.000976562 -25 c 0
 643.435546875 -25.2109375 587.837890625 60.1533203125 588.000976562 178 c 0
 588.299804688 394.048828125 744 560 948.0625 562.40234375 c 24
 1154 564 1318.31054688 413.419921875 1318.00097656 189 c 0
 1317.85644531 83.927734375 1259.47265625 -24.787109375 1154.00097656 -25 c 0
 1049.43554688 -25.2109375 1002.8125 57.1533203125 1003.00097656 175 c 0
 1003.32714844 382.309570312 1133.16894531 562 1346.00097656 562 c 0
 1538 562 1667 420 1666 211 c 0
 1664.38476562 -126.625 1360.22460938 -348.583007812 800 -351.498046875 c 0
 580.801757812 -352.638671875 190 -328.538085938 190 -175 c 0
 190 -123.814453125 240.08203125 -96.0625 289 -96 c 2
 1798 -98 l 1
 1842.29980469 -98.2958984375 1912.08984375 -98.779296875 1940 -91 c 1
 1937.46484375 -58.373046875 1934 20.77734375 1934 58 c 2
 1934 552 l 1
 1951.29199219 555.639648438 1998.78125 560.139648438 2023 560 c 1
 2023 18 l 2
 2023 -32.5419921875 2023.78125 -110.540039062 2029 -145 c 1
 1364 -145 l 1
 296 -145 l 2
 259.365234375 -145 243.098998139 -158.218800249 244 -178 c 0
 247.877929688 -263.138671875 569.458007812 -300.448242188 785 -298.549804688 c 4
 1182.06604402 -295.05255081 1573 -158.401367188 1573 209 c 0
 1573 389.634765625 1465 511.057617188 1330.00097656 510 c 0
EndSplineSet
LCarets2: 1 0
Ligature2: "'psts' Post Base Substitutions lookup 3 subtable" tml_Nna tml_MatraU
Colour: ff0000
EndChar

StartChar: tml_TU
Encoding: 334 -1 78
GlifName: tml_T_U_
Width: 1234
VWidth: 0
Flags: HW
LayerCount: 3
Back
SplineSet
214 264 m 1
 334 264 l 1
 334 433 l 1
 214 433 l 1
 214 264 l 1
 214 264 l 1
94 156 m 1
 94 123.333333333 106.833333333 95.1666666667 132.5 71.5 c 128
 158.166666667 47.8333333333 189.333333333 36 226 36 c 0
 255.333333333 36 280.666666667 45.5 302 64.5 c 128
 323.333333333 83.5 334 106 334 132 c 2
 334 216 l 1
 172 216 l 2
 150.666666667 216 132.333333333 210.333333333 117 199 c 128
 101.666666667 187.666666667 94 173.333333333 94 156 c 1
 94 156 l 1
82 -120 m 1
 74 -120 67 -122.5 61 -127.5 c 128
 55 -132.5 52 -138.333333333 52 -145 c 0
 52 -171.666666667 76.6666666667 -198.166666667 126 -224.5 c 128
 175.333333333 -250.833333333 224.333333333 -264 273 -264 c 0
 325 -264 373.666666667 -251.333333333 419 -226 c 128
 464.333333333 -200.666666667 499.666666667 -165.333333333 525 -120 c 1
 82 -120 l 1
 82 -120 l 1
4 -145 m 1
 4 -125 11.5 -107.833333333 26.5 -93.5 c 128
 41.5 -79.1666666667 60 -72 82 -72 c 2
 544 -72 l 1
 550 -56 554.5 -34.8333333333 557.5 -8.5 c 128
 560.5 17.8333333333 562 48.6666666667 562 84 c 0
 562 121.333333333 551.333333333 152.666666667 530 178 c 128
 508.666666667 203.333333333 483.333333333 216 454 216 c 2
 394 216 l 1
 394 132 l 2
 394 92 377.5 58 344.5 30 c 128
 311.5 2 272 -12 226 -12 c 0
 173.333333333 -12 128 4.5 90 37.5 c 128
 52 70.5 33 110 33 156 c 0
 33 185.333333333 44.8333333333 210.666666667 68.5 232 c 128
 92.1666666667 253.333333333 120.333333333 264 153 264 c 1
 153 480 l 1
 562 480 l 1
 562 433 l 1
 394 433 l 1
 394 264 l 1
 454 264 l 2
 500 264 539.5 246.333333333 572.5 211 c 128
 605.5 175.666666667 622 133.333333333 622 84 c 0
 622 48.6666666667 620.333333333 17.8333333333 617 -8.5 c 128
 613.666666667 -34.8333333333 609.333333333 -56 604 -72 c 1
 718 -72 l 1
 718 480 l 1
 778 480 l 1
 778 -120 l 1
 592 -120 l 1
 564.666666667 -178.666666667 522.166666667 -225.333333333 464.5 -260 c 128
 406.833333333 -294.666666667 343 -312 273 -312 c 0
 199 -312 135.666666667 -295.666666667 83 -263 c 128
 30.3333333333 -230.333333333 4 -191 4 -145 c 1
 4 -145 l 1
EndSplineSet
Fore
SplineSet
144 -137 m 2
 1144 -137 l 1
 1144 560 l 1
 1119.78125 560.139648438 1071.29199219 555.639648438 1054 552 c 1
 1054 23 l 2
 1054 -20.021484375 1050.55664062 -58.5185546875 1048 -84 c 1
 137 -91 l 2
 88.0810546875 -92.013671875 41 -115.814453125 41 -167 c 0
 41 -290 251 -343 416 -343 c 1
 773.223632812 -343 913.39453125 -127.5390625 913 87 c 1
 911.96875 219.166992188 820.360351562 323.262695312 676 325 c 1
 504.8203125 326.852539062 403.3359375 326.897460938 322 325 c 0
 207.479492188 322.328125 137.090820312 262.329101562 135.533203125 157 c 0
 134.20703125 67.3515625 211.81640625 -23 370 -23 c 0
 536.771484375 -23 618.237304688 84.0673828125 621 223 c 1
 620 301 l 1
 620 511 l 1
 662.041015625 510.958984375 762.375 511.266601562 802 511 c 1
 800.404296875 528.333007812 793.4296875 552.666992188 788 563 c 1
 647.112304688 553.47265625 412.477539062 553.265625 286 553 c 1
 288.577148438 497.514648438 290.696289062 440.999023438 291 370 c 0
 291.227539062 316.866210938 284 286 284 286 c 1
 340 286 l 1
 340 286 340 329.928710938 340 364 c 0
 340 395.841796875 339.634765625 423.573242188 339.260742188 452 c 1
 339.01171875 470.889648438 335.759765625 500.0859375 335.607421875 521 c 1
 337.997070312 521.009765625 323.461914062 511.01953125 326 511.03125 c 1
 369.5234375 511.225585938 454.526367188 511.653320312 532 511 c 1
 532 466.51171875 532 433.681640625 532 370 c 0
 530.934570312 301 l 1
 532.787109375 278 l 1
 532 223 l 0
 530.703125 97.4931640625 468.150390625 27.3505859375 369 27 c 0
 259.801757812 26.6142578125 181 83.455078125 181 164 c 0
 181 231.633789062 232.538085938 280 313 280 c 0
 545 278 l 1
 571 278 l 0
 642 279 l 1
 777.438476562 277.7421875 819 180.932617188 819 84 c 0
 819 -121 740.422851562 -293.083007812 423 -293 c 0
 210.611328125 -292.944335938 97.5712890625 -222.075195312 95 -177 c 0
 93.8720703125 -157.23046875 107.365234375 -137 144 -137 c 2
EndSplineSet
LCarets2: 1 0
Ligature2: "'psts' Post Base Substitutions lookup 3 subtable" tml_Ta tml_MatraU
Colour: ff0000
EndChar

StartChar: tml_NU
Encoding: 335 -1 79
GlifName: tml_N_U_
Width: 1233
VWidth: 0
Flags: HW
AnchorPoint: "Anchor-0" 657 751 basechar 0
LayerCount: 3
Back
SplineSet
594 568 m 1
 599.4296875 556.673828125 606.404296875 530 608 511 c 1
 568.375 511.266601562 468.041015625 510.958984375 426 511 c 1
 426 0 l 1
 393.373046875 -0.12890625 359.6328125 -0.1416015625 332 0 c 1
 334 370 l 0
 334.70703125 433.681640625 335.791015625 466.51171875 335 511 c 1
 235.202148438 511.69140625 191.405273438 511.171875 138.607421875 511 c 1
 138.98828125 458.611328125 140 416.990234375 141 364 c 0
 144 205 141 0 141 0 c 1
 80 0 l 1
 80 0 88 136 87 370 c 0
 86.6962890625 442.938476562 84.5771484375 500.999023438 82 558 c 1
 221.075195312 558.265625 439.080078125 558.47265625 594 568 c 1
728 136 m 5
 728.138671875 -18.70703125 649.756835938 -158.459960938 365 -165.15234375 c 0
 224.501953125 -168.454101562 157.482421875 -160.306640625 113 -246 c 1
 139.15234375 -174 l 1
 149.229492188 -208 146.649414062 -226 155 -260 c 1
 133.735351562 -267.627929688 124.498046875 -267.370117188 100 -266.887695312 c 0
 76.6572265625 -266.427734375 68.2373046875 -245.458007812 68 -229 c 0
 66.6103515625 -132.537109375 196.588867188 -121.141601562 376 -117.868164062 c 0
 587.40234375 -114.010742188 632 -15 632 122 c 4
 632 238.005859375 587.031775334 296.932407053 529 298 c 4
 462.687220743 299.219936061 423.7734375 247.642578125 419 207 c 5
 384 202 l 5
 387.389648438 293.595703125 459.428710938 348.313476562 545 348 c 4
 646.635742188 347.627929688 728 272.951171875 728 136 c 5
EndSplineSet
Fore
SplineSet
819 111 m 4
 819 238.20703125 770.03125 293.881835938 710 295 c 4
 646.687545893 296.179280973 610.7734375 252.642578125 609 209 c 1
 572 196 l 1
 575.389648438 287.595703125 648.4296875 347.432617188 734 347 c 4
 807.635742188 346.627929688 917 289 916 110 c 4
 914.54296875 -150.860351562 772.223632812 -343 415 -343 c 5
 250 -343 40 -290 40 -167 c 4
 40 -115.814453125 87.0810546875 -92.013671875 136 -91 c 6
 1047 -84 l 5
 1049.55664062 -58.5185546875 1053 -20.021484375 1053 23 c 6
 1053 552 l 5
 1070.29199219 555.639648438 1118.78125 560.139648438 1143 560 c 5
 1143 -137 l 5
 143 -137 l 6
 106.365234375 -137 92.8720703125 -157.23046875 94 -177 c 4
 96.5712890625 -222.075195312 209.611328125 -292.946289062 422 -293 c 4
 749.422851562 -293.083007812 819 -69 819 111 c 4
791 568 m 1
 796.4296875 556.673828125 803.404296875 530 805 511 c 1
 765.375 511.266601562 665.041015625 510.958984375 623 511 c 1
 623 0 l 1
 590.373046875 -0.12890625 556.6328125 -0.1416015625 529 0 c 1
 531 370 l 0
 531.70703125 433.681640625 532.791015625 466.51171875 532 511 c 1
 432.202148438 511.69140625 388.405273438 511.171875 335.607421875 511 c 1
 335.98828125 458.611328125 337 416.990234375 338 364 c 0
 341 205 338 0 338 0 c 1
 277 0 l 1
 277 0 285 136 284 370 c 0
 283.696289062 442.938476562 281.577148438 500.999023438 279 558 c 1
 418.075195312 558.265625 636.080078125 558.47265625 791 568 c 1
EndSplineSet
LCarets2: 1 0
Ligature2: "'psts' Post Base Substitutions lookup 3 subtable" tml_Na tml_MatraU
Colour: ff0000
EndChar

StartChar: tml_NnnU
Encoding: 336 -1 80
GlifName: tml_N_nnU_
Width: 1743
VWidth: 0
Flags: HW
AnchorPoint: "Anchor-0" 858.001 751 basechar 0
LayerCount: 3
Back
SplineSet
183 132 m 1
 183 108.666666667 191 88.8333333333 207 72.5 c 128
 223 56.1666666667 243 48 267 48 c 256
 290.333333333 48 310.166666667 56.3333333333 326.5 73 c 128
 342.833333333 89.6666666667 351 109.333333333 351 132 c 0
 351 158.666666667 342.833333333 181.5 326.5 200.5 c 128
 310.166666667 219.5 290.333333333 229 267 229 c 256
 243.666666667 229 223.833333333 219.5 207.5 200.5 c 128
 191.166666667 181.5 183 158.666666667 183 132 c 1
 183 132 l 1
507 192 m 1
 507 149.333333333 512.666666667 112.666666667 524 82 c 128
 535.333333333 51.3333333333 549.333333333 36 566 36 c 256
 582.666666667 36 597 51.1666666667 609 81.5 c 128
 621 111.833333333 627 148.666666667 627 192 c 0
 627 223.333333333 621.833333333 253.333333333 611.5 282 c 128
 601.166666667 310.666666667 586 336.666666667 566 360 c 1
 546.666666667 336.666666667 532 310.666666667 522 282 c 128
 512 253.333333333 507 223.333333333 507 192 c 1
 507 192 l 1
711 492 m 1
 771 492 822 462.833333333 864 404.5 c 128
 906 346.166666667 927 275.333333333 927 192 c 0
 927 146.666666667 920.833333333 101.5 908.5 56.5 c 128
 896.166666667 11.5 878 -31.3333333333 854 -72 c 1
 1011 -72 l 1
 1011 480 l 1
 1071 480 l 1
 1071 -120 l 1
 831 -120 l 1
 796.333333333 -179.333333333 745.833333333 -226.166666667 679.5 -260.5 c 128
 613.166666667 -294.833333333 539.666666667 -312 459 -312 c 0
 360.333333333 -312 275.666666667 -295 205 -261 c 128
 134.333333333 -227 99 -186 99 -138 c 0
 99 -120 107 -104.5 123 -91.5 c 128
 139 -78.5 159 -72 183 -72 c 2
 795 -72 l 1
 818.333333333 -30.6666666667 836.166666667 12.3333333333 848.5 57 c 128
 860.833333333 101.666666667 867 146.666666667 867 192 c 0
 867 261.333333333 851.666666667 320.666666667 821 370 c 128
 790.333333333 419.333333333 753.666666667 444 711 444 c 0
 694.333333333 444 676.666666667 439.833333333 658 431.5 c 128
 639.333333333 423.166666667 621 411.333333333 603 396 c 1
 629.666666667 374 650.333333333 345.166666667 665 309.5 c 128
 679.666666667 273.833333333 687 234.666666667 687 192 c 0
 687 136 675.166666667 88 651.5 48 c 128
 627.833333333 8 599.333333333 -12 566 -12 c 0
 533.333333333 -12 505.166666667 8 481.5 48 c 128
 457.833333333 88 446 136 446 192 c 0
 446 233.333333333 453.5 271 468.5 305 c 128
 483.5 339 504 367.666666667 530 391 c 1
 509.333333333 408.333333333 484.666666667 421.5 456 430.5 c 128
 427.333333333 439.5 396 444 362 444 c 0
 289.333333333 444 227.333333333 420.666666667 176 374 c 128
 124.666666667 327.333333333 99 270.666666667 99 204 c 0
 99 178.666666667 103.166666667 155.666666667 111.5 135 c 128
 119.833333333 114.333333333 131.333333333 97.3333333333 146 84 c 1
 142 91.3333333333 139.166666667 99 137.5 107 c 128
 135.833333333 115 135 123.333333333 135 132 c 0
 135 172 147.666666667 206 173 234 c 128
 198.333333333 262 229.666666667 276 267 276 c 256
 304.333333333 276 335.5 262 360.5 234 c 128
 385.5 206 398 172 398 132 c 0
 398 92 385.166666667 58 359.5 30 c 128
 333.833333333 2 303 -12 267 -12 c 0
 207 -12 156 9 114 51 c 128
 72 93 51 144 51 204 c 0
 51 283.333333333 81.1666666667 351.166666667 141.5 407.5 c 128
 201.833333333 463.833333333 275.333333333 492 362 492 c 0
 404 492 442.833333333 486.833333333 478.5 476.5 c 128
 514.166666667 466.166666667 543.333333333 451.666666667 566 433 c 1
 589.333333333 452.333333333 613.5 467 638.5 477 c 128
 663.5 487 687.666666667 492 711 492 c 1
 711 492 l 1
183 -120 m 1
 176.333333333 -120 170.5 -121.833333333 165.5 -125.5 c 128
 160.5 -129.166666667 158 -133.333333333 158 -138 c 0
 158 -172.666666667 187.333333333 -202.333333333 246 -227 c 128
 304.666666667 -251.666666667 375.666666667 -264 459 -264 c 0
 528.333333333 -264 590.333333333 -251.333333333 645 -226 c 128
 699.666666667 -200.666666667 739.666666667 -165.333333333 765 -120 c 1
 183 -120 l 1
 183 -120 l 1
EndSplineSet
Fore
SplineSet
989.000976562 565 m 4
 760.79296875 565 638.32421875 396.555664062 638.000976562 186 c 0
 637.8203125 68.1533203125 692.435546875 -16.208984375 794.000976562 -16 c 0
 900.47265625 -15.78125 972.831054688 83.927734375 973.000976562 206 c 0
 973.307617188 426.872070312 762.002929688 569.73046875 526.000976562 567 c 0
 314.950195312 564.55859375 126.426757812 433.301757812 126 224 c 0
 125.712890625 83.0546875 218.833984375 -26.23828125 382 -26 c 0
 512.380859375 -25.8095703125 563.455078125 74.751953125 564 149 c 0
 564.66015625 238.987304688 497.931640625 296.413085938 415 297 c 0
 314.18359375 297.713867188 246.935546875 219.059570312 245.252929688 118 c 0
 244.15234375 51.91796875 265.970703125 31.0234375 286 9 c 1
 303 25 l 1
 287.935546875 50.80078125 282.03125 71.490234375 284 120 c 0
 286.918945312 187.979492188 344.694335938 226.147460938 393 226 c 0
 447.131835938 225.834960938 490.323242188 187.50390625 490 136 c 0
 489.669921875 83.4541015625 445.802734375 29.0185546875 361 29 c 0
 257.891601562 28.9775390625 173.98046875 101.65625 173 229 c 0
 171.6953125 398.41015625 343.00390625 520.244140625 522.000976562 517 c 0
 718.0078125 513.447265625 887.09375 384.9765625 886.000976562 186 c 0
 885.538085938 101.765625 846.104492188 36.0322265625 788.000976562 36 c 0
 729.627929688 35.9677734375 682.875 88.47265625 683.000976562 189 c 0
 683.279296875 410.869140625 804.9375 514.633789062 978.000976562 516 c 4
 1112 517.057617188 1247 429.634765625 1247 219 c 0
 1247 -91 1107.42285156 -293.05859375 682 -293 c 0
 379.61132794 -292.958351823 166.571289062 -235.075195312 164 -170 c 0
 163.217773438 -150.213867188 176.365234375 -137 213 -137 c 2
 1653 -137 l 1
 1653 560 l 1
 1628.78125 560.139648438 1580.29199219 555.639648438 1563 552 c 1
 1563 23 l 2
 1563 -20.021484375 1559.55664062 -58.5185546875 1557 -84 c 1
 206 -91 l 2
 157.081054688 -92.013671875 110 -115.814453125 110 -167 c 0
 110 -290 430.775390625 -343 672 -343 c 0
 1219 -343 1342.75195312 -49.861328125 1344 211 c 0
 1345 420 1201 565 989.000976562 565 c 4
EndSplineSet
LCarets2: 1 0
Ligature2: "'psts' Post Base Substitutions lookup 3 subtable" tml_Nnna tml_MatraU
Colour: ff0000
EndChar

StartChar: tml_MU
Encoding: 337 -1 81
GlifName: tml_M_U_
Width: 1181
VWidth: 0
Flags: HW
AnchorPoint: "Anchor-0" 620 751 basechar 0
LayerCount: 3
Back
SplineSet
82 560 m 1
 168 560 l 1
 168 0 l 1
 82 0 l 1
 82 560 l 1
627 0 m 1
 627 56 l 1
 752.944335938 57.62109375 799.423828125 171.159179688 801 281 c 0
 802.620117188 389.583984375 747.6875 517.107421875 626 518 c 0
 583.612304688 518.323242188 535.627929688 490.48828125 536 402 c 0
 533 30 l 1
 446 30 l 0
 450 389 l 0
 450.9609375 532.15625 527.0859375 587.373046875 623 588 c 0
 774.857421875 588.951171875 875.178710938 447.044921875 868 275 c 0
 861.416992188 104.600585938 769.213790216 0.479804566188 627 0 c 1
90 56 m 1
 221.318359375 53.5576171875 473.52734375 55.9345703125 632 56 c 1
 632 0 l 1
 90 0 l 1
 90 56 l 1
EndSplineSet
Fore
SplineSet
834 763 m 4
 758.152787642 763 708 722.508259599 708 650 c 0
 708 577.40496134 778.539439374 523.067313523 810 490 c 1
 774 476 l 1
 745.778143965 491.52238806 661.559259976 562.863156055 660 647 c 0
 658.219061184 765.338151245 744.205437032 842 854 842 c 0
 1000.93435037 842 1096 741.494891159 1096 589 c 2
 1096 0 l 1
 1045 0 l 1
 1045 549 l 1
 1046.08226812 686.341735524 951.82053268 763 834 763 c 4
90 560 m 1
 166 560 l 1
 166 0 l 1
 90 0 l 1
 90 560 l 1
665 0 m 1
 665 49 l 1
 787.325245825 50.5706597222 832.359853825 160.578077535 834 267 c 0
 835.66640625 375.125824103 779.164180783 502.096532267 654 503 c 0
 606.902560764 503.339961612 553.586588542 474.065261315 554 381 c 0
 551 30 l 1
 474 30 l 0
 478 378 l 0
 478.90539198 513.962468593 550.629877848 566.439758012 641 567 c 0
 790.99794324 567.929899661 889.194385786 429.232670462 883 261 c 0
 877.045246046 99.2754651995 793.641519781 0.455378151909 665 0 c 1
98 49 m 1
 236.586903252 46.5576171875 502.755794511 48.9345703125 670 49 c 1
 670 0 l 1
 98 0 l 1
 98 49 l 1
EndSplineSet
LCarets2: 1 0
Ligature2: "'psts' Post Base Substitutions lookup 3 subtable" tml_Ma tml_MatraU
Colour: ff0000
EndChar

StartChar: tml_RU
Encoding: 338 -1 82
GlifName: tml_R_U_
Width: 1198
VWidth: 0
Flags: HW
AnchorPoint: "Anchor-0" 800 751 basechar 0
LayerCount: 3
Back
SplineSet
609 -301 m 0
 896.862516243 -302.908130959 1076.86219892 -144.127124907 1077 86 c 4
 1077.07053122 194.850825755 1030.0003111 279.851016829 941 279 c 0
 883.677925858 278.416837993 841.920802696 234.038209293 837 186 c 1
 800 193 l 1
 809.01171875 291.220703125 883.523551673 350.417899289 974 349 c 0
 1079.24510657 347.35065407 1167.68651838 258.072422179 1168 94 c 0
 1168.45523447 -144.264120306 990.716577125 -378 625 -378 c 0
 239.430328911 -378 71.8287550234 -111.511749267 71 148 c 0
 70.2773785341 369.277133306 184.650674625 519.082384017 276 599 c 1
 317 559 l 1
 208.135251017 461.409587981 139 321.290652697 139 153 c 0
 139 -83.6930530025 303.945800638 -299.055587036 609 -301 c 0
EndSplineSet
Refer: 37 3006 N 1 0 0 1 340 0 2
Fore
SplineSet
603 -310 m 0
 866.260742188 -311.446289062 1007.87402344 -142.775390625 1008 82 c 0
 1008.07128906 193.106445312 979.6328125 279.869140625 887 279 c 0
 831.881835938 278.474609375 791.731445312 234.038085938 787 186 c 1
 755 196 l 1
 763.701171875 292.33203125 835.646253284 340.550906252 923 339 c 4
 1016.6171875 337.337890625 1113.69140625 257.359375 1114 92 c 0
 1114.42773438 -140.20703125 955.490234375 -368 612 -368 c 0
 211.119140625 -368 48.8193146517 -90.1241640246 48 161 c 0
 47.3369140625 364.239257812 151.225585938 525.374023438 235 606 c 1
 285 566 l 1
 186.532226562 477.448242188 105 339.948242188 105 170 c 0
 105 -60.4365234375 258.474609375 -308.107421875 603 -310 c 0
EndSplineSet
Refer: 37 3006 N 1 0 0 1 340 0 2
LCarets2: 1 0
Ligature2: "'psts' Post Base Substitutions lookup 3 subtable" tml_Ra tml_MatraU
Colour: ff0000
EndChar

StartChar: tml_RrU
Encoding: 339 -1 83
GlifName: tml_R_rU_
Width: 1153
VWidth: 0
Flags: HW
LayerCount: 3
Back
SplineSet
87 360 m 1
 87 397.333333333 99.6666666667 428.666666667 125 454 c 128
 150.333333333 479.333333333 181.666666667 492 219 492 c 0
 243 492 264.333333333 486.666666667 283 476 c 128
 301.666666667 465.333333333 314 451 320 433 c 1
 330.666666667 451 346.833333333 465.333333333 368.5 476 c 128
 390.166666667 486.666666667 414 492 440 492 c 0
 488 492 529 466.166666667 563 414.5 c 128
 597 362.833333333 614 301 614 229 c 0
 614 189 610.166666667 143.666666667 602.5 93 c 128
 594.833333333 42.3333333333 582.666666667 -12.6666666667 566 -72 c 1
 687 -72 l 1
 687 480 l 1
 747 480 l 1
 747 -120 l 1
 543 -120 l 1
 522.333333333 -178 484.333333333 -224.5 429 -259.5 c 128
 373.666666667 -294.5 311.333333333 -312 242 -312 c 0
 178.666666667 -312 125 -295.666666667 81 -263 c 128
 37 -230.333333333 15 -191 15 -145 c 0
 15 -125 23 -107.833333333 39 -93.5 c 128
 55 -79.1666666667 75 -72 99 -72 c 2
 507 -72 l 1
 523 -28 535 19.1666666667 543 69.5 c 128
 551 119.833333333 555 173 555 229 c 256
 555 285 543.666666667 333 521 373 c 128
 498.333333333 413 471.333333333 433 440 433 c 0
 415.333333333 433 394.333333333 426 377 412 c 128
 359.666666667 398 351 380.666666667 351 360 c 2
 351 0 l 1
 290 0 l 1
 290 360 l 2
 290 383.333333333 283 403.166666667 269 419.5 c 128
 255 435.833333333 238.333333333 444 219 444 c 0
 199 444 181.833333333 435.833333333 167.5 419.5 c 128
 153.166666667 403.166666667 146 383.333333333 146 360 c 2
 146 0 l 1
 87 0 l 1
 87 360 l 1
 87 360 l 1
74 -145 m 1
 74 -177.666666667 90.5 -205.666666667 123.5 -229 c 128
 156.5 -252.333333333 196 -264 242 -264 c 0
 298 -264 348.166666667 -250.833333333 392.5 -224.5 c 128
 436.833333333 -198.166666667 466.666666667 -163.333333333 482 -120 c 1
 99 -120 l 2
 92.3333333333 -120 86.5 -122.5 81.5 -127.5 c 128
 76.5 -132.5 74 -138.333333333 74 -145 c 1
 74 -145 l 1
EndSplineSet
Fore
SplineSet
834 209 m 4
 834 -53 732.223632812 -343 375 -343 c 5
 230 -343 70 -295 70 -172 c 4
 70 -120.814453125 119.081054688 -89.013671875 168 -88 c 6
 855 -88 l 5
 908.520507812 -87.861328125 946.857421875 -82.951171875 968 -80 c 5
 970.556640625 -54.5185546875 973 -20.021484375 973 23 c 6
 973 552 l 5
 990.291992188 555.639648438 1038.78125 560.139648438 1063 560 c 5
 1063 -137 l 5
 168 -137 l 6
 131.365234375 -137 115.872070312 -157.23046875 117 -177 c 4
 119.571289062 -222.075195312 199.611328125 -292.944335938 382 -293 c 4
 699.422851562 -293.096679688 747.963867188 -1.9970703125 749 178 c 4
 750.178710938 382.678710938 707.764648438 507.64453125 610 508 c 0
 559.873046875 508.182617188 514.641601562 466.362304688 509 417 c 2
 495 385 l 1
 495.294921875 397.466796875 465.422851562 440.041992188 468.498046875 452 c 1
 477.725585938 489.201171875 527.265625 557.969726562 620 560 c 0
 693.509765625 561.609375 834 508.703125 834 209 c 4
241 -1 m 1
 189 -1 l 1
 189.787109375 15.5615234375 193.446289062 38.3916015625 192.926757812 139 c 1
 194.700195312 402.177734375 l 1
 195.3203125 498.915039062 258.768554688 559.8203125 350 561 c 0
 412.228515625 561.8046875 468.560546875 530.559570312 496.092773438 470 c 1
 511.369140625 433 l 1
 511 423.249023438 l 1
 511 1 l 1
 481.919921875 -2.068359375 462.602539062 0.533203125 427 1 c 1
 427 381.926757812 l 1
 428.302734375 487.208984375 384.801757812 512.807617188 333 512 c 0
 287.788085938 511.294921875 242.756835938 473.826171875 244.091796875 397.826171875 c 1
 241 -1 l 1
EndSplineSet
LCarets2: 1 0
Ligature2: "'psts' Post Base Substitutions lookup 3 subtable" tml_Rra tml_MatraU
Colour: ff0000
EndChar

StartChar: tml_LU
Encoding: 340 -1 84
GlifName: tml_L_U_
Width: 1353
VWidth: 0
Flags: HW
LayerCount: 3
Back
SplineSet
197 120 m 1
 197 96.6666666667 202.666666667 76.8333333333 214 60.5 c 128
 225.333333333 44.1666666667 239.666666667 36 257 36 c 0
 277 36 294 44.1666666667 308 60.5 c 128
 322 76.8333333333 329 96.6666666667 329 120 c 256
 329 143.333333333 322 163.166666667 308 179.5 c 128
 294 195.833333333 277 204 257 204 c 0
 240.333333333 204 226.166666667 195.833333333 214.5 179.5 c 128
 202.833333333 163.166666667 197 143.333333333 197 120 c 1
 197 120 l 1
113 -145 m 1
 113 -179.666666667 136.333333333 -209.333333333 183 -234 c 128
 229.666666667 -258.666666667 286.333333333 -271 353 -271 c 0
 413 -271 464 -256.333333333 506 -227 c 128
 548 -197.666666667 569 -162 569 -120 c 1
 137 -120 l 2
 130.333333333 -120 124.666666667 -122.5 120 -127.5 c 128
 115.333333333 -132.5 113 -138.333333333 113 -145 c 1
 113 -145 l 1
53 216 m 1
 53 292 80 357 134 411 c 128
 188 465 253 492 329 492 c 0
 375 492 414.5 478 447.5 450 c 128
 480.5 422 497 388 497 348 c 2
 497 108 l 2
 497 91.3333333333 504 77.1666666667 518 65.5 c 128
 532 53.8333333333 549 48 569 48 c 0
 609 48 643 69 671 111 c 128
 699 153 713 204 713 264 c 0
 713 312 699 355 671 393 c 128
 643 431 607 456 563 468 c 1
 581 517 l 1
 636.333333333 507 682.166666667 478.166666667 718.5 430.5 c 128
 754.833333333 382.833333333 773 327.333333333 773 264 c 0
 773 208 760.166666667 156.333333333 734.5 109 c 128
 708.833333333 61.6666666667 673.666666667 25.3333333333 629 0 c 1
 629 -72 l 1
 881 -72 l 1
 881 480 l 1
 941 480 l 1
 941 -120 l 1
 629 -120 l 1
 629 -174.666666667 602 -221.333333333 548 -260 c 128
 494 -298.666666667 429 -318 353 -318 c 0
 273.666666667 -318 205.666666667 -301 149 -267 c 128
 92.3333333333 -233 64 -192.333333333 64 -145 c 0
 64 -125 71 -107.833333333 85 -93.5 c 128
 99 -79.1666666667 116.333333333 -72 137 -72 c 2
 569 -72 l 1
 569 0 l 1
 531.666666667 0 500.333333333 10.5 475 31.5 c 128
 449.666666667 52.5 437 78 437 108 c 2
 437 348 l 2
 437 374.666666667 426.333333333 397.333333333 405 416 c 128
 383.666666667 434.666666667 358.333333333 444 329 444 c 0
 265.666666667 444 211.833333333 421.833333333 167.5 377.5 c 128
 123.166666667 333.166666667 101 279.333333333 101 216 c 0
 101 188.666666667 106.166666667 161.666666667 116.5 135 c 128
 126.833333333 108.333333333 141.666666667 83.3333333333 161 60 c 1
 157 71.3333333333 153.833333333 83 151.5 95 c 128
 149.166666667 107 148 119.333333333 148 132 c 0
 148 164.666666667 158.833333333 192.833333333 180.5 216.5 c 128
 202.166666667 240.166666667 227.666666667 252 257 252 c 0
 289.666666667 252 317.833333333 239.166666667 341.5 213.5 c 128
 365.166666667 187.833333333 377 156.666666667 377 120 c 0
 377 82.6666666667 365.166666667 51.3333333333 341.5 26 c 128
 317.833333333 0.666666666667 289.666666667 -12 257 -12 c 0
 201 -12 153 10.1666666667 113 54.5 c 128
 73 98.8333333333 53 152.666666667 53 216 c 1
 53 216 l 1
EndSplineSet
Fore
SplineSet
816 79 m 9
 884 85 l 0
 884 -177 716 -341 445 -343 c 0
 308.047851562 -344.010742188 130 -296 130 -173 c 0
 130 -121.814453125 179.081054688 -89.013671875 228 -88 c 2
 1055 -88 l 1
 1108.52050781 -87.861328125 1146.85742188 -82.951171875 1168 -80 c 1
 1170.55664062 -54.5185546875 1173 -20.021484375 1173 23 c 2
 1173 552 l 1
 1190.29199219 555.639648438 1238.78125 560.139648438 1263 560 c 1
 1263 -137 l 1
 225 -137 l 2
 188.365234375 -137 175.872070312 -157.23046875 177 -177 c 0
 179.571289062 -222.075195312 259.611328125 -295.938476562 442 -296 c 0
 729.422851562 -296.096679688 808.963867188 -99.9970703125 816 79 c 9
EndSplineSet
Refer: 29 2994 N 0.9525 0 0 0.9525 50.1175 37.9075 2
LCarets2: 1 0
Ligature2: "'psts' Post Base Substitutions lookup 3 subtable" tml_La tml_MatraU
Colour: ff0000
EndChar

StartChar: tml_LlU
Encoding: 341 -1 85
GlifName: tml_L_lU_
Width: 1271
VWidth: 0
Flags: HW
LayerCount: 3
Back
SplineSet
444 120 m 1
 444 96.6666666667 451 76.8333333333 465 60.5 c 128
 479 44.1666666667 496.333333333 36 517 36 c 256
 537 36 553.833333333 44.1666666667 567.5 60.5 c 128
 581.166666667 76.8333333333 588 96.6666666667 588 120 c 256
 588 143.333333333 581 163.166666667 567 179.5 c 128
 553 195.833333333 536.333333333 204 517 204 c 0
 497 204 479.833333333 195.833333333 465.5 179.5 c 128
 451.166666667 163.166666667 444 143.333333333 444 120 c 1
 444 120 l 1
132 240 m 1
 132 94 188.333333333 -30.5 301 -133.5 c 128
 413.666666667 -236.5 549.333333333 -288 708 -288 c 0
 840.666666667 -288 953.833333333 -252.833333333 1047.5 -182.5 c 128
 1141.16666667 -112.166666667 1188 -27.3333333333 1188 72 c 0
 1188 112 1178.66666667 146 1160 174 c 128
 1141.33333333 202 1119 216 1093 216 c 0
 1077 216 1061.5 211.666666667 1046.5 203 c 128
 1031.5 194.333333333 1019 182.666666667 1009 168 c 1
 1009 0 l 1
 948 0 l 1
 948 433 l 1
 769 433 l 1
 769 0 l 1
 708 0 l 1
 708 240 l 2
 708 292.666666667 690.5 338 655.5 376 c 128
 620.5 414 578 433 528 433 c 256
 478.666666667 433 436.333333333 411.833333333 401 369.5 c 128
 365.666666667 327.166666667 348 276 348 216 c 0
 348 186.666666667 353.166666667 159.333333333 363.5 134 c 128
 373.833333333 108.666666667 388.666666667 88 408 72 c 1
 404 83.3333333333 401 93 399 101 c 128
 397 109 396 115.333333333 396 120 c 0
 396 157.333333333 407.833333333 188.666666667 431.5 214 c 128
 455.166666667 239.333333333 483.666666667 252 517 252 c 0
 549.666666667 252 577.833333333 239.166666667 601.5 213.5 c 128
 625.166666667 187.833333333 637 156.666666667 637 120 c 0
 637 82.6666666667 622.833333333 51.3333333333 594.5 26 c 128
 566.166666667 0.666666666667 532 -12 492 -12 c 0
 436 -12 388 10.1666666667 348 54.5 c 128
 308 98.8333333333 288 152.666666667 288 216 c 0
 288 290 311.5 353.5 358.5 406.5 c 128
 405.5 459.5 462 486 528 486 c 0
 572.666666667 486 612.666666667 475.666666667 648 455 c 128
 683.333333333 434.333333333 707.666666667 406.666666667 721 372 c 1
 721 480 l 1
 1200 480 l 1
 1200 433 l 1
 1009 433 l 1
 1009 240 l 1
 1020.33333333 251.333333333 1033.16666667 260.166666667 1047.5 266.5 c 128
 1061.83333333 272.833333333 1077 276 1093 276 c 0
 1135.66666667 276 1172.16666667 256 1202.5 216 c 128
 1232.83333333 176 1248 128 1248 72 c 0
 1248 -40.6666666667 1195.33333333 -136.833333333 1090 -216.5 c 128
 984.666666667 -296.166666667 857.333333333 -336 708 -336 c 0
 532 -336 382 -279.833333333 258 -167.5 c 128
 134 -55.1666666667 72 80.6666666667 72 240 c 0
 72 296 80.1666666667 348.833333333 96.5 398.5 c 128
 112.833333333 448.166666667 136.666666667 491.333333333 168 528 c 1
 210 492 l 1
 185.333333333 461.333333333 166.166666667 424.5 152.5 381.5 c 128
 138.833333333 338.5 132 291.333333333 132 240 c 1
 132 240 l 1
EndSplineSet
Fore
Refer: 30 2995 N 1 0 0 1 0 0 2
Ligature2: "'psts' Post Base Substitutions lookup 3 subtable" tml_Lla tml_MatraU
Colour: ff0000
EndChar

StartChar: tml_LllU
Encoding: 342 -1 86
GlifName: tml_L_llU_
Width: 1282
Flags: HW
LayerCount: 3
Back
SplineSet
307 559 m 1
 204.862847864 462.371069873 140 323.63261671 140 157 c 0
 140 -109.410022212 338.514217979 -350.130122166 717 -354 c 4
 857.738681038 -355.43900122 1003 -316.370452009 1003 -220 c 0
 1003 -181.354492188 971.926630435 -157.452148438 943 -158 c 0
 903.271942139 -158.573242188 870 -193.112304688 870 -217 c 1
 780 -217 l 1
 780 10 l 1
 865 10 l 1
 865 -154 l 1
 848 -169 l 1
 860.200195312 -129.415428586 913.959998498 -90.5223885182 972 -91.6630859375 c 0
 1040.38741406 -92.9326171875 1089 -146.454101562 1089 -216 c 0
 1089 -387.3203125 870.994077062 -427 722 -427 c 0
 268.224863628 -427 70.8429930196 -133.6606138 70 152 c 0
 69.3091033789 369.842676691 178.661132812 517.322790474 266 596 c 1
 307 559 l 1
EndSplineSet
Refer: 25 2990 N 1 0 0 1 334 4 2
Fore
SplineSet
300 569 m 1
 197.86328125 472.37109375 120 328.6328125 120 162 c 0
 120 -124.41015625 308.510269691 -360.610596655 707 -364 c 0
 867.739257812 -365.3671875 1008 -304.370117188 1008 -208 c 0
 1008 -169.354492188 980.926757812 -140.452148438 932 -141 c 0
 892.26953125 -141.4453125 843 -183.112304688 843 -217 c 1
 764 -217 l 1
 764 10 l 1
 843 10 l 1
 843 -154 l 1
 827 -161 l 1
 839.200195312 -121.415039062 905.958984375 -83.5703125 964 -84.6630859375 c 0
 1035.38671875 -86.0068359375 1097 -144.454101562 1097 -216 c 0
 1097 -387.3203125 850.994140625 -427 702 -427 c 0
 248.224609375 -427 70.8429930196 -133.6606138 70 152 c 0
 69.3091033789 369.842676691 178.661132812 517.322790474 266 596 c 1
 300 569 l 1
EndSplineSet
Refer: 25 2990 S 1 0 0 1 334 4 2
LCarets2: 1 0
Ligature2: "'psts' Post Base Substitutions lookup 3 subtable" tml_Llla tml_MatraU
Colour: ff0000
EndChar

StartChar: tml_KUu
Encoding: 343 -1 87
GlifName: tml_K_U_u
Width: 1315
VWidth: 0
Flags: HW
LayerCount: 3
Back
SplineSet
214 264 m 1
 334 264 l 1
 334 433 l 1
 214 433 l 1
 214 264 l 1
 214 264 l 1
94 156 m 1
 94 126.666666667 106.833333333 101.333333333 132.5 80 c 128
 158.166666667 58.6666666667 189.333333333 48 226 48 c 0
 255.333333333 48 280.666666667 56.3333333333 302 73 c 128
 323.333333333 89.6666666667 334 109.333333333 334 132 c 2
 334 216 l 1
 153 216 l 2
 136.333333333 216 122.333333333 210.333333333 111 199 c 128
 99.6666666667 187.666666667 94 173.333333333 94 156 c 1
 94 156 l 1
514 120 m 1
 514 96.6666666667 518.5 76.8333333333 527.5 60.5 c 128
 536.5 44.1666666667 548 36 562 36 c 256
 576 36 587.333333333 44.1666666667 596 60.5 c 128
 604.666666667 76.8333333333 609 96.6666666667 609 120 c 0
 609 140.666666667 602.5 159.833333333 589.5 177.5 c 128
 576.5 195.166666667 559.333333333 208 538 216 c 1
 530 202 524 186.833333333 520 170.5 c 128
 516 154.166666667 514 137.333333333 514 120 c 1
 514 120 l 1
33 156 m 1
 33 185.333333333 44.8333333333 210.666666667 68.5 232 c 128
 92.1666666667 253.333333333 120.333333333 264 153 264 c 1
 153 480 l 1
 586 480 l 1
 586 433 l 1
 394 433 l 1
 394 264 l 1
 514 264 l 1
 528 293.333333333 549 316.666666667 577 334 c 128
 605 351.333333333 636 360 670 360 c 0
 716 360 755.5 341.166666667 788.5 303.5 c 128
 821.5 265.833333333 838 220.666666667 838 168 c 0
 838 146 834.333333333 124.5 827 103.5 c 128
 819.666666667 82.5 809.333333333 64 796 48 c 1
 994 48 l 1
 994 0 l 1
 729 0 l 1
 729 48 l 1
 743.666666667 66 755.5 85.5 764.5 106.5 c 128
 773.5 127.5 778 148 778 168 c 0
 778 206.666666667 767.333333333 239.333333333 746 266 c 128
 724.666666667 292.666666667 699.333333333 306 670 306 c 0
 646 306 624.833333333 301.5 606.5 292.5 c 128
 588.166666667 283.5 575 272 567 258 c 1
 594.333333333 248 616.333333333 230.333333333 633 205 c 128
 649.666666667 179.666666667 658 151.333333333 658 120 c 0
 658 82.6666666667 648.666666667 51.3333333333 630 26 c 128
 611.333333333 0.666666666667 588.666666667 -12 562 -12 c 256
 535.333333333 -12 512.666666667 0.666666666667 494 26 c 128
 475.333333333 51.3333333333 466 82.6666666667 466 120 c 0
 466 137.333333333 468 154.166666667 472 170.5 c 128
 476 186.833333333 482 202 490 216 c 1
 394 216 l 1
 394 132 l 2
 394 92 377.5 58 344.5 30 c 128
 311.5 2 272 -12 226 -12 c 0
 173.333333333 -12 128 4.5 90 37.5 c 128
 52 70.5 33 110 33 156 c 1
 33 156 l 1
EndSplineSet
Fore
SplineSet
242 325 m 0
 394.923828125 327.6015625 499.344726562 324.459960938 691 333 c 1
 696.4296875 322.666992188 663.404296875 298.333007812 665 281 c 1
 616.23046875 282.266601562 542.743164062 281.958984375 491 282 c 1
 465 283 l 1
 235 283 l 0
 150.853515625 283 98 234.600585938 98 164 c 0
 98 85.21875 174.62109375 29.625 285 30 c 0
 386.583984375 30.3447265625 450.670898438 99.4140625 452 223 c 0
 452.787109375 283 l 1
 450.934570312 301 l 1
 452 370 l 0
 452 433.681640625 452 466.51171875 452 511 c 1
 370.008789062 511.69140625 301.984375 511.171875 258.607421875 511 c 1
 258.98828125 458.611328125 260 417 260 364 c 0
 260 332.112304688 260 291 260 291 c 1
 204 291 l 1
 204 291 211.213867188 320.028320312 211 370 c 0
 210.696289062 440.999023438 208.577148438 497.514648438 206 553 c 1
 332.477539062 553.265625 567.112304688 553.47265625 708 563 c 1
 713.4296875 552.666992188 720.404296875 528.333007812 722 511 c 1
 681.286132812 511.266601562 578.196289062 510.958984375 535 511 c 1
 535 301 l 1
 536 223 l 1
 533.291992188 84.0673828125 453.44921875 -23 290 -23 c 0
 131.81640625 -23 54.20703125 68.35546875 55.533203125 159 c 0
 57.0556640625 263.076171875 127.46484375 323.092773438 242 325 c 0
517 334 m 25
 671 334 l 17
 794.051757812 338.931640625 908.125976562 261.458007812 910 144 c 4
 911.084960938 76.0009765625 883 -10 776 -10 c 1
 691 -10 656 54 656 131 c 0
 656 281.540039062 769.013671875 362.227539062 882 364 c 0
 1009.48925781 366 1127 286 1127 52 c 1
 1203.49511719 53.4931640625 1241.45996094 56.916015625 1288 62 c 1
 1294.56542969 44.52734375 1300.68285823 22.8122057863 1298 0 c 9
 1045 0 l 17
 1065 253 951 318 874 318 c 0
 808.694335938 318 706 257 706 139 c 1
 706 92 729 48 773 48 c 0
 812 48 833.717773438 80.880859375 832 146 c 0
 830.055664062 219.688476562 776 279 708 279 c 1
 611.288085938 283.791992188 716.698824463 279.937099553 515 283 c 9
 517 334 l 25
EndSplineSet
LCarets2: 1 0
Ligature2: "'psts' Post Base Substitutions lookup 4 subtable" tml_Ka tml_MatraUu
Colour: ff0000
EndChar

StartChar: tml_NgUu
Encoding: 344 -1 88
GlifName: tml_N_gU_u
Width: 987
VWidth: 0
Flags: HW
LayerCount: 3
Back
SplineSet
90 480 m 1
 522 480 l 1
 522 433 l 1
 354 433 l 1
 354 258 l 1
 365.333333333 272 378.333333333 282.5 393 289.5 c 128
 407.666666667 296.5 422.666666667 300 438 300 c 0
 480.666666667 300 517.333333333 286 548 258 c 128
 578.666666667 230 594 196 594 156 c 0
 594 134.666666667 589.833333333 114.5 581.5 95.5 c 128
 573.166666667 76.5 561.333333333 60.6666666667 546 48 c 1
 727 48 l 1
 727 480 l 1
 786 480 l 1
 786 60 l 1
 796 71.3333333333 808.333333333 80.1666666667 823 86.5 c 128
 837.666666667 92.8333333333 853.333333333 96 870 96 c 0
 904.666666667 96 934.333333333 83.3333333333 959 58 c 128
 983.666666667 32.6666666667 996 1.33333333333 996 -36 c 0
 996 -112 947.5 -177 850.5 -231 c 128
 753.5 -285 636 -312 498 -312 c 0
 392 -312 301.5 -296.833333333 226.5 -266.5 c 128
 151.5 -236.166666667 114 -199.333333333 114 -156 c 0
 114 -126.666666667 137.5 -101.333333333 184.5 -80 c 128
 231.5 -58.6666666667 288 -48 354 -48 c 0
 406.666666667 -48 455.166666667 -53 499.5 -63 c 128
 543.833333333 -73 583.333333333 -88 618 -108 c 1
 601 -162 l 1
 563 -140.666666667 523.166666667 -124.333333333 481.5 -113 c 128
 439.833333333 -101.666666667 397.333333333 -96 354 -96 c 0
 304.666666667 -96 262.333333333 -101.833333333 227 -113.5 c 128
 191.666666667 -125.166666667 174 -139.333333333 174 -156 c 0
 174 -185.333333333 205.5 -210.666666667 268.5 -232 c 128
 331.5 -253.333333333 408 -264 498 -264 c 0
 620.666666667 -264 725.333333333 -241.833333333 812 -197.5 c 128
 898.666666667 -153.166666667 942 -99.3333333333 942 -36 c 0
 942 -14.6666666667 935 3.66666666667 921 19 c 128
 907 34.3333333333 890 42 870 42 c 0
 858 42 844.666666667 37.3333333333 830 28 c 128
 815.333333333 18.6666666667 800.666666667 5.33333333333 786 -12 c 1
 786 -168 l 1
 727 -168 l 1
 727 0 l 1
 294 0 l 1
 294 48 l 1
 426 48 l 2
 455.333333333 48 480.666666667 58.5 502 79.5 c 128
 523.333333333 100.5 534 126 534 156 c 0
 534 179.333333333 524.666666667 199.166666667 506 215.5 c 128
 487.333333333 231.833333333 464.666666667 240 438 240 c 0
 424 240 409.666666667 235.833333333 395 227.5 c 128
 380.333333333 219.166666667 366.666666667 207.333333333 354 192 c 1
 354 96 l 1
 294 96 l 1
 294 433 l 1
 150 433 l 1
 150 0 l 1
 90 0 l 1
 90 480 l 1
 90 480 l 1
EndSplineSet
Fore
Refer: 15 2969 N 1 0 0 1 0 0 2
Ligature2: "'psts' Post Base Substitutions lookup 4 subtable" tml_Nga tml_MatraUu
Colour: ff0000
EndChar

StartChar: tml_CUu
Encoding: 345 -1 89
GlifName: tml_C_U_u
Width: 0
Flags: HW
LayerCount: 3
Back
SplineSet
407 433 m 1
 407 264 l 1
 527 264 l 1
 527 433 l 1
 407 433 l 1
 407 433 l 1
287 156 m 1
 287 123.333333333 299.666666667 95.1666666667 325 71.5 c 128
 350.333333333 47.8333333333 381.666666667 36 419 36 c 0
 448.333333333 36 473.666666667 45.5 495 64.5 c 128
 516.333333333 83.5 527 106 527 132 c 2
 527 216 l 1
 347 216 l 2
 330.333333333 216 316.166666667 210.333333333 304.5 199 c 128
 292.833333333 187.666666667 287 173.333333333 287 156 c 1
 287 156 l 1
59 96 m 1
 59 184 74.5 262.333333333 105.5 331 c 128
 136.5 399.666666667 178.666666667 449.333333333 232 480 c 1
 269 444 l 1
 221 416 183 371 155 309 c 128
 127 247 113 176 113 96 c 0
 113 -6 154.5 -93.5 237.5 -166.5 c 128
 320.5 -239.5 421 -276 539 -276 c 0
 632.333333333 -276 711.666666667 -247.666666667 777 -191 c 128
 842.333333333 -134.333333333 875 -66.6666666667 875 12 c 0
 875 41.3333333333 866.833333333 66.6666666667 850.5 88 c 128
 834.166666667 109.333333333 814.333333333 120 791 120 c 0
 779.666666667 120 767.333333333 114.666666667 754 104 c 128
 740.666666667 93.3333333333 729 78.6666666667 719 60 c 1
 719 0 l 1
 659 0 l 1
 659 216 l 1
 587 216 l 1
 587 132 l 2
 587 92 570.5 58 537.5 30 c 128
 504.5 2 465 -12 419 -12 c 0
 366.333333333 -12 321.166666667 4.5 283.5 37.5 c 128
 245.833333333 70.5 227 110 227 156 c 0
 227 185.333333333 238.833333333 210.666666667 262.5 232 c 128
 286.166666667 253.333333333 314.333333333 264 347 264 c 1
 347 480 l 1
 755 480 l 1
 755 433 l 1
 587 433 l 1
 587 264 l 1
 827 264 l 1
 827 216 l 1
 719 216 l 1
 719 132 l 1
 729 143.333333333 740.166666667 152.166666667 752.5 158.5 c 128
 764.833333333 164.833333333 777.666666667 168 791 168 c 0
 831 168 865.166666667 152.833333333 893.5 122.5 c 128
 921.833333333 92.1666666667 936 55.3333333333 936 12 c 0
 936 -81.3333333333 897.166666667 -160.666666667 819.5 -226 c 128
 741.833333333 -291.333333333 648.333333333 -324 539 -324 c 0
 406.333333333 -324 293.166666667 -283 199.5 -201 c 128
 105.833333333 -119 59 -20 59 96 c 1
 59 96 l 1
EndSplineSet
Ligature2: "'psts' Post Base Substitutions lookup 4 subtable" tml_Ca tml_MatraUu
Colour: ff0000
EndChar

StartChar: tml_NyUu
Encoding: 346 -1 90
GlifName: tml_N_yU_u
Width: 0
Flags: HW
LayerCount: 3
Back
SplineSet
205 132 m 1
 205 105.333333333 213.333333333 82.6666666667 230 64 c 128
 246.666666667 45.3333333333 266.333333333 36 289 36 c 0
 312.333333333 36 332.166666667 45.5 348.5 64.5 c 128
 364.833333333 83.5 373 106 373 132 c 0
 373 158.666666667 364.833333333 181.5 348.5 200.5 c 128
 332.166666667 219.5 312.333333333 229 289 229 c 256
 265.666666667 229 245.833333333 219.5 229.5 200.5 c 128
 213.166666667 181.5 205 158.666666667 205 132 c 1
 205 132 l 1
49 204 m 1
 49 280 78.3333333333 345 137 399 c 128
 195.666666667 453 266.666666667 480 350 480 c 2
 817 480 l 1
 817 433 l 1
 625 433 l 1
 625 264 l 1
 638.333333333 278.666666667 653.333333333 290.333333333 670 299 c 128
 686.666666667 307.666666667 704 312 722 312 c 0
 768 312 807.5 291.166666667 840.5 249.5 c 128
 873.5 207.833333333 890 156.666666667 890 96 c 0
 890 62 888 30.8333333333 884 2.5 c 128
 880 -25.8333333333 873.666666667 -50.6666666667 865 -72 c 1
 985 -72 l 1
 985 480 l 1
 1304 480 l 1
 1304 433 l 1
 1226 433 l 1
 1226 -120 l 1
 1166 -120 l 1
 1166 433 l 1
 1046 433 l 1
 1046 -120 l 1
 848 -120 l 1
 813.333333333 -179.333333333 757 -226.166666667 679 -260.5 c 128
 601 -294.833333333 511 -312 409 -312 c 0
 303 -312 212.5 -295.666666667 137.5 -263 c 128
 62.5 -230.333333333 25 -191 25 -145 c 0
 25 -125 33.1666666667 -107.833333333 49.5 -93.5 c 128
 65.8333333333 -79.1666666667 85.6666666667 -72 109 -72 c 2
 806 -72 l 1
 814 -58 819.833333333 -37 823.5 -9 c 128
 827.166666667 19 829 54 829 96 c 0
 829 142 818.5 181.5 797.5 214.5 c 128
 776.5 247.5 751.333333333 264 722 264 c 0
 704 264 686.333333333 257 669 243 c 128
 651.666666667 229 637 210.333333333 625 187 c 1
 625 0 l 1
 565 0 l 1
 565 433 l 1
 350 433 l 2
 282 433 224 410.666666667 176 366 c 128
 128 321.333333333 104 267.333333333 104 204 c 0
 104 176 109.666666667 149.5 121 124.5 c 128
 132.333333333 99.5 148.333333333 78 169 60 c 1
 165 67.3333333333 162 76.8333333333 160 88.5 c 128
 158 100.166666667 157 114.666666667 157 132 c 0
 157 172 169.833333333 206 195.5 234 c 128
 221.166666667 262 252.333333333 276 289 276 c 0
 326.333333333 276 357.666666667 262 383 234 c 128
 408.333333333 206 421 172 421 132 c 0
 421 92 408.333333333 58 383 30 c 128
 357.666666667 2 326.333333333 -12 289 -12 c 0
 222.333333333 -12 165.666666667 9 119 51 c 128
 72.3333333333 93 49 144 49 204 c 1
 49 204 l 1
85 -145 m 1
 85 -177.666666667 116.666666667 -205.666666667 180 -229 c 128
 243.333333333 -252.333333333 319.666666667 -264 409 -264 c 0
 499 -264 577.166666667 -251.333333333 643.5 -226 c 128
 709.833333333 -200.666666667 755.666666667 -165.333333333 781 -120 c 1
 109 -120 l 2
 102.333333333 -120 96.6666666667 -122.5 92 -127.5 c 128
 87.3333333333 -132.5 85 -138.333333333 85 -145 c 1
 85 -145 l 1
EndSplineSet
Ligature2: "'psts' Post Base Substitutions lookup 4 subtable" tml_Nya tml_MatraUu
Colour: ff0000
EndChar

StartChar: tml_TtUu
Encoding: 347 -1 91
GlifName: tml_T_tU_u
Width: 0
Flags: HW
LayerCount: 3
Back
SplineSet
135 192 m 1
 135 86 161.333333333 -4.5 214 -79.5 c 128
 266.666666667 -154.5 330 -192 404 -192 c 0
 466 -192 518.666666667 -166.166666667 562 -114.5 c 128
 605.333333333 -62.8333333333 627 -0.666666666667 627 72 c 0
 627 112 617.5 146 598.5 174 c 128
 579.5 202 556.666666667 216 530 216 c 0
 516 216 501.833333333 211.666666667 487.5 203 c 128
 473.166666667 194.333333333 459.333333333 182.666666667 446 168 c 1
 446 0 l 1
 387 0 l 1
 387 480 l 1
 446 480 l 1
 446 234 l 1
 450 243.333333333 461 250.666666667 479 256 c 128
 497 261.333333333 518.333333333 264 543 264 c 0
 583 264 617 245.166666667 645 207.5 c 128
 673 169.833333333 687 124.666666667 687 72 c 0
 687 -14.6666666667 659.333333333 -88.3333333333 604 -149 c 128
 548.666666667 -209.666666667 482 -240 404 -240 c 0
 312.666666667 -240 234.833333333 -197.666666667 170.5 -113 c 128
 106.166666667 -28.3333333333 74 73.3333333333 74 192 c 0
 74 338 113.833333333 462.666666667 193.5 566 c 128
 273.166666667 669.333333333 369.333333333 721 482 721 c 0
 554.666666667 721 617 701 669 661 c 128
 721 621 747 573 747 517 c 0
 747 484.333333333 735.166666667 456 711.5 432 c 128
 687.833333333 408 659.666666667 396 627 396 c 256
 594.333333333 396 566.166666667 407.833333333 542.5 431.5 c 128
 518.833333333 455.166666667 507 483.666666667 507 517 c 0
 507 549.666666667 518.666666667 577.833333333 542 601.5 c 128
 565.333333333 625.166666667 593.666666667 637 627 637 c 1
 613 649 593.666666667 657.833333333 569 663.5 c 128
 544.333333333 669.166666667 515.333333333 672 482 672 c 0
 385.333333333 672 303.333333333 625.333333333 236 532 c 128
 168.666666667 438.666666667 135 325.333333333 135 192 c 1
 135 192 l 1
555 517 m 1
 555 497 562 479.833333333 576 465.5 c 128
 590 451.166666667 607 444 627 444 c 256
 647 444 663.833333333 451 677.5 465 c 128
 691.166666667 479 698 496.333333333 698 517 c 256
 698 537 691 553.833333333 677 567.5 c 128
 663 581.166666667 646.333333333 588 627 588 c 0
 607 588 590 581 576 567 c 128
 562 553 555 536.333333333 555 517 c 1
 555 517 l 1
EndSplineSet
Ligature2: "'psts' Post Base Substitutions lookup 4 subtable" tml_Tta tml_MatraUu
Colour: ff0000
EndChar

StartChar: tml_NnUu
Encoding: 348 -1 92
GlifName: tml_N_nU_u
Width: 0
Flags: HW
LayerCount: 3
Back
SplineSet
190 132 m 1
 190 105.333333333 196.5 82.6666666667 209.5 64 c 128
 222.5 45.3333333333 238.333333333 36 257 36 c 0
 277 36 294 45.5 308 64.5 c 128
 322 83.5 329 106 329 132 c 0
 329 158.666666667 322 181.5 308 200.5 c 128
 294 219.5 277 229 257 229 c 0
 239 229 223.333333333 219.5 210 200.5 c 128
 196.666666667 181.5 190 158.666666667 190 132 c 1
 190 132 l 1
473 192 m 1
 473 149.333333333 478.833333333 112.666666667 490.5 82 c 128
 502.166666667 51.3333333333 516.333333333 36 533 36 c 256
 549.666666667 36 563.833333333 51.1666666667 575.5 81.5 c 128
 587.166666667 111.833333333 593 148.666666667 593 192 c 0
 593 221.333333333 587.833333333 249.833333333 577.5 277.5 c 128
 567.166666667 305.166666667 552.333333333 330.666666667 533 354 c 1
 513.666666667 330.666666667 498.833333333 305.166666667 488.5 277.5 c 128
 478.166666667 249.833333333 473 221.333333333 473 192 c 1
 473 192 l 1
761 192 m 1
 761 149.333333333 766.833333333 112.666666667 778.5 82 c 128
 790.166666667 51.3333333333 804.333333333 36 821 36 c 256
 837.666666667 36 851.833333333 51.1666666667 863.5 81.5 c 128
 875.166666667 111.833333333 881 148.666666667 881 192 c 0
 881 223.333333333 875.833333333 253.333333333 865.5 282 c 128
 855.166666667 310.666666667 840.333333333 336.666666667 821 360 c 1
 801.666666667 336.666666667 786.833333333 310.666666667 776.5 282 c 128
 766.166666667 253.333333333 761 223.333333333 761 192 c 1
 761 192 l 1
953 480 m 1
 1016.33333333 480 1070.33333333 453 1115 399 c 128
 1159.66666667 345 1182 280 1182 204 c 0
 1182 152 1173.66666667 102.166666667 1157 54.5 c 128
 1140.33333333 6.83333333333 1116.33333333 -35.3333333333 1085 -72 c 1
 1253 -72 l 1
 1253 480 l 1
 1602 480 l 1
 1602 433 l 1
 1506 433 l 1
 1506 -120 l 1
 1445 -120 l 1
 1445 433 l 1
 1313 433 l 1
 1313 -120 l 1
 1037 -120 l 1
 985.666666667 -180.666666667 912.833333333 -227.833333333 818.5 -261.5 c 128
 724.166666667 -295.166666667 617 -312 497 -312 c 0
 419 -312 348 -302.833333333 284 -284.5 c 128
 220 -266.166666667 167 -239.333333333 125 -204 c 0
 110.333333333 -190.666666667 98.6666666667 -175.833333333 90 -159.5 c 128
 81.3333333333 -143.166666667 77 -126 77 -108 c 0
 77 -98 80.6666666667 -89.5 88 -82.5 c 128
 95.3333333333 -75.5 103.666666667 -72 113 -72 c 2
 1014 -72 l 1
 1049.33333333 -30.6666666667 1076 13.8333333333 1094 61.5 c 128
 1112 109.166666667 1121 156.666666667 1121 204 c 0
 1121 267.333333333 1104.5 321.333333333 1071.5 366 c 128
 1038.5 410.666666667 999 433 953 433 c 0
 939 433 923.833333333 430.333333333 907.5 425 c 128
 891.166666667 419.666666667 874.333333333 412 857 402 c 1
 884.333333333 370 905.166666667 337 919.5 303 c 128
 933.833333333 269 941 236 941 204 c 0
 941 144 929.166666667 93 905.5 51 c 128
 881.833333333 9 853.666666667 -12 821 -12 c 256
 788.333333333 -12 760.166666667 9 736.5 51 c 128
 712.833333333 93 701 144 701 204 c 0
 701 246 707.833333333 284.333333333 721.5 319 c 128
 735.166666667 353.666666667 754.333333333 381.333333333 779 402 c 1
 763 416 746.166666667 426.5 728.5 433.5 c 128
 710.833333333 440.5 693.666666667 444 677 444 c 256
 660.333333333 444 642.833333333 439.833333333 624.5 431.5 c 128
 606.166666667 423.166666667 587.666666667 411.333333333 569 396 c 1
 595.666666667 374 616.333333333 345.166666667 631 309.5 c 128
 645.666666667 273.833333333 653 234.666666667 653 192 c 0
 653 136 641.166666667 88 617.5 48 c 128
 593.833333333 8 565.666666667 -12 533 -12 c 256
 500.333333333 -12 472.166666667 8 448.5 48 c 128
 424.833333333 88 413 136 413 192 c 0
 413 230 419.833333333 266.833333333 433.5 302.5 c 128
 447.166666667 338.166666667 466.333333333 371.333333333 491 402 c 1
 475 416 455.166666667 426.5 431.5 433.5 c 128
 407.833333333 440.5 381.666666667 444 353 444 c 0
 283.666666667 444 224.333333333 420.666666667 175 374 c 128
 125.666666667 327.333333333 101 270.666666667 101 204 c 0
 101 168 106.833333333 135.333333333 118.5 106 c 128
 130.166666667 76.6666666667 146.333333333 53.3333333333 167 36 c 1
 157 52.6666666667 149.5 69.1666666667 144.5 85.5 c 128
 139.5 101.833333333 137 117.333333333 137 132 c 0
 137 172 148.833333333 206 172.5 234 c 128
 196.166666667 262 224.333333333 276 257 276 c 256
 289.666666667 276 317.833333333 262 341.5 234 c 128
 365.166666667 206 377 172 377 132 c 0
 377 92 363 58 335 30 c 128
 307 2 272.666666667 -12 232 -12 c 0
 182.666666667 -12 140.5 9 105.5 51 c 128
 70.5 93 53 144 53 204 c 0
 53 283.333333333 82.3333333333 351.166666667 141 407.5 c 128
 199.666666667 463.833333333 270.333333333 492 353 492 c 0
 391 492 425.333333333 487.5 456 478.5 c 128
 486.666666667 469.5 512.333333333 456 533 438 c 1
 553.666666667 455.333333333 576.5 468.666666667 601.5 478 c 128
 626.5 487.333333333 651.666666667 492 677 492 c 0
 705 492 731.833333333 487.5 757.5 478.5 c 128
 783.166666667 469.5 806.333333333 456 827 438 c 1
 843 452 861.833333333 462.5 883.5 469.5 c 128
 905.166666667 476.5 928.333333333 480 953 480 c 1
 953 480 l 1
161 -120 m 1
 154.333333333 -120 148.666666667 -121.833333333 144 -125.5 c 128
 139.333333333 -129.166666667 137 -133.333333333 137 -138 c 256
 137 -142.666666667 140.333333333 -148.833333333 147 -156.5 c 128
 153.666666667 -164.166666667 164.333333333 -174.333333333 179 -187 c 0
 209.666666667 -211.666666667 252.166666667 -230.666666667 306.5 -244 c 128
 360.833333333 -257.333333333 424.333333333 -264 497 -264 c 0
 593.666666667 -264 682.166666667 -251.5 762.5 -226.5 c 128
 842.833333333 -201.5 910.333333333 -166 965 -120 c 1
 161 -120 l 1
 161 -120 l 1
EndSplineSet
Ligature2: "'psts' Post Base Substitutions lookup 4 subtable" tml_Nna tml_MatraUu
Colour: ff0000
EndChar

StartChar: tml_TUu
Encoding: 349 -1 93
GlifName: tml_T_U_u
Width: 0
Flags: HW
LayerCount: 3
Back
SplineSet
214 264 m 1
 334 264 l 1
 334 433 l 1
 214 433 l 1
 214 264 l 1
 214 264 l 1
94 156 m 1
 94 123.333333333 106.833333333 95.1666666667 132.5 71.5 c 128
 158.166666667 47.8333333333 189.333333333 36 226 36 c 0
 255.333333333 36 280.666666667 45.5 302 64.5 c 128
 323.333333333 83.5 334 106 334 132 c 2
 334 216 l 1
 189 216 l 2
 162.333333333 216 139.833333333 210.333333333 121.5 199 c 128
 103.166666667 187.666666667 94 173.333333333 94 156 c 1
 94 156 l 1
82 -120 m 1
 74 -120 67 -122.5 61 -127.5 c 128
 55 -132.5 52 -138.333333333 52 -145 c 0
 52 -179.666666667 73.6666666667 -209.333333333 117 -234 c 128
 160.333333333 -258.666666667 212.333333333 -271 273 -271 c 0
 324.333333333 -271 372.666666667 -257.333333333 418 -230 c 128
 463.333333333 -202.666666667 499 -166 525 -120 c 1
 82 -120 l 1
 82 -120 l 1
4 -145 m 1
 4 -125 11.5 -107.833333333 26.5 -93.5 c 128
 41.5 -79.1666666667 60 -72 82 -72 c 2
 544 -72 l 1
 552 -50.6666666667 557.833333333 -26.6666666667 561.5 0 c 128
 565.166666667 26.6666666667 567 54.6666666667 567 84 c 0
 567 121.333333333 556 152.666666667 534 178 c 128
 512 203.333333333 485.333333333 216 454 216 c 2
 394 216 l 1
 394 132 l 2
 394 92 377.5 58 344.5 30 c 128
 311.5 2 272 -12 226 -12 c 0
 173.333333333 -12 128 4.5 90 37.5 c 128
 52 70.5 33 110 33 156 c 0
 33 185.333333333 44.8333333333 210.666666667 68.5 232 c 128
 92.1666666667 253.333333333 120.333333333 264 153 264 c 1
 153 480 l 1
 562 480 l 1
 562 433 l 1
 394 433 l 1
 394 264 l 1
 454 264 l 2
 500 264 539.5 246.333333333 572.5 211 c 128
 605.5 175.666666667 622 133.333333333 622 84 c 0
 622 54.6666666667 619.833333333 26.6666666667 615.5 0 c 128
 611.166666667 -26.6666666667 605.333333333 -50.6666666667 598 -72 c 1
 718 -72 l 1
 718 480 l 1
 1036 480 l 1
 1036 433 l 1
 958 433 l 1
 958 -120 l 1
 898 -120 l 1
 898 433 l 1
 778 433 l 1
 778 -120 l 1
 586 -120 l 1
 558.666666667 -178.666666667 516.833333333 -225.333333333 460.5 -260 c 128
 404.166666667 -294.666666667 341.666666667 -312 273 -312 c 0
 199 -312 135.666666667 -295.666666667 83 -263 c 128
 30.3333333333 -230.333333333 4 -191 4 -145 c 1
 4 -145 l 1
EndSplineSet
Ligature2: "'psts' Post Base Substitutions lookup 4 subtable" tml_Ta tml_MatraUu
Colour: ff0000
EndChar

StartChar: tml_NUu
Encoding: 350 -1 94
GlifName: tml_N_U_u
Width: 0
Flags: HW
LayerCount: 3
Back
SplineSet
6 -145 m 1
 6 -125 15.3333333333 -107.833333333 34 -93.5 c 128
 52.6666666667 -79.1666666667 75.3333333333 -72 102 -72 c 2
 522 -72 l 1
 534 -51.3333333333 543.166666667 -26.8333333333 549.5 1.5 c 128
 555.833333333 29.8333333333 559 61.3333333333 559 96 c 0
 559 142 549.5 181.5 530.5 214.5 c 128
 511.5 247.5 488.666666667 264 462 264 c 0
 440.666666667 264 420.333333333 258.166666667 401 246.5 c 128
 381.666666667 234.833333333 366 218.666666667 354 198 c 1
 354 0 l 1
 294 0 l 1
 294 433 l 1
 150 433 l 1
 150 0 l 1
 90 0 l 1
 90 480 l 1
 540 480 l 1
 540 433 l 1
 354 433 l 1
 354 264 l 1
 367.333333333 278.666666667 383.333333333 290.333333333 402 299 c 128
 420.666666667 307.666666667 440.666666667 312 462 312 c 0
 504.666666667 312 541.333333333 291.166666667 572 249.5 c 128
 602.666666667 207.833333333 618 156.666666667 618 96 c 0
 618 66.6666666667 615.166666667 37.8333333333 609.5 9.5 c 128
 603.833333333 -18.8333333333 594.666666667 -46 582 -72 c 1
 714 -72 l 1
 714 480 l 1
 1032 480 l 1
 1032 433 l 1
 954 433 l 1
 954 -120 l 1
 895 -120 l 1
 895 433 l 1
 774 433 l 1
 774 -120 l 1
 564 -120 l 1
 536.666666667 -178.666666667 496.333333333 -225.333333333 443 -260 c 128
 389.666666667 -294.666666667 332.333333333 -312 271 -312 c 0
 198.333333333 -312 136 -295.666666667 84 -263 c 128
 32 -230.333333333 6 -191 6 -145 c 1
 6 -145 l 1
66 -145 m 1
 66 -177.666666667 86.1666666667 -205.666666667 126.5 -229 c 128
 166.833333333 -252.333333333 215 -264 271 -264 c 0
 315.666666667 -264 358.333333333 -251.333333333 399 -226 c 128
 439.666666667 -200.666666667 472.666666667 -165.333333333 498 -120 c 1
 102 -120 l 2
 92 -120 83.5 -122.5 76.5 -127.5 c 128
 69.5 -132.5 66 -138.333333333 66 -145 c 1
 66 -145 l 1
EndSplineSet
Ligature2: "'psts' Post Base Substitutions lookup 4 subtable" tml_Na tml_MatraUu
Colour: ff0000
EndChar

